<?xml version="1.0" encoding="utf-8"?>
<!-- Generator: Adobe Illustrator 18.1.1, SVG Export Plug-In . SVG Version: 6.00 Build 0)  -->
<svg version="1.1" id="Layer_1" xmlns="http://www.w3.org/2000/svg" xmlns:xlink="http://www.w3.org/1999/xlink" x="0px" y="0px"
	 viewBox="0 0 72 72" enable-background="new 0 0 72 72" xml:space="preserve">
<g>
	<path fill="#27292D" d="M21.7,50.4c0,0.2,0,0.3,0,0.5c0,0.1-0.1,0.2-0.1,0.3c-0.1,0.1-0.1,0.1-0.2,0.2c-0.1,0-0.1,0.1-0.2,0.1
		c-0.2,0-0.4,0.1-0.6,0.1c-0.2,0-0.3,0-0.6,0c-0.8,0-1.4-0.1-1.9-0.4c-0.5-0.3-0.9-0.6-1.2-1.1c-0.3-0.5-0.5-1.1-0.6-1.9
		c-0.1-0.7-0.2-1.7-0.2-3v-3.6c0-0.8-0.1-1.4-0.1-1.9c-0.1-0.5-0.3-0.9-0.5-1.3c-0.2-0.4-0.5-0.7-0.8-0.9c-0.3-0.2-0.7-0.4-1.2-0.4
		c-0.1,0-0.2-0.1-0.3-0.1c-0.1,0-0.1-0.1-0.2-0.2c0-0.1-0.1-0.2-0.1-0.3c0-0.1,0-0.3,0-0.5c0-0.2,0-0.3,0-0.5c0-0.1,0-0.2,0.1-0.3
		c0-0.1,0.1-0.1,0.2-0.2c0.1,0,0.2-0.1,0.3-0.1c0.9-0.1,1.5-0.5,1.9-1.2c0.4-0.7,0.6-1.8,0.6-3.3v-2.8c0-1.2,0.1-2.2,0.2-2.9
		c0.1-0.7,0.3-1.4,0.6-1.9c0.3-0.5,0.7-0.9,1.2-1.1c0.5-0.2,1.1-0.4,1.9-0.4c0.2,0,0.4,0,0.6,0c0.1,0,0.3,0,0.5,0.1
		c0.1,0,0.2,0,0.2,0.1c0.1,0,0.1,0.1,0.2,0.2c0.1,0.1,0.1,0.2,0.1,0.3c0,0.1,0,0.3,0,0.5c0,0.2,0,0.4,0,0.5c0,0.1-0.1,0.2-0.1,0.3
		c-0.1,0.1-0.1,0.2-0.2,0.2c-0.1,0-0.2,0.1-0.3,0.1l-0.7,0c-0.3,0-0.5,0-0.7,0.1c-0.2,0.1-0.4,0.3-0.5,0.6C19,24.6,19,25,18.9,25.5
		c-0.1,0.5-0.1,1.3-0.1,2.3v2.5c0,0.8,0,1.6-0.1,2.2c-0.1,0.6-0.3,1.1-0.5,1.6c-0.2,0.5-0.6,0.9-1,1.2c-0.4,0.3-0.9,0.6-1.5,0.7
		c0.6,0.1,1.1,0.3,1.5,0.7c0.4,0.3,0.7,0.8,1,1.2c0.2,0.5,0.4,1,0.5,1.6c0.1,0.6,0.1,1.3,0.1,2.2v3.3c0,1,0,1.8,0.1,2.3
		c0.1,0.5,0.1,0.9,0.3,1.2c0.1,0.3,0.3,0.5,0.5,0.6c0.2,0.1,0.4,0.2,0.7,0.2l0.7,0c0.1,0,0.2,0,0.3,0.1c0.1,0,0.1,0.1,0.2,0.2
		c0.1,0.1,0.1,0.2,0.1,0.3C21.7,50,21.7,50.2,21.7,50.4z"/>
</g>
<g>
	<path fill="#27292D" d="M51.4,21.7c0-0.2,0-0.3,0-0.5c0-0.1,0.1-0.2,0.1-0.3c0.1-0.1,0.1-0.1,0.2-0.2c0.1,0,0.1-0.1,0.2-0.1
		c0.2,0,0.4-0.1,0.6-0.1c0.2,0,0.3,0,0.6,0c0.8,0,1.4,0.1,1.9,0.4c0.5,0.3,0.9,0.6,1.2,1.1c0.3,0.5,0.5,1.1,0.6,1.9
		c0.1,0.7,0.2,1.7,0.2,3v3.6c0,0.8,0.1,1.4,0.1,1.9c0.1,0.5,0.3,0.9,0.5,1.3c0.2,0.4,0.5,0.7,0.8,0.9c0.3,0.2,0.7,0.4,1.2,0.4
		c0.1,0,0.2,0.1,0.3,0.1c0.1,0,0.1,0.1,0.2,0.2c0,0.1,0.1,0.2,0.1,0.3c0,0.1,0,0.3,0,0.5c0,0.2,0,0.3,0,0.5c0,0.1,0,0.2-0.1,0.3
		c0,0.1-0.1,0.1-0.2,0.2s-0.2,0.1-0.3,0.1c-0.9,0.1-1.5,0.5-1.9,1.2c-0.4,0.7-0.6,1.8-0.6,3.3v2.8c0,1.2-0.1,2.2-0.2,2.9
		c-0.1,0.7-0.3,1.4-0.6,1.9c-0.3,0.5-0.7,0.9-1.2,1.1c-0.5,0.2-1.1,0.4-1.9,0.4c-0.2,0-0.4,0-0.6,0c-0.1,0-0.3,0-0.5-0.1
		c-0.1,0-0.2,0-0.2-0.1c-0.1,0-0.1-0.1-0.2-0.2c-0.1-0.1-0.1-0.2-0.1-0.3c0-0.1,0-0.3,0-0.5c0-0.2,0-0.4,0-0.5
		c0-0.1,0.1-0.2,0.1-0.3c0.1-0.1,0.1-0.2,0.2-0.2c0.1,0,0.2-0.1,0.3-0.1l0.7,0c0.3,0,0.5,0,0.7-0.1c0.2-0.1,0.4-0.3,0.5-0.6
		c0.1-0.3,0.2-0.7,0.3-1.2c0.1-0.5,0.1-1.3,0.1-2.3v-2.5c0-0.8,0-1.6,0.1-2.2c0.1-0.6,0.3-1.1,0.5-1.6c0.2-0.5,0.6-0.9,1-1.2
		c0.4-0.3,0.9-0.6,1.5-0.7c-0.6-0.1-1.1-0.3-1.5-0.7c-0.4-0.3-0.7-0.8-1-1.2c-0.2-0.5-0.4-1-0.5-1.6c-0.1-0.6-0.1-1.3-0.1-2.2V27
		c0-1,0-1.8-0.1-2.3c-0.1-0.5-0.1-0.9-0.3-1.2c-0.1-0.3-0.3-0.5-0.5-0.6c-0.2-0.1-0.4-0.2-0.7-0.2l-0.7,0c-0.1,0-0.2,0-0.3-0.1
		c-0.1,0-0.1-0.1-0.2-0.2c-0.1-0.1-0.1-0.2-0.1-0.3C51.4,22.1,51.4,21.9,51.4,21.7z"/>
</g>
</svg>
