<?xml version="1.0" standalone="no"?>
<!DOCTYPE svg PUBLIC "-//W3C//DTD SVG 1.1//EN" "http://www.w3.org/Graphics/SVG/1.1/DTD/svg11.dtd" >
<svg>
<metadata>
Created by FontForge 20090622 at Sat Apr  1 19:39:00 2017
 By deploy user
Copyright  VOLVO 1997. Rev 2004
</metadata>
<defs>
<font id="VolvoBroadPro" horiz-adv-x="356" >
  <font-face 
    font-family="Volvo Broad Pro"
    font-weight="500"
    font-stretch="normal"
    units-per-em="1000"
    panose-1="2 0 6 6 2 0 0 2 0 4"
    ascent="800"
    descent="-200"
    x-height="667"
    cap-height="667"
    bbox="-111 -236 819 827"
    underline-thickness="50"
    underline-position="-50"
    unicode-range="U+0020-U+2248"
  />
<missing-glyph horiz-adv-x="500" 
 />
    <glyph glyph-name=".notdef" horiz-adv-x="500" 
 />
    <glyph glyph-name=".null" horiz-adv-x="0" 
 />
    <glyph glyph-name="nonmarkingreturn" horiz-adv-x="333" 
 />
    <glyph glyph-name="space" unicode=" " horiz-adv-x="189" 
 />
    <glyph glyph-name="exclam" unicode="!" horiz-adv-x="172" 
d="M144 624l-4 -410q0 -24 -6.5 -32.5t-23.5 -8.5h-42q-18 0 -25 8.5t-8 32.5l-7 411q-1 42 31 42h53q19 0 25.5 -9t6.5 -34zM144 45q0 -26 -5.5 -35.5t-25.5 -9.5h-52q-20 0 -25.5 9.5t-5.5 35.5v28q0 26 5.5 35.5t25.5 9.5h52q20 0 25.5 -9.5t5.5 -35.5v-28z" />
    <glyph glyph-name="quotedbl" unicode="&#x22;" horiz-adv-x="250" 
d="M243 639l-19 -134q-2 -13 -6.5 -17t-15.5 -4h-20q-11 0 -15.5 3.5t-6.5 17.5l-20 134q-2 12 4 20t17 8h63q22 0 19 -28zM110 639l-20 -134q-2 -14 -6.5 -17.5t-15.5 -3.5h-20q-11 0 -15.5 4t-6.5 17l-19 134q-3 28 19 28h63q11 0 17 -8t4 -20z" />
    <glyph glyph-name="numbersign" unicode="#" horiz-adv-x="638" 
d="M638 446l-9 -30q-4 -14 -9.5 -19.5t-17.5 -5.5h-120l-37 -114h115q26 0 18 -25l-9 -29q-5 -15 -10 -20.5t-17 -5.5h-122l-57 -179q-4 -11 -11 -14.5t-22 -3.5h-30q-29 0 -21 25l55 172h-117l-57 -179q-4 -11 -11 -14.5t-22 -3.5h-30q-29 0 -21 25l55 172h-113
q-27 0 -18 26l9 29q5 15 10 20t17 5h120l36 114h-114q-26 0 -18 25l9 29q5 15 10 20.5t17 5.5h122l58 181q4 11 10.5 14.5t21.5 3.5h30q29 0 21 -26l-55 -173h117l58 181q4 11 10.5 14.5t21.5 3.5h31q28 0 20 -26l-55 -173h113q25 0 18 -25zM396 391h-118l-36 -114h117z" />
    <glyph glyph-name="dollar" unicode="$" horiz-adv-x="295" 
d="M279 124q0 -98 -98 -98v-53q0 -13 -2.5 -17t-10.5 -4h-48q-8 0 -10.5 3.5t-2.5 15.5v55h-64q-18 0 -24 7.5t-6 30.5v32q0 24 5.5 31t23.5 7h95q19 0 23.5 15.5t-4.5 29.5l-103 196q-43 82 -43 153q0 57 23.5 82.5t73.5 28.5v50q0 19 14 19h46q8 0 11 -3t3 -13v-53h48
q26 0 26 -33v-40q0 -19 -6.5 -27t-22.5 -8h-81q-22 0 -27.5 -17t6.5 -37l99 -182q35 -64 45.5 -98.5t10.5 -72.5z" />
    <glyph glyph-name="percent" unicode="%" horiz-adv-x="555" 
d="M244 498q0 -105 -26 -147t-93 -42t-93 42.5t-26 146.5q0 98 23.5 138t95.5 40t95.5 -40t23.5 -138zM411 648l-201 -635q-5 -15 -17 -15h-33q-14 0 -17.5 5t1.5 18l197 631q3 10 7 13t15 3h30q8 0 12 -1t7 -5.5t-1 -13.5zM549 176q0 -104 -26 -146.5t-93 -42.5t-93 42
t-26 147q0 98 23.5 138t95.5 40t95.5 -40t23.5 -138zM154 493q0 72 -4 88.5t-24 16.5q-21 0 -25.5 -17.5t-4.5 -87.5q0 -75 4.5 -91.5t25.5 -16.5q20 0 24 16.5t4 91.5zM459 171q0 72 -4 88.5t-24 16.5q-21 0 -25.5 -17.5t-4.5 -87.5q0 -75 4.5 -91.5t25.5 -16.5
q20 0 24 16.5t4 91.5z" />
    <glyph glyph-name="ampersand" unicode="&#x26;" horiz-adv-x="394" 
d="M389 319q0 -32 -29 -32h-21v-101q0 -61 -4.5 -93.5t-22 -57t-49.5 -33t-88 -8.5q-98 0 -128 46.5t-30 165.5q0 78 13.5 109t47.5 40q-29 11 -42.5 44t-13.5 120q0 51 9.5 83t29.5 45t37 16.5t46 3.5h148q35 0 35 -33v-53q0 -32 -39 -32h-113q-39 0 -39 -34v-69
q0 -39 41 -39h44v19q0 31 30 31h57q31 0 31 -30v-21h19q19 0 25 -6.5t6 -23.5v-57zM221 158v131h-56q-29 0 -29 -34v-99q0 -43 42 -43q25 0 34 10.5t9 34.5z" />
    <glyph glyph-name="quotesingle" unicode="'" horiz-adv-x="116" 
d="M109 639l-20 -134q-2 -14 -6 -17.5t-16 -3.5h-20q-11 0 -15.5 4t-6.5 17l-18 134q-3 28 19 28h63q10 0 16 -8t4 -20z" />
    <glyph glyph-name="parenleft" unicode="(" horiz-adv-x="162" 
d="M146 -42q3 -21 -1 -26t-20 -5h-29q-16 0 -22 6t-11 26q-44 209 -44 365t44 365q5 20 11 26t22 6h29q16 0 20 -5t1 -26q-23 -168 -23 -366t23 -366z" />
    <glyph glyph-name="parenright" unicode=")" horiz-adv-x="162" 
d="M143 324q0 -156 -44 -365q-5 -20 -11 -26t-22 -6h-29q-16 0 -20 5t-1 26q23 168 23 366t-23 366q-3 21 1 26t20 5h29q16 0 22 -6t11 -26q44 -209 44 -365z" />
    <glyph glyph-name="asterisk" unicode="*" horiz-adv-x="210" 
d="M207 504l-7 -11q-7 -14 -24 -2l-55 36l4 -68q1 -17 -13 -17h-14q-15 0 -14 17l5 68l-57 -38q-14 -9 -21 3l-7 12q-8 14 7 21l62 30l-62 31q-15 8 -8 20l7 12q8 12 22 3l57 -39l-5 68q-1 19 14 19h13q15 0 14 -20l-4 -67l56 38q14 10 23 -3l7 -11q9 -13 -11 -22l-59 -29
l60 -29q19 -9 10 -22z" />
    <glyph glyph-name="plus" unicode="+" horiz-adv-x="430" 
d="M423 319q0 -23 -7.5 -30.5t-24.5 -7.5h-112v-115q0 -18 -8.5 -24.5t-31.5 -6.5h-51q-23 0 -30.5 7.5t-7.5 24.5v114h-111q-17 0 -24.5 7.5t-7.5 30.5v51q0 23 6.5 31.5t24.5 8.5h112v109q0 17 7.5 24.5t30.5 7.5h51q23 0 31.5 -6.5t8.5 -24.5v-110h113q18 0 24.5 -8.5
t6.5 -31.5v-51z" />
    <glyph glyph-name="comma" unicode="," horiz-adv-x="140" 
d="M129 42q0 -19 -11 -48l-19 -51q-7 -20 -21 -20h-48q-17 0 -10 17l18 43q7 17 -5 17h-6q-16 0 -16 25v48q0 26 5.5 35.5t25.5 9.5h56q20 0 25.5 -9.5t5.5 -35.5v-31z" />
    <glyph glyph-name="hyphen" unicode="-" horiz-adv-x="211" 
d="M201 328q0 -25 -6.5 -33t-25.5 -8h-127q-19 0 -25.5 8t-6.5 33v50q0 25 6.5 33t25.5 8h127q19 0 25.5 -8t6.5 -33v-50z" />
    <glyph glyph-name="period" unicode="." horiz-adv-x="140" 
d="M129 45q0 -26 -5.5 -35.5t-25.5 -9.5h-56q-20 0 -25.5 9.5t-5.5 35.5v28q0 26 5.5 35.5t25.5 9.5h56q20 0 25.5 -9.5t5.5 -35.5v-28z" />
    <glyph glyph-name="slash" unicode="/" horiz-adv-x="192" 
d="M185 660l-104 -659q-3 -21 -19 -21h-45q-14 0 -10 25l104 659q3 21 19 21h45q14 0 10 -25z" />
    <glyph glyph-name="zero" unicode="0" horiz-adv-x="348" 
d="M331 333q0 -90 -3.5 -144t-12 -96.5t-27 -62.5t-45 -29.5t-69.5 -9.5t-69.5 9.5t-45 29.5t-27 62.5t-12 96.5t-3.5 144q0 75 2 123t8.5 89.5t16.5 63.5t28.5 38t42 21.5t59.5 5.5t59.5 -5.5t42 -21.5t28.5 -38t16.5 -63.5t8.5 -89.5t2 -123zM214 333q0 82 -1 120.5
t-6 62.5t-11.5 28.5t-21.5 4.5t-21.5 -4.5t-11.5 -28.5t-6 -62.5t-1 -120.5q0 -81 1 -119.5t6 -62.5t11.5 -28.5t21.5 -4.5t21.5 4.5t11.5 28.5t6 62.5t1 119.5z" />
    <glyph glyph-name="one" unicode="1" horiz-adv-x="201" 
d="M170 43q0 -27 -6.5 -35t-28.5 -8h-50q-20 0 -26.5 8.5t-6.5 34.5v485q0 13 -2.5 17t-9.5 4h-7q-14 0 -18 7t-4 32v34q0 29 7.5 37t33.5 8h85q20 0 26.5 -8.5t6.5 -35.5v-580z" />
    <glyph glyph-name="two" unicode="2" horiz-adv-x="286" 
d="M279 41q0 -24 -7.5 -32.5t-28.5 -8.5h-206q-20 0 -26.5 8.5t-6.5 34.5v59q0 53 18 91l103 204q26 50 26 95q0 57 -38 57h-57q-25 0 -31.5 7t-6.5 34v36q0 25 7 33t27 8h118q60 0 80 -41q19 -38 19 -134q0 -65 -31 -127l-113 -227q-11 -20 7 -20h115q18 0 25 -7.5t7 -30.5
v-39z" />
    <glyph glyph-name="three" unicode="3" horiz-adv-x="282" 
d="M272 192q0 -106 -28 -149t-97 -43h-111q-21 0 -27 7.5t-6 33.5v34q0 25 6.5 34t26.5 9h79q23 0 30.5 14.5t7.5 64.5q0 74 -32 74h-54q-18 0 -24 8t-6 34v39q0 30 18 43l72 55q20 15 25 39t-4.5 42t-26.5 18h-81q-20 0 -26.5 7.5t-6.5 30.5v36q0 26 6.5 35t26.5 9h116
q59 0 85 -34.5t26 -129.5q0 -107 -59 -135q26 -21 39 -40q25 -39 25 -136z" />
    <glyph glyph-name="four" unicode="4" horiz-adv-x="353" 
d="M349 202q0 -32 -19 -32h-14q-9 0 -12 -5t-3 -19v-106q0 -24 -6.5 -32t-26.5 -8h-53q-20 0 -26 7.5t-6 32.5v108q0 14 -3.5 18t-18.5 4h-123q-32 0 -32 39v61q0 28 62 187q61 156 83 192q10 18 40 18h78q33 0 33 -43v-317q0 -20 14 -20h12q12 0 16.5 -7.5t4.5 -28.5v-49z
M183 312v137q0 12 -6 12q-5 0 -7 -7l-45 -143q-7 -24 6 -24h38q14 0 14 25z" />
    <glyph glyph-name="five" unicode="5" horiz-adv-x="284" 
d="M278 206q0 -110 -27.5 -158t-87.5 -48h-122q-22 0 -28 7.5t-6 35.5v34q0 26 6.5 33.5t27.5 7.5h78q37 0 37 91q0 50 -8.5 71t-28.5 21h-68q-21 0 -28 6.5t-7 23.5v290q0 26 7 36t26 10h187q19 0 26 -9.5t7 -33.5v-34q0 -23 -7 -32t-24 -9h-89q-9 0 -12 -4t-3 -17v-91
q0 -18 13 -18h20q52 0 77 -35q19 -27 26.5 -64.5t7.5 -113.5z" />
    <glyph glyph-name="six" unicode="6" horiz-adv-x="328" 
d="M318 234q0 -136 -23 -187q-13 -28 -42 -40t-83 -12q-66 0 -92.5 10.5t-44.5 39.5q-23 38 -23 201q0 110 12 169t55 127l68 109q9 16 23 16h100q17 0 17 -14q0 -7 -7 -19l-115 -191q19 8 46 8q55 0 81 -32q28 -35 28 -185zM199 163v127q0 24 -6.5 31t-29.5 7q-20 0 -27 -8
t-7 -34v-122q0 -28 7.5 -37t29.5 -9q19 0 26 9.5t7 35.5z" />
    <glyph glyph-name="seven" unicode="7" horiz-adv-x="288" 
d="M283 548q0 -25 -7 -55l-113 -462q-4 -17 -10.5 -24t-21.5 -7h-67q-24 0 -24 24q0 11 4 24l117 457q6 26 6 33q0 11 -13 11h-113q-23 0 -29.5 7.5t-6.5 34.5v35q0 25 6.5 33t27.5 8h212q18 0 25 -9.5t7 -32.5v-77z" />
    <glyph glyph-name="eight" unicode="8" horiz-adv-x="339" 
d="M327 205q0 -117 -30 -163.5t-128 -46.5t-127.5 46t-29.5 164q0 74 13.5 111t45.5 51q-28 9 -40 42t-12 98q0 93 28.5 128.5t121.5 35.5t122 -35.5t29 -128.5q0 -65 -12 -98t-40 -42q32 -14 45.5 -51t13.5 -111zM204 458v50q0 23 -7.5 32t-28.5 9t-29 -8.5t-8 -31.5v-51
q0 -24 7.5 -32t29.5 -8q21 0 28.5 8.5t7.5 31.5zM204 147v105q0 23 -7 30.5t-30 7.5q-21 0 -28 -8t-7 -31v-105q0 -28 37 -28q35 0 35 29z" />
    <glyph glyph-name="nine" unicode="9" horiz-adv-x="328" 
d="M318 429q0 -99 -11 -164.5t-46 -122.5l-77 -126q-1 -1 -3 -4t-2.5 -4t-2.5 -3t-4 -3t-4.5 -1.5t-6.5 -0.5h-100q-16 0 -16 14q0 8 6 19l116 192q-17 -10 -48 -10q-54 0 -81 32q-16 19 -22 59.5t-6 125.5q0 138 23 187q13 28 42 40t83 12q62 0 89.5 -11t47.5 -39
q23 -33 23 -192zM199 380v122q0 27 -8 36.5t-30 9.5q-19 0 -26 -9.5t-7 -35.5v-127q0 -24 6.5 -31t29.5 -7q20 0 27.5 8.5t7.5 33.5z" />
    <glyph glyph-name="colon" unicode=":" horiz-adv-x="140" 
d="M129 308q0 -26 -5.5 -35.5t-25.5 -9.5h-56q-20 0 -25.5 9.5t-5.5 35.5v28q0 26 5.5 35.5t25.5 9.5h56q20 0 25.5 -9.5t5.5 -35.5v-28zM129 45q0 -26 -5.5 -35.5t-25.5 -9.5h-56q-20 0 -25.5 9.5t-5.5 35.5v28q0 26 5.5 35.5t25.5 9.5h56q20 0 25.5 -9.5t5.5 -35.5v-28z
" />
    <glyph glyph-name="semicolon" unicode=";" horiz-adv-x="140" 
d="M129 308q0 -26 -5.5 -35.5t-25.5 -9.5h-56q-20 0 -25.5 9.5t-5.5 35.5v28q0 26 5.5 35.5t25.5 9.5h56q20 0 25.5 -9.5t5.5 -35.5v-28zM129 42q0 -19 -11 -48l-19 -51q-7 -20 -21 -20h-48q-17 0 -10 17l18 43q7 17 -5 17h-6q-16 0 -16 25v48q0 26 5.5 35.5t25.5 9.5h56
q20 0 25.5 -9.5t5.5 -35.5v-31z" />
    <glyph glyph-name="less" unicode="&#x3c;" horiz-adv-x="343" 
d="M10 201v52q0 10 2.5 16.5t4 8t10 6.5t11.5 7l255 162q38 24 39 -12l1 -41q1 -21 -3.5 -31t-22.5 -21l-192 -121l192 -121q17 -11 22 -22t4 -31l-1 -40q-1 -36 -39 -12l-255 162q-4 2 -10 5.5t-8 5t-5 5t-4 9t-1 13.5z" />
    <glyph glyph-name="equal" unicode="=" horiz-adv-x="376" 
d="M366 305q0 -26 -5.5 -35.5t-25.5 -9.5h-294q-20 0 -25.5 9.5t-5.5 35.5v28q0 26 5.5 35.5t25.5 9.5h294q20 0 25.5 -9.5t5.5 -35.5v-28zM366 126q0 -26 -5.5 -35.5t-25.5 -9.5h-294q-20 0 -25.5 9.5t-5.5 35.5v28q0 26 5.5 35.5t25.5 9.5h294q20 0 25.5 -9.5t5.5 -35.5
v-28z" />
    <glyph glyph-name="greater" unicode="&#x3e;" horiz-adv-x="343" 
d="M333 201v52q0 10 -2.5 16.5t-4 8t-10 6.5t-11.5 7l-255 162q-38 24 -39 -12l-1 -41q-1 -21 3.5 -31t22.5 -21l192 -121l-192 -121q-17 -11 -22 -22t-4 -31l1 -40q1 -36 39 -12l255 162q4 2 10 5.5t8 5t5 5t4 9t1 13.5z" />
    <glyph glyph-name="question" unicode="?" horiz-adv-x="268" 
d="M257 529q0 -43 -5 -69t-21 -60l-39 -82q-10 -21 -10 -52v-65q0 -17 -6.5 -23t-24.5 -6h-50q-19 0 -26 7.5t-7 29.5v91q0 31 10 52l39 82q16 32 19 44t3 33t-7 29.5t-26 8.5h-66q-33 0 -33 42v34q0 42 33 42h120q54 0 75.5 -26.5t21.5 -111.5zM182 45q0 -26 -5.5 -35.5
t-25.5 -9.5h-52q-20 0 -25.5 9.5t-5.5 35.5v28q0 26 5.5 35.5t25.5 9.5h52q20 0 25.5 -9.5t5.5 -35.5v-28z" />
    <glyph glyph-name="at" unicode="@" horiz-adv-x="484" 
d="M470 385q0 -107 -43 -176t-106 -69q-17 0 -29.5 11t-17.5 27q-26 -37 -63 -37t-60 39.5t-23 95.5q0 86 32.5 149t86.5 63q26 0 41 -28q8 18 21 18h29q19 0 19 -27q0 -4 -0.5 -8.5t-1.5 -11t-1 -9.5l-23 -171q-1 -6 -1 -19q0 -18 12 -18q11 0 22 18t19.5 59t8.5 96
q0 86 -33.5 136t-95.5 50q-81 0 -124 -76.5t-43 -195.5q0 -125 40 -176t111 -51q70 0 137 24q4 2 9 2q9 0 14 -14l11 -38q3 -7 3 -11q0 -7 -8 -12t-35 -12q-68 -17 -136 -17q-226 0 -226 305q0 161 64 255.5t185 94.5q100 0 152.5 -72.5t52.5 -193.5zM278 359q0 58 -26 58
q-11 0 -21.5 -15t-18 -48.5t-7.5 -77.5q0 -36 5.5 -49t18.5 -13q20 0 34.5 37.5t14.5 107.5z" />
    <glyph glyph-name="A" unicode="A" horiz-adv-x="371" 
d="M368 15q2 -15 -15 -15h-95q-14 0 -17 18l-19 141q-2 16 -17 16h-42q-15 0 -17 -16l-16 -143q-1 -10 -4.5 -13t-13.5 -3h-92q-9 0 -13.5 4t-3.5 11l81 614q3 22 12 30t30 8h116q18 0 27 -8.5t12 -30.5zM210 304l-19 230q-1 15 -8 15t-8 -16l-17 -229q-1 -5 2.5 -8t10.5 -3
h25q7 0 11 3t3 8z" />
    <glyph glyph-name="B" unicode="B" horiz-adv-x="361" 
d="M347 180q0 -85 -24 -132.5t-84 -47.5h-181q-19 0 -25.5 9t-6.5 35v580q0 24 7 33.5t25 9.5h181q31 0 51.5 -12.5t30.5 -37t13.5 -52t3.5 -66.5q0 -118 -54 -151q63 -25 63 -168zM221 476q0 44 -10 58.5t-32 14.5h-19q-10 0 -13.5 -4t-3.5 -16v-105q0 -12 3.5 -16t13.5 -4
h19q26 0 34 15t8 57zM228 201q0 51 -11 68t-38 17h-19q-10 0 -13.5 -4t-3.5 -16v-128q0 -20 17 -20h19q30 0 39.5 17t9.5 66z" />
    <glyph glyph-name="C" unicode="C" horiz-adv-x="290" 
d="M287 587q0 -23 -6.5 -30.5t-26.5 -7.5h-76q-24 0 -30 -14q-11 -23 -11 -186v-17q0 -82 1 -122t6 -62.5t11 -26t21 -3.5h78q18 0 25 -7.5t7 -26.5v-48q0 -20 -6.5 -28t-23.5 -8h-119q-32 0 -51.5 8.5t-34 27.5t-21.5 58t-10 91t-3 136q-1 214 18 280t97 66h124q17 0 24 -8
t7 -27v-45z" />
    <glyph glyph-name="D" unicode="D" horiz-adv-x="366" 
d="M349 334q0 -150 -10.5 -218t-35.5 -92t-80 -24h-162q-22 0 -28.5 8t-6.5 35v579q0 25 7 35t25 10h171q28 0 47.5 -7t33 -26t21 -41.5t12 -64.5t5.5 -84t1 -110zM230 324q0 174 -9 201q-7 22 -31 24h-16q-22 0 -28 -5t-6 -25v-374q0 -19 5.5 -23t31.5 -4q31 0 39 13
q13 22 14 155v38z" />
    <glyph glyph-name="E" unicode="E" horiz-adv-x="301" 
d="M298 43q0 -43 -34 -43h-204q-20 0 -27 9t-7 35v579q0 25 7.5 34.5t26.5 9.5h198q19 0 25.5 -7.5t6.5 -31.5v-37q0 -25 -6.5 -33.5t-25.5 -8.5h-98q-11 0 -14.5 -4t-3.5 -18v-93q0 -14 2.5 -17.5t15.5 -3.5h50q17 0 23 -7t6 -27v-51q0 -19 -6.5 -26t-22.5 -7h-50
q-11 0 -14.5 -3t-3.5 -12v-140q0 -13 4 -17.5t17 -4.5h99q20 0 28 -9.5t8 -33.5v-32z" />
    <glyph glyph-name="F" unicode="F" horiz-adv-x="287" 
d="M284 589q0 -22 -7 -31t-24 -9h-92q-12 0 -15 -5t-3 -22v-91q0 -18 13 -18h56q18 0 24 -8t6 -32v-35q0 -25 -6.5 -34t-24.5 -9h-50q-12 0 -15 -4.5t-3 -21.5v-227q0 -24 -6 -33t-23 -9h-56q-19 0 -25.5 8.5t-6.5 33.5v579q0 28 6.5 37t26.5 9h190q20 0 27.5 -9.5
t7.5 -33.5v-35z" />
    <glyph glyph-name="G" unicode="G" 
d="M341 196q0 -53 -5 -85t-20.5 -60t-47 -40.5t-81.5 -12.5q-28 0 -50.5 4t-40 12t-30 20t-21 28.5t-14 37t-8.5 45t-4.5 53.5t-1.5 62v71q1 190 14 245q18 79 77 89q11 2 23 2h136q20 0 27 -8t7 -34v-32q0 -25 -6.5 -34.5t-24.5 -9.5h-72q-36 0 -46 -12q-15 -19 -16 -130
v-79v-146q0 -64 53 -64q21 0 34.5 14t13.5 39v98q0 26 -12 26h-29q-12 0 -15 6.5t-3 24.5v46q0 23 7 32t30 9h95q19 0 25 -10t6 -34v-173z" />
    <glyph glyph-name="H" unicode="H" horiz-adv-x="378" 
d="M352 44q0 -25 -7 -34.5t-26 -9.5h-53q-19 0 -25 10t-6 33v231q0 12 -3 16.5t-13 4.5h-60q-10 0 -13 -4.5t-3 -16.5v-231q0 -23 -6 -33t-25 -10h-53q-19 0 -26 9.5t-7 34.5v580q0 24 7.5 33.5t25.5 9.5h54q30 0 30 -42v-193q0 -19 15 -19h62q15 0 15 19v193q0 42 30 42h54
q18 0 25.5 -9.5t7.5 -33.5v-580z" />
    <glyph glyph-name="I" unicode="I" horiz-adv-x="170" 
d="M144 42q0 -26 -7 -34t-26 -8h-50q-21 0 -28 8.5t-7 35.5v578q0 26 7 35.5t26 9.5h54q17 0 24 -10t7 -35v-580z" />
    <glyph glyph-name="J" unicode="J" horiz-adv-x="230" 
d="M211 171q0 -73 -23 -116q-30 -55 -101 -55h-49q-22 0 -28.5 8t-6.5 33v37q0 25 6.5 32.5t25.5 7.5h26q18 0 25 9t7 35v463q0 26 6.5 34t27.5 8h50q21 0 27.5 -8t6.5 -33v-455z" />
    <glyph glyph-name="K" unicode="K" horiz-adv-x="375" 
d="M372 655q0 -6 -3 -12l-99 -192q-5 -9 -6 -19q-1 -6 3 -21l101 -381q4 -20 1 -25t-17 -5h-82q-13 0 -18.5 6t-9.5 23l-47 222q-7 31 -12 31q-6 0 -10 -5.5t-20 -35.5q-9 -17 -9 -56v-143q0 -26 -7 -34t-26 -8h-50q-21 0 -28 8.5t-7 35.5v578q0 26 7 35.5t26 9.5h54
q17 0 24 -10t7 -35v-149q0 -10 4 -11q3 -1 5.5 1.5t5.5 9.5l74 156q11 24 17 31t21 7h89q12 0 12 -12z" />
    <glyph glyph-name="L" unicode="L" horiz-adv-x="278" 
d="M275 43q0 -23 -8.5 -33t-28.5 -10h-179q-20 0 -26.5 8.5t-6.5 35.5v580q0 23 7.5 33t25.5 10h53q19 0 25.5 -9t6.5 -34v-485q0 -21 16 -21h81q19 0 26.5 -9t7.5 -33v-33z" />
    <glyph glyph-name="M" unicode="M" horiz-adv-x="466" 
d="M440 43q0 -27 -6 -35t-27 -8h-53q-19 0 -25.5 9t-6.5 33v271q0 24 -4 24q-5 0 -9 -22l-40 -198q-4 -18 -11.5 -24t-24.5 -6t-24.5 6t-11.5 24l-40 198q-4 22 -9 22q-4 0 -4 -24v-271q0 -24 -6.5 -33t-25.5 -9h-53q-21 0 -27 8t-6 35v583q0 25 6.5 33t25.5 8h55
q24 0 31.5 -5t13.5 -26l67 -240q3 -9 8 -9t8 9l67 240q6 21 13.5 26t31.5 5h55q19 0 25.5 -8t6.5 -33v-583z" />
    <glyph glyph-name="N" unicode="N" horiz-adv-x="391" 
d="M365 45q0 -26 -7 -35.5t-28 -9.5h-46q-18 0 -25 5t-14 26l-84 249q-5 14 -11 14q-5 0 -5 -19v-231q0 -24 -6.5 -34t-24.5 -10h-52q-19 0 -27.5 9t-8.5 36v578q0 26 7 35t28 9h46q18 0 25 -5t14 -26l84 -248q5 -14 11 -14q5 0 5 19v230q0 24 6.5 34t24.5 10h52
q19 0 27.5 -9t8.5 -36v-577z" />
    <glyph glyph-name="O" unicode="O" 
d="M339 335v-65t-1.5 -58t-4.5 -55.5t-8.5 -46.5t-13.5 -42t-20 -31.5t-28 -25.5t-37.5 -14t-47.5 -6q-27 0 -48.5 6t-37.5 14t-28 26t-20 31.5t-13.5 42t-8 46t-4 55.5t-1.5 58v65v65t1.5 57.5t4 54.5t8 45.5t13.5 41.5t20 30.5t28 25t37.5 13.5t48.5 6q107 0 139 -90
q22 -59 22 -222v-27zM222 335q-1 142 -7 177.5t-37 35.5t-37.5 -36.5t-6.5 -176.5q1 -143 7 -180t37 -37t37.5 38t6.5 179z" />
    <glyph glyph-name="P" unicode="P" horiz-adv-x="347" 
d="M340 454q0 -101 -28.5 -153.5t-83.5 -52.5h-84v-205q0 -26 -6 -34.5t-26 -8.5h-54q-20 0 -26 8t-6 35v578q0 26 7 36t25 10h154q128 0 128 -213zM222 455q0 58 -7.5 76t-25.5 18h-29q-8 0 -12 -3.5t-4 -14.5v-148q0 -17 15 -17h33q16 0 23 16.5t7 72.5z" />
    <glyph glyph-name="Q" unicode="Q" 
d="M350 -19q20 -21 -5 -32l-66 -29q-17 -8 -36 17l-43 55q-3 0 -11 -0.5t-12 -0.5q-26 0 -47.5 6t-37.5 14t-28 25.5t-20 31t-13 41.5l-8 46t-4.5 54.5t-1.5 57.5v64v4v65t1.5 57.5t4 54.5t8 45.5t13.5 41.5t20 30.5t28 25t37.5 13.5t47.5 6q27 0 48.5 -6t37.5 -13.5t28 -25
t20 -30.5t13.5 -41.5t8 -45.5t4 -54.5t1.5 -57.5v-65q0 -84 -1.5 -125t-11.5 -91.5t-31 -77.5zM222 335q0 139 -7 176t-38 37t-37.5 -36.5t-6.5 -176.5q0 -141 6.5 -179t37.5 -38t38 38.5t7 178.5z" />
    <glyph glyph-name="R" unicode="R" horiz-adv-x="351" 
d="M346 14q0 -14 -18 -14h-78q-14 0 -19 5.5t-8 23.5l-41 240q-2 9 -12 9h-14q-11 0 -11 -9v-227q0 -23 -7.5 -32.5t-25.5 -9.5h-54q-19 0 -25.5 9t-6.5 34v579q0 26 7.5 35.5t26.5 9.5h143q137 0 137 -206q0 -56 -12.5 -90.5t-41.5 -59.5l58 -284q2 -10 2 -13zM224 476
q0 73 -34 73h-32q-13 0 -13 -14v-121q0 -18 10 -18h33q36 0 36 80z" />
    <glyph glyph-name="S" unicode="S" horiz-adv-x="302" 
d="M297 107q0 -107 -107 -107h-149q-20 0 -26.5 8t-6.5 33v35q0 26 6 34t26 8h103q20 0 25.5 16.5t-4.5 32.5l-113 213q-46 87 -46 166q0 66 30 93.5t94 27.5h114q28 0 28 -36v-44q0 -21 -7 -29.5t-24 -8.5h-89q-24 0 -29.5 -18.5t7.5 -40.5l107 -197q38 -70 49.5 -107.5
t11.5 -78.5z" />
    <glyph glyph-name="T" unicode="T" horiz-adv-x="315" 
d="M312 590q0 -24 -6.5 -32.5t-24.5 -8.5h-52q-13 0 -13 -20v-485q0 -26 -6.5 -35t-25.5 -9h-52q-20 0 -27 8.5t-7 32.5v488q0 20 -13 20h-52q-18 0 -24 7.5t-6 32.5v34q0 26 6.5 35t26.5 9h244q18 0 25 -8.5t7 -31.5v-37z" />
    <glyph glyph-name="U" unicode="U" horiz-adv-x="362" 
d="M342 190q0 -46 -6 -78t-22 -61.5t-50 -44.5t-85 -15q-94 0 -126.5 46.5t-32.5 147.5v438q0 25 7.5 34.5t27.5 9.5h53q18 0 24 -8.5t6 -32.5v-456q0 -28 10 -40t34 -12q23 0 32.5 12.5t9.5 40.5v455q0 25 6.5 33t25.5 8h55q19 0 25 -8t6 -33v-436z" />
    <glyph glyph-name="V" unicode="V" horiz-adv-x="364" 
d="M361 640l-99 -613q-2 -15 -8 -21t-19 -6h-106q-13 0 -19 6t-8 21l-99 613q-2 15 1.5 21t16.5 6h77q13 0 18.5 -5.5t8.5 -26.5l48 -380q1 -15 9 -15t9 15l48 380q3 21 8.5 26.5t18.5 5.5h77q13 0 16.5 -6t1.5 -21z" />
    <glyph glyph-name="W" unicode="W" horiz-adv-x="553" 
d="M548 631l-104 -602q-3 -16 -9 -22.5t-19 -6.5h-78q-15 0 -20.5 5.5t-7.5 24.5l-28 223q0 12 -5 12t-7 -11l-55 -234q-4 -20 -27 -20h-65q-13 0 -18 5t-7 20l-94 605q-3 24 3 30.5t22 6.5h68q12 0 17 -6t7 -23l47 -325q2 -13 9 -13q4 0 8 13l45 192l-14 126q-4 36 25 36
h70q13 0 18 -6t7 -23l39 -324q1 -14 8 -14t8 14l40 327q3 26 23 26h73q15 0 20 -7.5t1 -28.5z" />
    <glyph glyph-name="X" unicode="X" horiz-adv-x="342" 
d="M337 37q9 -37 -16 -37h-78q-23 0 -27 25l-36 207q-3 12 -9 12t-9 -12l-36 -207q-4 -25 -27 -25h-78q-25 0 -16 37l66 309l-66 285q-8 36 20 36h76q20 0 26 -27l36 -188q2 -13 8 -13t8 13l36 188q6 27 26 27h76q28 0 20 -36l-67 -285z" />
    <glyph glyph-name="Y" unicode="Y" horiz-adv-x="344" 
d="M341 632l-110 -377v-212q0 -26 -6.5 -34.5t-26.5 -8.5h-52q-20 0 -26.5 8.5t-6.5 34.5v212l-110 377q-5 12 -0.5 23.5t18.5 11.5h67q11 0 16.5 -4.5t9.5 -19.5l51 -217q4 -11 7 -11t7 11l51 217q4 15 9.5 19.5t16.5 4.5h67q14 0 18.5 -11.5t-0.5 -23.5z" />
    <glyph glyph-name="Z" unicode="Z" horiz-adv-x="311" 
d="M303 41q0 -24 -7.5 -32.5t-28.5 -8.5h-227q-19 0 -25.5 8t-6.5 32v75q0 34 16 69l159 347q9 18 -8 18h-125q-22 0 -27.5 7t-5.5 34v35q0 26 6 34t26 8h223q30 0 30 -39v-84q0 -20 -14 -51l-159 -351q-12 -24 9 -24h133q19 0 25.5 -8.5t6.5 -34.5v-34z" />
    <glyph glyph-name="bracketleft" unicode="[" horiz-adv-x="225" 
d="M209 -38q0 -20 -5.5 -27.5t-25.5 -7.5h-120q-20 0 -26 8t-6 35v705q0 26 7 36t25 10h120q20 0 25.5 -7.5t5.5 -27.5v-24q0 -19 -5.5 -27t-25.5 -8h-58v-607h58q19 0 25 -8t6 -26v-24z" />
    <glyph glyph-name="backslash" unicode="\" horiz-adv-x="188" 
d="M183 5q4 -25 -10 -25h-45q-16 0 -19 21l-104 659q-4 25 10 25h45q16 0 19 -21z" />
    <glyph glyph-name="bracketright" unicode="]" horiz-adv-x="225" 
d="M199 -30q0 -27 -6 -35t-26 -8h-120q-20 0 -25.5 7.5t-5.5 27.5v24q0 18 6 26t25 8h58v607h-58q-20 0 -25.5 8t-5.5 27v24q0 20 5.5 27.5t25.5 7.5h120q18 0 25 -10t7 -36v-705z" />
    <glyph glyph-name="asciicircum" unicode="^" horiz-adv-x="404" 
d="M176 667h52q10 0 16 -1t10.5 -6.5t5 -7t6.5 -13.5l122 -267q11 -22 9 -30t-21 -9l-41 -1q-10 -1 -17.5 -0.5t-13.5 2.5t-11.5 8t-9.5 16l-81 196l-81 -196q-7 -17 -19 -22t-34 -4l-40 1q-19 1 -21 9t9 30l122 267q10 21 16.5 24.5t21.5 3.5z" />
    <glyph glyph-name="underscore" unicode="_" horiz-adv-x="360" 
d="M0 -66h360v-60h-360v60z" />
    <glyph glyph-name="grave" unicode="`" horiz-adv-x="157" 
d="M163 701q0 -9 -11 -9h-62q-12 0 -22 9l-69 59q-10 9 -10 16q0 13 14 13h88q11 0 22 -16l45 -59q5 -6 5 -13z" />
    <glyph glyph-name="a" unicode="a" horiz-adv-x="371" 
d="M368 15q2 -15 -15 -15h-95q-14 0 -17 18l-19 141q-2 16 -17 16h-42q-15 0 -17 -16l-16 -143q-1 -10 -4.5 -13t-13.5 -3h-92q-9 0 -13.5 4t-3.5 11l81 614q3 22 12 30t30 8h116q18 0 27 -8.5t12 -30.5zM210 304l-19 230q-1 15 -8 15t-8 -16l-17 -229q-1 -5 2.5 -8t10.5 -3
h25q7 0 11 3t3 8z" />
    <glyph glyph-name="b" unicode="b" horiz-adv-x="361" 
d="M347 180q0 -85 -24 -132.5t-84 -47.5h-181q-19 0 -25.5 9t-6.5 35v580q0 24 7 33.5t25 9.5h181q31 0 51.5 -12.5t30.5 -37t13.5 -52t3.5 -66.5q0 -118 -54 -151q63 -25 63 -168zM221 476q0 44 -10 58.5t-32 14.5h-19q-10 0 -13.5 -4t-3.5 -16v-105q0 -12 3.5 -16t13.5 -4
h19q26 0 34 15t8 57zM228 201q0 51 -11 68t-38 17h-19q-10 0 -13.5 -4t-3.5 -16v-128q0 -20 17 -20h19q30 0 39.5 17t9.5 66z" />
    <glyph glyph-name="c" unicode="c" horiz-adv-x="290" 
d="M287 587q0 -23 -6.5 -30.5t-26.5 -7.5h-76q-24 0 -30 -14q-11 -23 -11 -186v-17q0 -82 1 -122t6 -62.5t11 -26t21 -3.5h78q18 0 25 -7.5t7 -26.5v-48q0 -20 -6.5 -28t-23.5 -8h-119q-32 0 -51.5 8.5t-34 27.5t-21.5 58t-10 91t-3 136q-1 214 18 280t97 66h124q17 0 24 -8
t7 -27v-45z" />
    <glyph glyph-name="d" unicode="d" horiz-adv-x="366" 
d="M349 334q0 -150 -10.5 -218t-35.5 -92t-80 -24h-162q-22 0 -28.5 8t-6.5 35v579q0 25 7 35t25 10h171q28 0 47.5 -7t33 -26t21 -41.5t12 -64.5t5.5 -84t1 -110zM230 324q0 174 -9 201q-7 22 -31 24h-16q-22 0 -28 -5t-6 -25v-374q0 -19 5.5 -23t31.5 -4q31 0 39 13
q13 22 14 155v38z" />
    <glyph glyph-name="e" unicode="e" horiz-adv-x="301" 
d="M298 43q0 -43 -34 -43h-204q-20 0 -27 9t-7 35v579q0 25 7.5 34.5t26.5 9.5h198q19 0 25.5 -7.5t6.5 -31.5v-37q0 -25 -6.5 -33.5t-25.5 -8.5h-98q-11 0 -14.5 -4t-3.5 -18v-93q0 -14 2.5 -17.5t15.5 -3.5h50q17 0 23 -7t6 -27v-51q0 -19 -6.5 -26t-22.5 -7h-50
q-11 0 -14.5 -3t-3.5 -12v-140q0 -13 4 -17.5t17 -4.5h99q20 0 28 -9.5t8 -33.5v-32z" />
    <glyph glyph-name="f" unicode="f" horiz-adv-x="287" 
d="M284 589q0 -22 -7 -31t-24 -9h-92q-12 0 -15 -5t-3 -22v-91q0 -18 13 -18h56q18 0 24 -8t6 -32v-35q0 -25 -6.5 -34t-24.5 -9h-50q-12 0 -15 -4.5t-3 -21.5v-227q0 -24 -6 -33t-23 -9h-56q-19 0 -25.5 8.5t-6.5 33.5v579q0 28 6.5 37t26.5 9h190q20 0 27.5 -9.5
t7.5 -33.5v-35z" />
    <glyph glyph-name="g" unicode="g" 
d="M341 196q0 -53 -5 -85t-20.5 -60t-47 -40.5t-81.5 -12.5q-28 0 -50.5 4t-40 12t-30 20t-21 28.5t-14 37t-8.5 45t-4.5 53.5t-1.5 62v71q1 190 14 245q18 79 77 89q11 2 23 2h136q20 0 27 -8t7 -34v-32q0 -25 -6.5 -34.5t-24.5 -9.5h-72q-36 0 -46 -12q-15 -19 -16 -130
v-79v-146q0 -64 53 -64q21 0 34.5 14t13.5 39v98q0 26 -12 26h-29q-12 0 -15 6.5t-3 24.5v46q0 23 7 32t30 9h95q19 0 25 -10t6 -34v-173z" />
    <glyph glyph-name="h" unicode="h" horiz-adv-x="378" 
d="M352 44q0 -25 -7 -34.5t-26 -9.5h-53q-19 0 -25 10t-6 33v231q0 12 -3 16.5t-13 4.5h-60q-10 0 -13 -4.5t-3 -16.5v-231q0 -23 -6 -33t-25 -10h-53q-19 0 -26 9.5t-7 34.5v580q0 24 7.5 33.5t25.5 9.5h54q30 0 30 -42v-193q0 -19 15 -19h62q15 0 15 19v193q0 42 30 42h54
q18 0 25.5 -9.5t7.5 -33.5v-580z" />
    <glyph glyph-name="i" unicode="i" horiz-adv-x="170" 
d="M144 42q0 -26 -7 -34t-26 -8h-50q-21 0 -28 8.5t-7 35.5v578q0 26 7 35.5t26 9.5h54q17 0 24 -10t7 -35v-580z" />
    <glyph glyph-name="j" unicode="j" horiz-adv-x="230" 
d="M211 171q0 -73 -23 -116q-30 -55 -101 -55h-49q-22 0 -28.5 8t-6.5 33v37q0 25 6.5 32.5t25.5 7.5h26q18 0 25 9t7 35v463q0 26 6.5 34t27.5 8h50q21 0 27.5 -8t6.5 -33v-455z" />
    <glyph glyph-name="k" unicode="k" horiz-adv-x="375" 
d="M372 655q0 -6 -3 -12l-99 -192q-5 -9 -6 -19q-1 -6 3 -21l101 -381q4 -20 1 -25t-17 -5h-82q-13 0 -18.5 6t-9.5 23l-47 222q-7 31 -12 31q-6 0 -10 -5.5t-20 -35.5q-9 -17 -9 -56v-143q0 -26 -7 -34t-26 -8h-50q-21 0 -28 8.5t-7 35.5v578q0 26 7 35.5t26 9.5h54
q17 0 24 -10t7 -35v-149q0 -10 4 -11q3 -1 5.5 1.5t5.5 9.5l74 156q11 24 17 31t21 7h89q12 0 12 -12z" />
    <glyph glyph-name="l" unicode="l" horiz-adv-x="278" 
d="M275 43q0 -23 -8.5 -33t-28.5 -10h-179q-20 0 -26.5 8.5t-6.5 35.5v580q0 23 7.5 33t25.5 10h53q19 0 25.5 -9t6.5 -34v-485q0 -21 16 -21h81q19 0 26.5 -9t7.5 -33v-33z" />
    <glyph glyph-name="m" unicode="m" horiz-adv-x="466" 
d="M440 43q0 -27 -6 -35t-27 -8h-53q-19 0 -25.5 9t-6.5 33v271q0 24 -4 24q-5 0 -9 -22l-40 -198q-4 -18 -11.5 -24t-24.5 -6t-24.5 6t-11.5 24l-40 198q-4 22 -9 22q-4 0 -4 -24v-271q0 -24 -6.5 -33t-25.5 -9h-53q-21 0 -27 8t-6 35v583q0 25 6.5 33t25.5 8h55
q24 0 31.5 -5t13.5 -26l67 -240q3 -9 8 -9t8 9l67 240q6 21 13.5 26t31.5 5h55q19 0 25.5 -8t6.5 -33v-583z" />
    <glyph glyph-name="n" unicode="n" horiz-adv-x="391" 
d="M365 45q0 -26 -7 -35.5t-28 -9.5h-46q-18 0 -25 5t-14 26l-84 249q-5 14 -11 14q-5 0 -5 -19v-231q0 -24 -6.5 -34t-24.5 -10h-52q-19 0 -27.5 9t-8.5 36v578q0 26 7 35t28 9h46q18 0 25 -5t14 -26l84 -248q5 -14 11 -14q5 0 5 19v230q0 24 6.5 34t24.5 10h52
q19 0 27.5 -9t8.5 -36v-577z" />
    <glyph glyph-name="o" unicode="o" 
d="M339 335v-65t-1.5 -58t-4.5 -55.5t-8.5 -46.5t-13.5 -42t-20 -31.5t-28 -25.5t-37.5 -14t-47.5 -6q-27 0 -48.5 6t-37.5 14t-28 26t-20 31.5t-13.5 42t-8 46t-4 55.5t-1.5 58v65v65t1.5 57.5t4 54.5t8 45.5t13.5 41.5t20 30.5t28 25t37.5 13.5t48.5 6q107 0 139 -90
q22 -59 22 -222v-27zM222 335q-1 142 -7 177.5t-37 35.5t-37.5 -36.5t-6.5 -176.5q1 -143 7 -180t37 -37t37.5 38t6.5 179z" />
    <glyph glyph-name="p" unicode="p" horiz-adv-x="347" 
d="M340 454q0 -101 -28.5 -153.5t-83.5 -52.5h-84v-205q0 -26 -6 -34.5t-26 -8.5h-54q-20 0 -26 8t-6 35v578q0 26 7 36t25 10h154q128 0 128 -213zM222 455q0 58 -7.5 76t-25.5 18h-29q-8 0 -12 -3.5t-4 -14.5v-148q0 -17 15 -17h33q16 0 23 16.5t7 72.5z" />
    <glyph glyph-name="q" unicode="q" 
d="M350 -19q20 -21 -5 -32l-66 -29q-17 -8 -36 17l-43 55q-3 0 -11 -0.5t-12 -0.5q-26 0 -47.5 6t-37.5 14t-28 25.5t-20 31t-13 41.5l-8 46t-4.5 54.5t-1.5 57.5v64v4v65t1.5 57.5t4 54.5t8 45.5t13.5 41.5t20 30.5t28 25t37.5 13.5t47.5 6q27 0 48.5 -6t37.5 -13.5t28 -25
t20 -30.5t13.5 -41.5t8 -45.5t4 -54.5t1.5 -57.5v-65q0 -84 -1.5 -125t-11.5 -91.5t-31 -77.5zM222 335q0 139 -7 176t-38 37t-37.5 -36.5t-6.5 -176.5q0 -141 6.5 -179t37.5 -38t38 38.5t7 178.5z" />
    <glyph glyph-name="r" unicode="r" horiz-adv-x="351" 
d="M346 14q0 -14 -18 -14h-78q-14 0 -19 5.5t-8 23.5l-41 240q-2 9 -12 9h-14q-11 0 -11 -9v-227q0 -23 -7.5 -32.5t-25.5 -9.5h-54q-19 0 -25.5 9t-6.5 34v579q0 26 7.5 35.5t26.5 9.5h143q137 0 137 -206q0 -56 -12.5 -90.5t-41.5 -59.5l58 -284q2 -10 2 -13zM224 476
q0 73 -34 73h-32q-13 0 -13 -14v-121q0 -18 10 -18h33q36 0 36 80z" />
    <glyph glyph-name="s" unicode="s" horiz-adv-x="302" 
d="M297 107q0 -107 -107 -107h-149q-20 0 -26.5 8t-6.5 33v35q0 26 6 34t26 8h103q20 0 25.5 16.5t-4.5 32.5l-113 213q-46 87 -46 166q0 66 30 93.5t94 27.5h114q28 0 28 -36v-44q0 -21 -7 -29.5t-24 -8.5h-89q-24 0 -29.5 -18.5t7.5 -40.5l107 -197q38 -70 49.5 -107.5
t11.5 -78.5z" />
    <glyph glyph-name="t" unicode="t" horiz-adv-x="315" 
d="M312 590q0 -24 -6.5 -32.5t-24.5 -8.5h-52q-13 0 -13 -20v-485q0 -26 -6.5 -35t-25.5 -9h-52q-20 0 -27 8.5t-7 32.5v488q0 20 -13 20h-52q-18 0 -24 7.5t-6 32.5v34q0 26 6.5 35t26.5 9h244q18 0 25 -8.5t7 -31.5v-37z" />
    <glyph glyph-name="u" unicode="u" horiz-adv-x="362" 
d="M342 190q0 -46 -6 -78t-22 -61.5t-50 -44.5t-85 -15q-94 0 -126.5 46.5t-32.5 147.5v438q0 25 7.5 34.5t27.5 9.5h53q18 0 24 -8.5t6 -32.5v-456q0 -28 10 -40t34 -12q23 0 32.5 12.5t9.5 40.5v455q0 25 6.5 33t25.5 8h55q19 0 25 -8t6 -33v-436z" />
    <glyph glyph-name="v" unicode="v" horiz-adv-x="364" 
d="M361 640l-99 -613q-2 -15 -8 -21t-19 -6h-106q-13 0 -19 6t-8 21l-99 613q-2 15 1.5 21t16.5 6h77q13 0 18.5 -5.5t8.5 -26.5l48 -380q1 -15 9 -15t9 15l48 380q3 21 8.5 26.5t18.5 5.5h77q13 0 16.5 -6t1.5 -21z" />
    <glyph glyph-name="w" unicode="w" horiz-adv-x="553" 
d="M548 631l-104 -602q-3 -16 -9 -22.5t-19 -6.5h-78q-15 0 -20.5 5.5t-7.5 24.5l-28 223q0 12 -5 12t-7 -11l-55 -234q-4 -20 -27 -20h-65q-13 0 -18 5t-7 20l-94 605q-3 24 3 30.5t22 6.5h68q12 0 17 -6t7 -23l47 -325q2 -13 9 -13q4 0 8 13l45 192l-14 126q-4 36 25 36
h70q13 0 18 -6t7 -23l39 -324q1 -14 8 -14t8 14l40 327q3 26 23 26h73q15 0 20 -7.5t1 -28.5z" />
    <glyph glyph-name="x" unicode="x" horiz-adv-x="342" 
d="M337 37q9 -37 -16 -37h-78q-23 0 -27 25l-36 207q-3 12 -9 12t-9 -12l-36 -207q-4 -25 -27 -25h-78q-25 0 -16 37l66 309l-66 285q-8 36 20 36h76q20 0 26 -27l36 -188q2 -13 8 -13t8 13l36 188q6 27 26 27h76q28 0 20 -36l-67 -285z" />
    <glyph glyph-name="y" unicode="y" horiz-adv-x="344" 
d="M341 632l-110 -377v-212q0 -26 -6.5 -34.5t-26.5 -8.5h-52q-20 0 -26.5 8.5t-6.5 34.5v212l-110 377q-5 12 -0.5 23.5t18.5 11.5h67q11 0 16.5 -4.5t9.5 -19.5l51 -217q4 -11 7 -11t7 11l51 217q4 15 9.5 19.5t16.5 4.5h67q14 0 18.5 -11.5t-0.5 -23.5z" />
    <glyph glyph-name="z" unicode="z" horiz-adv-x="311" 
d="M303 41q0 -24 -7.5 -32.5t-28.5 -8.5h-227q-19 0 -25.5 8t-6.5 32v75q0 34 16 69l159 347q9 18 -8 18h-125q-22 0 -27.5 7t-5.5 34v35q0 26 6 34t26 8h223q30 0 30 -39v-84q0 -20 -14 -51l-159 -351q-12 -24 9 -24h133q19 0 25.5 -8.5t6.5 -34.5v-34z" />
    <glyph glyph-name="braceleft" unicode="{" horiz-adv-x="237" 
d="M194 -74q10 0 16 3t8.5 11t3 12.5t0 17t-0.5 15.5q0 17 -4 25.5t-10.5 8t-14 1t-14 5t-10.5 19t-4 42.5v107q0 25 -1 39t-5.5 36.5t-16.5 36t-32 17.5v2q20 6 32 17t16.5 30.5t5.5 32t1 38.5v119q0 27 4 42.5t10.5 19t14 5t14 1t10.5 8t4 25.5v24q0 19 -4.5 27t-22.5 8
h-35q-53 -1 -71 -33t-18 -89v-147q0 -52 -21 -70q-4 -4 -13.5 -8t-14.5 -8.5t-5 -13.5v-60q0 -10 4 -14.5t13.5 -7t14.5 -5.5q22 -14 22 -73v-143q0 -121 95 -122q5 0 14.5 -0.5t14.5 -0.5z" />
    <glyph glyph-name="bar" unicode="|" horiz-adv-x="170" 
d="M145 -131q0 -21 -7 -27.5t-26 -6.5h-27q-21 0 -28 7t-7 29v813q0 23 6.5 30t26.5 7h31q18 0 24.5 -7.5t6.5 -29.5v-815z" />
    <glyph glyph-name="braceright" unicode="}" horiz-adv-x="237" 
d="M43 -74q-10 0 -16 3t-8.5 11t-3 12.5t0 17t0.5 15.5q0 20 6 27.5t14 7t16.5 1.5t14.5 17.5t6 47.5v107q0 25 1 39t5.5 36.5t16.5 36t32 17.5v2q-20 6 -32 17t-16.5 30.5t-5.5 32t-1 38.5v119q0 32 -6 47.5t-14.5 17.5t-16.5 1.5t-14 7t-6 27.5v24q0 19 4.5 27t22.5 8h35
q53 -1 71 -33t18 -89v-147q0 -52 21 -70q4 -4 13.5 -8t14.5 -8.5t5 -13.5v-60q0 -10 -4 -14.5t-13.5 -7t-14.5 -5.5q-22 -14 -22 -73v-143q0 -121 -95 -122q-5 0 -14.5 -0.5t-14.5 -0.5z" />
    <glyph glyph-name="asciitilde" unicode="~" horiz-adv-x="652" 
d="M652 362q0 -21 -5 -29.5t-23 -16.5q-78 -32 -174 -32q-64 0 -141.5 30t-135.5 30q-57 0 -145 -42q-10 -6 -19 -1.5t-9 19.5v41q0 20 4.5 27.5t23.5 17.5q72 40 151 40q58 0 135 -29.5t142 -29.5q83 0 168 36q28 13 28 -17v-44z" />
    <glyph glyph-name="nbspace" unicode="&#xa0;" horiz-adv-x="189" 
 />
    <glyph glyph-name="exclamdown" unicode="&#xa1;" horiz-adv-x="172" 
d="M142 594q0 -26 -5.5 -35.5t-25.5 -9.5h-52q-20 0 -25.5 9.5t-5.5 35.5v28q0 26 5.5 35.5t25.5 9.5h52q20 0 25.5 -9.5t5.5 -35.5v-28zM144 42q1 -42 -31 -42h-53q-19 0 -25.5 9t-6.5 34l4 410q0 24 6.5 32.5t23.5 8.5h42q18 0 25 -8.5t8 -32.5z" />
    <glyph glyph-name="cent" unicode="&#xa2;" horiz-adv-x="197" 
d="M181 580q0 -13 -4 -17t-15 -4h-35q-17 0 -20.5 -15t-3.5 -84q0 -67 3.5 -82t18.5 -15h37q18 0 18 -19v-52q0 -20 -17 -20h-31v-30q0 -19 -15 -19h-30q-9 0 -12.5 3t-3.5 13v34q-32 6 -43.5 44t-11.5 137q0 107 10.5 147.5t43.5 46.5v36q0 9 2 11.5t10 2.5h34q9 0 11 -2.5
t2 -12.5v-33h34q18 0 18 -20v-50z" />
    <glyph glyph-name="sterling" unicode="&#xa3;" horiz-adv-x="354" 
d="M338 42q0 -24 -7 -33t-26 -9h-212q-56 0 -54 69l4 62l23 164q3 18 -6 18h-34q-11 0 -14.5 7.5t-3.5 29.5v45q0 35 22 35h39q6 0 9 11l15 115q15 111 88 111h115q17 0 24 -9t7 -31v-38q0 -22 -5.5 -31t-19.5 -9h-75q-17 0 -21 -27l-11 -74q-2 -18 8 -18h86q22 0 22 -36
v-42q0 -22 -6 -30.5t-23 -8.5h-88q-8 0 -10.5 -4t-3.5 -19l-18 -154q-3 -18 14 -18h130q18 0 25 -9.5t7 -34.5v-32z" />
    <glyph glyph-name="yen" unicode="&#xa5;" horiz-adv-x="461" 
d="M445 245q0 -18 -4 -24.5t-17 -6.5h-139v-171q0 -26 -6.5 -34.5t-26.5 -8.5h-52q-20 0 -26.5 8.5t-6.5 34.5v171h-136q-13 0 -17 6.5t-4 24.5v19q0 18 3.5 24t17.5 6h124l-20 72h-104q-14 0 -17.5 6t-3.5 24v19q0 18 4 24.5t17 6.5h80l-54 186q-5 12 -0.5 23.5t18.5 11.5
h67q11 0 16.5 -4.5t9.5 -19.5l51 -217q4 -11 7 -11t7 11l51 217q4 15 9.5 19.5t16.5 4.5h67q14 0 18.5 -11.5t-0.5 -23.5l-55 -186h84q13 0 17 -6.5t4 -24.5v-19q0 -18 -3.5 -24t-17.5 -6h-107l-21 -72h128q14 0 17.5 -6t3.5 -24v-19z" />
    <glyph glyph-name="section" unicode="&#xa7;" horiz-adv-x="376" 
d="M371 305q0 -67 -17 -102t-54 -46v-4q0 -84 -28 -119t-91 -35h-127q-22 0 -28.5 6t-6.5 27v27q0 20 6.5 25.5t28.5 5.5h103q22 0 29 10.5t7 49.5q0 20 -29.5 42t-64.5 40.5t-64.5 52t-29.5 74.5q0 127 71 150v1q0 85 28 121t91 36h127q22 0 28.5 -6t6.5 -27v-27
q0 -20 -6.5 -25.5t-28.5 -5.5h-106q-21 0 -28.5 -11.5t-7.5 -51.5q0 -17 30 -38t65.5 -40t65.5 -54t30 -76zM268 302q0 19 -22.5 36.5t-62 40t-60.5 40.5q-15 -8 -15 -57q0 -16 23 -33t62 -40t61 -43q14 8 14 56z" />
    <glyph glyph-name="dieresis" unicode="&#xa8;" horiz-adv-x="232" 
d="M222 723q0 -18 -6.5 -24.5t-24.5 -6.5h-29q-18 0 -24.5 6.5t-6.5 24.5v38q0 18 6.5 24.5t24.5 6.5h29q18 0 24.5 -6.5t6.5 -24.5v-38zM101 723q0 -18 -6.5 -24.5t-24.5 -6.5h-29q-18 0 -24.5 6.5t-6.5 24.5v38q0 18 6.5 24.5t24.5 6.5h29q18 0 24.5 -6.5t6.5 -24.5v-38z
" />
    <glyph glyph-name="copyright" unicode="&#xa9;" horiz-adv-x="358" 
d="M348 562q0 -70 -49.5 -119.5t-119.5 -49.5t-119.5 49.5t-49.5 119.5t49.5 119.5t119.5 49.5t119.5 -49.5t49.5 -119.5zM317 562q0 57 -40.5 97.5t-97.5 40.5t-97.5 -40.5t-40.5 -97.5t40.5 -97.5t97.5 -40.5t97.5 40.5t40.5 97.5zM245 539q0 -89 -65 -89
q-33 0 -51.5 29.5t-18.5 80.5q0 112 71 112q34 0 48 -25t13 -50h-33q-2 43 -28 43q-36 0 -36 -79q0 -78 36 -78q29 0 31 56h33z" />
    <glyph glyph-name="guillemotleft" unicode="&#xab;" horiz-adv-x="211" 
d="M206 180q0 -16 -13 -10l-61 44q-16 12 -16 42v129q0 29 13 38l61 45q16 12 16 -9v-67q0 -16 -7 -28l-32 -46l29 -41q10 -15 10 -26v-71zM95 180q0 -16 -13 -10l-61 44q-16 12 -16 42v129q0 29 13 38l61 45q16 12 16 -9v-67q0 -18 -7 -28l-32 -46l29 -41q10 -15 10 -26
v-71z" />
    <glyph glyph-name="registered" unicode="&#xae;" horiz-adv-x="358" 
d="M348 562q0 -70 -49.5 -119.5t-119.5 -49.5t-119.5 49.5t-49.5 119.5t49.5 119.5t119.5 49.5t119.5 -49.5t49.5 -119.5zM317 562q0 57 -40.5 97.5t-97.5 40.5t-97.5 -40.5t-40.5 -97.5t40.5 -97.5t97.5 -40.5t97.5 40.5t40.5 97.5zM236 456h-33l-25 85h-16v-85h-31v211h43
q32 0 45 -14.5t13 -45.5q0 -43 -24 -57zM199 606q0 14 -5.5 19.5t-20.5 5.5h-11v-55h8q17 0 23 7t6 23z" />
    <glyph glyph-name="macron" unicode="&#xaf;" horiz-adv-x="235" 
d="M230 723q0 -20 -9.5 -25.5t-35.5 -5.5h-135q-26 0 -35.5 5.5t-9.5 25.5v25q0 20 9.5 25.5t35.5 5.5h135q26 0 35.5 -5.5t9.5 -25.5v-25z" />
    <glyph glyph-name="degree" unicode="&#xb0;" horiz-adv-x="377" 
d="M200 733q55 0 94 -39t39 -94t-39 -94t-94 -39t-93.5 39t-39.5 94q0 55 39 94t94 39zM200 663q-26 0 -44.5 -18.5t-18.5 -44.5q1 -27 19 -45t45 -18q26 0 44 18.5t18 44.5t-18.5 44.5t-44.5 18.5z" />
    <glyph glyph-name="plusminus" unicode="&#xb1;" horiz-adv-x="430" 
d="M423 323q0 -23 -7.5 -30.5t-24.5 -7.5h-112v-105q0 -18 -8.5 -24.5t-31.5 -6.5h-51q-23 0 -30.5 7.5t-7.5 24.5v104h-111q-17 0 -24.5 7.5t-7.5 30.5v47q0 23 6.5 31.5t24.5 8.5h112v109q0 17 7.5 24.5t30.5 7.5h51q23 0 31.5 -6.5t8.5 -24.5v-110h113q18 0 24.5 -8.5
t6.5 -31.5v-47zM423 38q0 -23 -7.5 -30.5t-24.5 -7.5h-352q-17 0 -24.5 7.5t-7.5 30.5v45q0 23 6.5 31.5t24.5 8.5h354q18 0 24.5 -8.5t6.5 -31.5v-45z" />
    <glyph glyph-name="acute" unicode="&#xb4;" horiz-adv-x="186" 
d="M171 776q0 -7 -10 -16l-69 -59q-10 -9 -22 -9h-62q-11 0 -11 9q0 7 5 13l45 59q11 16 22 16h88q14 0 14 -13z" />
    <glyph glyph-name="paragraph" unicode="&#xb6;" horiz-adv-x="432" 
d="M392 581q0 -20 -7 -26t-23 -6v-623q0 -14 -6 -19.5t-23 -5.5h-32q-17 0 -22.5 6t-5.5 19v623h-52v-623q0 -14 -6 -19.5t-22 -5.5h-33q-17 0 -22 6t-5 19v412q-54 0 -85.5 48.5t-31.5 113.5q0 68 38.5 117.5t109.5 49.5h197q18 0 24.5 -6t6.5 -26v-54z" />
    <glyph glyph-name="periodcentered" unicode="&#xb7;" horiz-adv-x="140" 
d="M130 315q0 -26 -5.5 -35.5t-25.5 -9.5h-58q-20 0 -25.5 9.5t-5.5 35.5v59q0 26 5.5 35.5t25.5 9.5h58q20 0 25.5 -9.5t5.5 -35.5v-59z" />
    <glyph glyph-name="cedilla" unicode="&#xb8;" horiz-adv-x="123" 
d="M123 -55q0 -38 -14 -60t-38 -22h-36q-22 0 -28.5 7t-6.5 33v22q0 18 8 24.5t31 6.5h21q13 0 13 15q0 9 -14 55h48q16 -53 16 -81z" />
    <glyph glyph-name="guillemotright" unicode="&#xbb;" horiz-adv-x="211" 
d="M206 256q0 -30 -16 -42l-62 -44q-12 -6 -12 10v71q0 13 10 26l29 41l-32 46q-7 10 -7 28v67q0 20 15 9l62 -45q13 -10 13 -38v-129zM95 256q0 -30 -16 -42l-61 -44q-13 -6 -13 10v71q0 11 10 26l29 41l-32 46q-7 10 -7 28v67q0 21 16 9l61 -45q13 -9 13 -38v-129z" />
    <glyph glyph-name="questiondown" unicode="&#xbf;" horiz-adv-x="268" 
d="M200 594q0 -26 -5.5 -35.5t-25.5 -9.5h-52q-20 0 -25.5 9.5t-5.5 35.5v28q0 26 5.5 35.5t25.5 9.5h52q20 0 25.5 -9.5t5.5 -35.5v-28zM261 42q0 -42 -33 -42h-120q-54 0 -75.5 26.5t-21.5 111.5q0 43 5 69t21 60l39 82q10 21 10 52v65q0 17 6.5 23t24.5 6h50
q19 0 26 -7.5t7 -29.5v-91q0 -31 -10 -52l-39 -82q-16 -32 -19 -44t-3 -33t7 -29.5t26 -8.5h66q33 0 33 -42v-34z" />
    <glyph glyph-name="Agrave" unicode="&#xc0;" horiz-adv-x="371" 
d="M242 701q0 -9 -11 -9h-62q-12 0 -22 9l-69 59q-10 9 -10 16q0 13 14 13h88q11 0 22 -16l45 -59q5 -6 5 -13zM368 15q2 -15 -15 -15h-95q-14 0 -17 18l-19 141q-2 16 -17 16h-42q-15 0 -17 -16l-16 -143q-1 -10 -4.5 -13t-13.5 -3h-92q-9 0 -13.5 4t-3.5 11l81 614
q3 22 12 30t30 8h116q18 0 27 -8.5t12 -30.5zM210 304l-19 230q-1 15 -8 15t-8 -16l-17 -229q-1 -5 2.5 -8t10.5 -3h25q7 0 11 3t3 8z" />
    <glyph glyph-name="Aacute" unicode="&#xc1;" horiz-adv-x="371" 
d="M300 776q0 -7 -10 -16l-69 -59q-10 -9 -22 -9h-62q-11 0 -11 9q0 7 5 13l45 59q11 16 22 16h88q14 0 14 -13zM368 15q2 -15 -15 -15h-95q-14 0 -17 18l-19 141q-2 16 -17 16h-42q-15 0 -17 -16l-16 -143q-1 -10 -4.5 -13t-13.5 -3h-92q-9 0 -13.5 4t-3.5 11l81 614
q3 22 12 30t30 8h116q18 0 27 -8.5t12 -30.5zM210 304l-19 230q-1 15 -8 15t-8 -16l-17 -229q-1 -5 2.5 -8t10.5 -3h25q7 0 11 3t3 8z" />
    <glyph glyph-name="Acircumflex" unicode="&#xc2;" horiz-adv-x="371" 
d="M301 699q0 -7 -9 -7h-54q-15 0 -23 10l-29 38l-28 -38q-8 -10 -23 -10h-54q-9 0 -9 7q0 3 2 9l34 65q8 16 27 16h103q19 0 27 -16l34 -65q2 -6 2 -9zM368 15q2 -15 -15 -15h-95q-14 0 -17 18l-19 141q-2 16 -17 16h-42q-15 0 -17 -16l-16 -143q-1 -10 -4.5 -13t-13.5 -3
h-92q-9 0 -13.5 4t-3.5 11l81 614q3 22 12 30t30 8h116q18 0 27 -8.5t12 -30.5zM210 304l-19 230q-1 15 -8 15t-8 -16l-17 -229q-1 -5 2.5 -8t10.5 -3h25q7 0 11 3t3 8z" />
    <glyph glyph-name="Atilde" unicode="&#xc3;" horiz-adv-x="371" 
d="M298 720q0 -28 -25 -28h-40q-2 0 -17 3l-71 21q-7 3 -12 3q-4 0 -4 -6v-5q0 -16 -16 -16h-25q-15 0 -20 5.5t-5 20.5v43q0 28 25 28h40q2 0 17 -3l71 -21q8 -3 12 -3t4 6v5q0 16 16 16h25q15 0 20 -5.5t5 -20.5v-43zM368 15q2 -15 -15 -15h-95q-14 0 -17 18l-19 141
q-2 16 -17 16h-42q-15 0 -17 -16l-16 -143q-1 -10 -4.5 -13t-13.5 -3h-92q-9 0 -13.5 4t-3.5 11l81 614q3 22 12 30t30 8h116q18 0 27 -8.5t12 -30.5zM210 304l-19 230q-1 15 -8 15t-8 -16l-17 -229q-1 -5 2.5 -8t10.5 -3h25q7 0 11 3t3 8z" />
    <glyph glyph-name="Adieresis" unicode="&#xc4;" horiz-adv-x="371" 
d="M291 723q0 -18 -6.5 -24.5t-24.5 -6.5h-29q-18 0 -24.5 6.5t-6.5 24.5v38q0 18 6.5 24.5t24.5 6.5h29q18 0 24.5 -6.5t6.5 -24.5v-38zM170 723q0 -18 -6.5 -24.5t-24.5 -6.5h-29q-18 0 -24.5 6.5t-6.5 24.5v38q0 18 6.5 24.5t24.5 6.5h29q18 0 24.5 -6.5t6.5 -24.5v-38z
M368 15q2 -15 -15 -15h-95q-14 0 -17 18l-19 141q-2 16 -17 16h-42q-15 0 -17 -16l-16 -143q-1 -10 -4.5 -13t-13.5 -3h-92q-9 0 -13.5 4t-3.5 11l81 614q3 22 12 30t30 8h116q18 0 27 -8.5t12 -30.5zM210 304l-19 230q-1 15 -8 15t-8 -16l-17 -229q-1 -5 2.5 -8t10.5 -3h25
q7 0 11 3t3 8z" />
    <glyph glyph-name="Aring" unicode="&#xc5;" horiz-adv-x="371" 
d="M368 15q2 -15 -15 -15h-95q-14 0 -17 18l-19 141q-2 16 -17 16h-42q-15 0 -17 -16l-16 -143q-1 -10 -4.5 -13t-13.5 -3h-92q-9 0 -13.5 4t-3.5 11l81 614q4 32 32 37q-15 24 -15 45q0 37 22.5 61.5t57.5 24.5t57 -24.5t22 -62.5q0 -24 -14 -43q30 -3 35 -39zM213 709
q0 17 -9 28t-23 11t-23 -10t-9 -28q0 -17 9 -27.5t23 -10.5t23 10.5t9 26.5zM210 304l-19 230q-1 15 -8 15t-8 -16l-17 -229q-1 -5 2.5 -8t10.5 -3h25q7 0 11 3t3 8z" />
    <glyph glyph-name="AE" unicode="&#xc6;" horiz-adv-x="511" 
d="M506 43q0 -43 -34 -43h-223q-15 0 -15 18v141q0 9 -3 12.5t-12 3.5h-43q-15 0 -18 -16l-28 -143q-2 -10 -6 -13t-14 -3h-92q-18 0 -15 15l132 614q4 22 14.5 30t31.5 8h285q19 0 25.5 -7.5t6.5 -31.5v-37q0 -25 -6.5 -33.5t-25.5 -8.5h-98q-11 0 -14.5 -4t-3.5 -18v-93
q0 -14 2.5 -17.5t15.5 -3.5h50q17 0 23 -7t6 -27v-51q0 -19 -6.5 -26t-22.5 -7h-50q-11 0 -14.5 -3t-3.5 -12v-140q0 -13 4 -17.5t17 -4.5h99q20 0 28 -9.5t8 -33.5v-32zM234 304v230q0 15 -6 15q-7 0 -10 -16l-36 -229q-1 -5 2 -8t10 -3h25q15 0 15 11z" />
    <glyph glyph-name="Ccedilla" unicode="&#xc7;" horiz-adv-x="290" 
d="M287 587q0 -23 -6.5 -30.5t-26.5 -7.5h-76q-24 0 -30 -14q-11 -23 -11 -186v-17q0 -82 1 -122t6 -62.5t11 -26t21 -3.5h78q18 0 25 -7.5t7 -26.5v-48q0 -20 -6.5 -28t-23.5 -8h-57q9 -32 9 -55q0 -38 -14 -60t-38 -22h-36q-22 0 -28.5 7t-6.5 33v22q0 18 8 24.5t31 6.5
h21q13 0 13 15q0 7 -6 29h-15q-32 0 -51.5 8.5t-34 27.5t-21.5 58t-10 91t-3 136q-1 214 18 280t97 66h124q17 0 24 -8t7 -27v-45z" />
    <glyph glyph-name="Egrave" unicode="&#xc8;" horiz-adv-x="301" 
d="M217 701q0 -9 -11 -9h-62q-12 0 -22 9l-69 59q-10 9 -10 16q0 13 14 13h88q11 0 22 -16l45 -59q5 -6 5 -13zM298 43q0 -43 -34 -43h-204q-20 0 -27 9t-7 35v579q0 25 7.5 34.5t26.5 9.5h198q19 0 25.5 -7.5t6.5 -31.5v-37q0 -25 -6.5 -33.5t-25.5 -8.5h-98
q-11 0 -14.5 -4t-3.5 -18v-93q0 -14 2.5 -17.5t15.5 -3.5h50q17 0 23 -7t6 -27v-51q0 -19 -6.5 -26t-22.5 -7h-50q-11 0 -14.5 -3t-3.5 -12v-140q0 -13 4 -17.5t17 -4.5h99q20 0 28 -9.5t8 -33.5v-32z" />
    <glyph glyph-name="Eacute" unicode="&#xc9;" horiz-adv-x="301" 
d="M248 776q0 -7 -10 -16l-69 -59q-10 -9 -22 -9h-62q-11 0 -11 9q0 7 5 13l45 59q11 16 22 16h88q14 0 14 -13zM298 43q0 -43 -34 -43h-204q-20 0 -27 9t-7 35v579q0 25 7.5 34.5t26.5 9.5h198q19 0 25.5 -7.5t6.5 -31.5v-37q0 -25 -6.5 -33.5t-25.5 -8.5h-98
q-11 0 -14.5 -4t-3.5 -18v-93q0 -14 2.5 -17.5t15.5 -3.5h50q17 0 23 -7t6 -27v-51q0 -19 -6.5 -26t-22.5 -7h-50q-11 0 -14.5 -3t-3.5 -12v-140q0 -13 4 -17.5t17 -4.5h99q20 0 28 -9.5t8 -33.5v-32z" />
    <glyph glyph-name="Ecircumflex" unicode="&#xca;" horiz-adv-x="301" 
d="M261 699q0 -7 -9 -7h-54q-15 0 -23 10l-29 38l-28 -38q-8 -10 -23 -10h-54q-9 0 -9 7q0 3 2 9l34 65q8 16 27 16h103q19 0 27 -16l34 -65q2 -6 2 -9zM298 43q0 -43 -34 -43h-204q-20 0 -27 9t-7 35v579q0 25 7.5 34.5t26.5 9.5h198q19 0 25.5 -7.5t6.5 -31.5v-37
q0 -25 -6.5 -33.5t-25.5 -8.5h-98q-11 0 -14.5 -4t-3.5 -18v-93q0 -14 2.5 -17.5t15.5 -3.5h50q17 0 23 -7t6 -27v-51q0 -19 -6.5 -26t-22.5 -7h-50q-11 0 -14.5 -3t-3.5 -12v-140q0 -13 4 -17.5t17 -4.5h99q20 0 28 -9.5t8 -33.5v-32z" />
    <glyph glyph-name="Edieresis" unicode="&#xcb;" horiz-adv-x="301" 
d="M253 723q0 -18 -6.5 -24.5t-24.5 -6.5h-29q-18 0 -24.5 6.5t-6.5 24.5v38q0 18 6.5 24.5t24.5 6.5h29q18 0 24.5 -6.5t6.5 -24.5v-38zM132 723q0 -18 -6.5 -24.5t-24.5 -6.5h-29q-18 0 -24.5 6.5t-6.5 24.5v38q0 18 6.5 24.5t24.5 6.5h29q18 0 24.5 -6.5t6.5 -24.5v-38z
M298 43q0 -43 -34 -43h-204q-20 0 -27 9t-7 35v579q0 25 7.5 34.5t26.5 9.5h198q19 0 25.5 -7.5t6.5 -31.5v-37q0 -25 -6.5 -33.5t-25.5 -8.5h-98q-11 0 -14.5 -4t-3.5 -18v-93q0 -14 2.5 -17.5t15.5 -3.5h50q17 0 23 -7t6 -27v-51q0 -19 -6.5 -26t-22.5 -7h-50
q-11 0 -14.5 -3t-3.5 -12v-140q0 -13 4 -17.5t17 -4.5h99q20 0 28 -9.5t8 -33.5v-32z" />
    <glyph glyph-name="Igrave" unicode="&#xcc;" horiz-adv-x="170" 
d="M155 701q0 -9 -11 -9h-62q-12 0 -22 9l-69 59q-10 9 -10 16q0 13 14 13h88q11 0 22 -16l45 -59q5 -6 5 -13zM144 42q0 -26 -7 -34t-26 -8h-50q-21 0 -28 8.5t-7 35.5v578q0 26 7 35.5t26 9.5h54q17 0 24 -10t7 -35v-580z" />
    <glyph glyph-name="Iacute" unicode="&#xcd;" horiz-adv-x="170" 
d="M179 776q0 -7 -10 -16l-69 -59q-10 -9 -22 -9h-62q-11 0 -11 9q0 7 5 13l45 59q11 16 22 16h88q14 0 14 -13zM144 42q0 -26 -7 -34t-26 -8h-50q-21 0 -28 8.5t-7 35.5v578q0 26 7 35.5t26 9.5h54q17 0 24 -10t7 -35v-580z" />
    <glyph glyph-name="Icircumflex" unicode="&#xce;" horiz-adv-x="170" 
d="M199 699q0 -7 -9 -7h-54q-15 0 -23 10l-29 38l-28 -38q-8 -10 -23 -10h-54q-9 0 -9 7q0 3 2 9l34 65q8 16 27 16h103q19 0 27 -16l34 -65q2 -6 2 -9zM144 42q0 -26 -7 -34t-26 -8h-50q-21 0 -28 8.5t-7 35.5v578q0 26 7 35.5t26 9.5h54q17 0 24 -10t7 -35v-580z" />
    <glyph glyph-name="Idieresis" unicode="&#xcf;" horiz-adv-x="170" 
d="M192 723q0 -18 -6.5 -24.5t-24.5 -6.5h-29q-18 0 -24.5 6.5t-6.5 24.5v38q0 18 6.5 24.5t24.5 6.5h29q18 0 24.5 -6.5t6.5 -24.5v-38zM71 723q0 -18 -6.5 -24.5t-24.5 -6.5h-29q-18 0 -24.5 6.5t-6.5 24.5v38q0 18 6.5 24.5t24.5 6.5h29q18 0 24.5 -6.5t6.5 -24.5v-38z
M144 42q0 -26 -7 -34t-26 -8h-50q-21 0 -28 8.5t-7 35.5v578q0 26 7 35.5t26 9.5h54q17 0 24 -10t7 -35v-580z" />
    <glyph glyph-name="Eth" unicode="&#xd0;" horiz-adv-x="366" 
d="M349 334q0 -150 -10.5 -218t-35.5 -92t-80 -24h-162q-22 0 -28.5 8t-6.5 35v268h-10q-26 0 -35.5 5.5t-9.5 25.5v25q0 20 9.5 25.5t35.5 5.5h10v224q0 25 7 35t25 10h171q28 0 47.5 -7t33 -26t21 -41.5t12 -64.5t5.5 -84t1 -110zM230 324q0 174 -9 201q-7 22 -31 24h-16
q-22 0 -28 -5t-6 -25v-121h11q26 0 35.5 -5.5t9.5 -25.5v-25q0 -20 -9.5 -25.5t-35.5 -5.5h-11v-166q0 -19 5.5 -23t31.5 -4q31 0 39 13q13 22 14 155v38z" />
    <glyph glyph-name="Ntilde" unicode="&#xd1;" horiz-adv-x="391" 
d="M301 720q0 -28 -25 -28h-40q-2 0 -17 3l-71 21q-7 3 -12 3q-4 0 -4 -6v-5q0 -16 -16 -16h-25q-15 0 -20 5.5t-5 20.5v43q0 28 25 28h40q2 0 17 -3l71 -21q7 -3 12 -3q4 0 4 6v5q0 16 16 16h25q15 0 20 -5.5t5 -20.5v-43zM365 45q0 -26 -7 -35.5t-28 -9.5h-46q-18 0 -25 5
t-14 26l-84 249q-5 14 -11 14q-5 0 -5 -19v-231q0 -24 -6.5 -34t-24.5 -10h-52q-19 0 -27.5 9t-8.5 36v578q0 26 7 35t28 9h46q18 0 25 -5t14 -26l84 -248q5 -14 11 -14q5 0 5 19v230q0 24 6.5 34t24.5 10h52q19 0 27.5 -9t8.5 -36v-577z" />
    <glyph glyph-name="Ograve" unicode="&#xd2;" 
d="M239 701q0 -9 -11 -9h-62q-12 0 -22 9l-69 59q-10 9 -10 16q0 13 14 13h88q11 0 22 -16l45 -59q5 -6 5 -13zM339 335v-65t-1.5 -58t-4.5 -55.5t-8.5 -46.5t-13.5 -42t-20 -31.5t-28 -25.5t-37.5 -14t-47.5 -6q-27 0 -48.5 6t-37.5 14t-28 26t-20 31.5t-13.5 42t-8 46
t-4 55.5t-1.5 58v65v65t1.5 57.5t4 54.5t8 45.5t13.5 41.5t20 30.5t28 25t37.5 13.5t48.5 6q107 0 139 -90q22 -59 22 -222v-27zM222 335q-1 142 -7 177.5t-37 35.5t-37.5 -36.5t-6.5 -176.5q1 -143 7 -180t37 -37t37.5 38t6.5 179z" />
    <glyph glyph-name="Oacute" unicode="&#xd3;" 
d="M278 776q0 -7 -10 -16l-69 -59q-10 -9 -22 -9h-62q-11 0 -11 9q0 7 5 13l45 59q11 16 22 16h88q14 0 14 -13zM339 335v-65t-1.5 -58t-4.5 -55.5t-8.5 -46.5t-13.5 -42t-20 -31.5t-28 -25.5t-37.5 -14t-47.5 -6q-27 0 -48.5 6t-37.5 14t-28 26t-20 31.5t-13.5 42t-8 46
t-4 55.5t-1.5 58v65v65t1.5 57.5t4 54.5t8 45.5t13.5 41.5t20 30.5t28 25t37.5 13.5t48.5 6q107 0 139 -90q22 -59 22 -222v-27zM222 335q-1 142 -7 177.5t-37 35.5t-37.5 -36.5t-6.5 -176.5q1 -143 7 -180t37 -37t37.5 38t6.5 179z" />
    <glyph glyph-name="Ocircumflex" unicode="&#xd4;" 
d="M288 699q0 -7 -9 -7h-54q-15 0 -23 10l-29 38l-28 -38q-8 -10 -23 -10h-54q-9 0 -9 7q0 3 2 9l34 65q8 16 27 16h103q19 0 27 -16l34 -65q2 -6 2 -9zM339 335v-65t-1.5 -58t-4.5 -55.5t-8.5 -46.5t-13.5 -42t-20 -31.5t-28 -25.5t-37.5 -14t-47.5 -6q-27 0 -48.5 6
t-37.5 14t-28 26t-20 31.5t-13.5 42t-8 46t-4 55.5t-1.5 58v65v65t1.5 57.5t4 54.5t8 45.5t13.5 41.5t20 30.5t28 25t37.5 13.5t48.5 6q107 0 139 -90q22 -59 22 -222v-27zM222 335q-1 142 -7 177.5t-37 35.5t-37.5 -36.5t-6.5 -176.5q1 -143 7 -180t37 -37t37.5 38t6.5 179
z" />
    <glyph glyph-name="Otilde" unicode="&#xd5;" 
d="M291 720q0 -28 -25 -28h-40q-2 0 -17 3l-71 21q-7 3 -12 3q-4 0 -4 -6v-5q0 -16 -16 -16h-25q-15 0 -20 5.5t-5 20.5v43q0 28 25 28h40q2 0 17 -3l71 -21q7 -3 12 -3q4 0 4 6v5q0 16 16 16h25q15 0 20 -5.5t5 -20.5v-43zM339 335v-65t-1.5 -58t-4.5 -55.5t-8.5 -46.5
t-13.5 -42t-20 -31.5t-28 -25.5t-37.5 -14t-47.5 -6q-27 0 -48.5 6t-37.5 14t-28 26t-20 31.5t-13.5 42t-8 46t-4 55.5t-1.5 58v65v65t1.5 57.5t4 54.5t8 45.5t13.5 41.5t20 30.5t28 25t37.5 13.5t48.5 6q107 0 139 -90q22 -59 22 -222v-27zM222 335q-1 142 -7 177.5
t-37 35.5t-37.5 -36.5t-6.5 -176.5q1 -143 7 -180t37 -37t37.5 38t6.5 179z" />
    <glyph glyph-name="Odieresis" unicode="&#xd6;" 
d="M277 723q0 -18 -6.5 -24.5t-24.5 -6.5h-29q-18 0 -24.5 6.5t-6.5 24.5v38q0 18 6.5 24.5t24.5 6.5h29q18 0 24.5 -6.5t6.5 -24.5v-38zM156 723q0 -18 -6.5 -24.5t-24.5 -6.5h-29q-18 0 -24.5 6.5t-6.5 24.5v38q0 18 6.5 24.5t24.5 6.5h29q18 0 24.5 -6.5t6.5 -24.5v-38z
M339 335v-65t-1.5 -58t-4.5 -55.5t-8.5 -46.5t-13.5 -42t-20 -31.5t-28 -25.5t-37.5 -14t-47.5 -6q-27 0 -48.5 6t-37.5 14t-28 26t-20 31.5t-13.5 42t-8 46t-4 55.5t-1.5 58v65v65t1.5 57.5t4 54.5t8 45.5t13.5 41.5t20 30.5t28 25t37.5 13.5t48.5 6q107 0 139 -90
q22 -59 22 -222v-27zM222 335q-1 142 -7 177.5t-37 35.5t-37.5 -36.5t-6.5 -176.5q1 -143 7 -180t37 -37t37.5 38t6.5 179z" />
    <glyph glyph-name="multiply" unicode="&#xd7;" horiz-adv-x="430" 
d="M29 251l94 94l-93 94q-12 12 -12 21q0 12 17 29l36 36q18 18 29 18q9 0 21 -12l94 -94l94 94q12 12 21 12q11 0 29 -18l36 -36q17 -17 17 -29q0 -9 -12 -21l-94 -94l95 -94q12 -12 12 -21q0 -11 -18 -29l-36 -36q-17 -17 -29 -17q-9 0 -21 12l-94 94l-94 -94
q-12 -12 -21 -12q-12 0 -29 17l-36 36q-18 18 -18 29q0 9 12 21z" />
    <glyph glyph-name="Oslash" unicode="&#xd8;" 
d="M357 647l-36 -76q18 -59 18 -236v-65t-1.5 -58t-4.5 -55.5t-8.5 -46.5t-13.5 -42t-20 -31.5t-28 -25.5t-37.5 -14t-47.5 -6q-75 0 -113 44l-9 -20q-8 -15 -20 -15h-22q-14 0 -16 5t4 18l33 71q-18 61 -18 241v65t1.5 57.5t4 54.5t8 45.5t13.5 41.5t20 30.5t28 25
t37.5 13.5t48.5 6q73 0 111 -41l9 18q5 11 9 13.5t15 2.5h20q12 0 16 -3.5t-1 -16.5zM219 484q-4 37 -12.5 50.5t-28.5 13.5q-17 0 -26 -8.5t-14.5 -32t-5.5 -65t1 -107.5l1 -32zM222 335v29l-85 -179q3 -38 12 -52.5t29 -14.5q31 0 37.5 38t6.5 179z" />
    <glyph glyph-name="Ugrave" unicode="&#xd9;" horiz-adv-x="362" 
d="M236 701q0 -9 -11 -9h-62q-12 0 -22 9l-69 59q-10 9 -10 16q0 13 14 13h88q11 0 22 -16l45 -59q5 -6 5 -13zM342 190q0 -46 -6 -78t-22 -61.5t-50 -44.5t-85 -15q-94 0 -126.5 46.5t-32.5 147.5v438q0 25 7.5 34.5t27.5 9.5h53q18 0 24 -8.5t6 -32.5v-456q0 -28 10 -40
t34 -12q23 0 32.5 12.5t9.5 40.5v455q0 25 6.5 33t25.5 8h55q19 0 25 -8t6 -33v-436z" />
    <glyph glyph-name="Uacute" unicode="&#xda;" horiz-adv-x="362" 
d="M281 776q0 -7 -10 -16l-69 -59q-10 -9 -22 -9h-62q-11 0 -11 9q0 7 5 13l45 59q11 16 22 16h88q14 0 14 -13zM342 190q0 -46 -6 -78t-22 -61.5t-50 -44.5t-85 -15q-94 0 -126.5 46.5t-32.5 147.5v438q0 25 7.5 34.5t27.5 9.5h53q18 0 24 -8.5t6 -32.5v-456q0 -28 10 -40
t34 -12q23 0 32.5 12.5t9.5 40.5v455q0 25 6.5 33t25.5 8h55q19 0 25 -8t6 -33v-436z" />
    <glyph glyph-name="Ucircumflex" unicode="&#xdb;" horiz-adv-x="362" 
d="M290 699q0 -7 -9 -7h-54q-15 0 -23 10l-29 38l-28 -38q-8 -10 -23 -10h-54q-9 0 -9 7q0 3 2 9l34 65q8 16 27 16h103q19 0 27 -16l34 -65q2 -6 2 -9zM342 190q0 -46 -6 -78t-22 -61.5t-50 -44.5t-85 -15q-94 0 -126.5 46.5t-32.5 147.5v438q0 25 7.5 34.5t27.5 9.5h53
q18 0 24 -8.5t6 -32.5v-456q0 -28 10 -40t34 -12q23 0 32.5 12.5t9.5 40.5v455q0 25 6.5 33t25.5 8h55q19 0 25 -8t6 -33v-436z" />
    <glyph glyph-name="Udieresis" unicode="&#xdc;" horiz-adv-x="362" 
d="M279 723q0 -18 -6.5 -24.5t-24.5 -6.5h-29q-18 0 -24.5 6.5t-6.5 24.5v38q0 18 6.5 24.5t24.5 6.5h29q18 0 24.5 -6.5t6.5 -24.5v-38zM158 723q0 -18 -6.5 -24.5t-24.5 -6.5h-29q-18 0 -24.5 6.5t-6.5 24.5v38q0 18 6.5 24.5t24.5 6.5h29q18 0 24.5 -6.5t6.5 -24.5v-38z
M342 190q0 -46 -6 -78t-22 -61.5t-50 -44.5t-85 -15q-94 0 -126.5 46.5t-32.5 147.5v438q0 25 7.5 34.5t27.5 9.5h53q18 0 24 -8.5t6 -32.5v-456q0 -28 10 -40t34 -12q23 0 32.5 12.5t9.5 40.5v455q0 25 6.5 33t25.5 8h55q19 0 25 -8t6 -33v-436z" />
    <glyph glyph-name="Yacute" unicode="&#xdd;" horiz-adv-x="344" 
d="M341 632l-110 -377v-212q0 -26 -6.5 -34.5t-26.5 -8.5h-52q-20 0 -26.5 8.5t-6.5 34.5v212l-110 377q-5 12 -0.5 23.5t18.5 11.5h67q11 0 16.5 -4.5t9.5 -19.5l51 -217q4 -11 7 -11t7 11l51 217q4 15 9.5 19.5t16.5 4.5h67q14 0 18.5 -11.5t-0.5 -23.5zM276 776
q0 -7 -10 -16l-69 -59q-12 -9 -22 -9h-62q-12 0 -12 9q0 5 5 13l45 59q13 16 22 16h88q15 0 15 -13z" />
    <glyph glyph-name="Thorn" unicode="&#xde;" horiz-adv-x="343" 
d="M26 43l1 581q0 26 6 34.5t26 8.5h54q20 0 26 -8t6 -35v-63h67q128 0 128 -213q0 -101 -28.5 -153.5t-83.5 -52.5h-84v-99q0 -26 -6 -34.5t-26 -8.5h-54q-20 0 -26 8t-6 35zM222 349q0 58 -7.5 76t-25.5 18h-29q-8 0 -12 -3.5t-4 -14.5v-148q0 -17 15 -17h33q16 0 23 16.5
t7 72.5z" />
    <glyph glyph-name="germandbls" unicode="&#xdf;" horiz-adv-x="382" 
d="M374 180q0 -85 -24 -132.5t-84 -47.5h-78q-11 0 -14.5 4t-3.5 16v73q0 25 18 25h17q30 0 39.5 17t9.5 66q0 52 -11 69t-37 16l-6 -1q-10 0 -13.5 4t-3.5 16v74q0 25 17 25h5q26 0 34.5 15t8.5 57q0 44 -10.5 58.5t-31.5 14.5h-46q-10 0 -13.5 -4t-3.5 -16v-484
q0 -27 -6 -36t-25 -9h-54q-19 0 -25.5 9.5t-6.5 35.5v579q0 24 7 33.5t25 9.5h208q31 0 51.5 -12.5t30.5 -37t13.5 -52t3.5 -66.5q0 -118 -54 -151q63 -25 63 -168z" />
    <glyph glyph-name="agrave" unicode="&#xe0;" horiz-adv-x="371" 
d="M242 701q0 -9 -11 -9h-62q-12 0 -22 9l-69 59q-10 9 -10 16q0 13 14 13h88q11 0 22 -16l45 -59q5 -6 5 -13zM368 15q2 -15 -15 -15h-95q-14 0 -17 18l-19 141q-2 16 -17 16h-42q-15 0 -17 -16l-16 -143q-1 -10 -4.5 -13t-13.5 -3h-92q-9 0 -13.5 4t-3.5 11l81 614
q3 22 12 30t30 8h116q18 0 27 -8.5t12 -30.5zM210 304l-19 230q-1 15 -8 15t-8 -16l-17 -229q-1 -5 2.5 -8t10.5 -3h25q7 0 11 3t3 8z" />
    <glyph glyph-name="aacute" unicode="&#xe1;" horiz-adv-x="371" 
d="M300 776q0 -7 -10 -16l-69 -59q-10 -9 -22 -9h-62q-11 0 -11 9q0 7 5 13l45 59q11 16 22 16h88q14 0 14 -13zM368 15q2 -15 -15 -15h-95q-14 0 -17 18l-19 141q-2 16 -17 16h-42q-15 0 -17 -16l-16 -143q-1 -10 -4.5 -13t-13.5 -3h-92q-9 0 -13.5 4t-3.5 11l81 614
q3 22 12 30t30 8h116q18 0 27 -8.5t12 -30.5zM210 304l-19 230q-1 15 -8 15t-8 -16l-17 -229q-1 -5 2.5 -8t10.5 -3h25q7 0 11 3t3 8z" />
    <glyph glyph-name="acircumflex" unicode="&#xe2;" horiz-adv-x="371" 
d="M301 699q0 -7 -9 -7h-54q-15 0 -23 10l-29 38l-28 -38q-8 -10 -23 -10h-54q-9 0 -9 7q0 3 2 9l34 65q8 16 27 16h103q19 0 27 -16l34 -65q2 -6 2 -9zM368 15q2 -15 -15 -15h-95q-14 0 -17 18l-19 141q-2 16 -17 16h-42q-15 0 -17 -16l-16 -143q-1 -10 -4.5 -13t-13.5 -3
h-92q-9 0 -13.5 4t-3.5 11l81 614q3 22 12 30t30 8h116q18 0 27 -8.5t12 -30.5zM210 304l-19 230q-1 15 -8 15t-8 -16l-17 -229q-1 -5 2.5 -8t10.5 -3h25q7 0 11 3t3 8z" />
    <glyph glyph-name="atilde" unicode="&#xe3;" horiz-adv-x="371" 
d="M298 720q0 -28 -25 -28h-40q-2 0 -17 3l-71 21q-7 3 -12 3q-4 0 -4 -6v-5q0 -16 -16 -16h-25q-15 0 -20 5.5t-5 20.5v43q0 28 25 28h40q2 0 17 -3l71 -21q8 -3 12 -3t4 6v5q0 16 16 16h25q15 0 20 -5.5t5 -20.5v-43zM368 15q2 -15 -15 -15h-95q-14 0 -17 18l-19 141
q-2 16 -17 16h-42q-15 0 -17 -16l-16 -143q-1 -10 -4.5 -13t-13.5 -3h-92q-9 0 -13.5 4t-3.5 11l81 614q3 22 12 30t30 8h116q18 0 27 -8.5t12 -30.5zM210 304l-19 230q-1 15 -8 15t-8 -16l-17 -229q-1 -5 2.5 -8t10.5 -3h25q7 0 11 3t3 8z" />
    <glyph glyph-name="adieresis" unicode="&#xe4;" horiz-adv-x="371" 
d="M291 723q0 -18 -6.5 -24.5t-24.5 -6.5h-29q-18 0 -24.5 6.5t-6.5 24.5v38q0 18 6.5 24.5t24.5 6.5h29q18 0 24.5 -6.5t6.5 -24.5v-38zM170 723q0 -18 -6.5 -24.5t-24.5 -6.5h-29q-18 0 -24.5 6.5t-6.5 24.5v38q0 18 6.5 24.5t24.5 6.5h29q18 0 24.5 -6.5t6.5 -24.5v-38z
M368 15q2 -15 -15 -15h-95q-14 0 -17 18l-19 141q-2 16 -17 16h-42q-15 0 -17 -16l-16 -143q-1 -10 -4.5 -13t-13.5 -3h-92q-9 0 -13.5 4t-3.5 11l81 614q3 22 12 30t30 8h116q18 0 27 -8.5t12 -30.5zM210 304l-19 230q-1 15 -8 15t-8 -16l-17 -229q-1 -5 2.5 -8t10.5 -3h25
q7 0 11 3t3 8z" />
    <glyph glyph-name="aring" unicode="&#xe5;" horiz-adv-x="371" 
d="M368 15q2 -15 -15 -15h-95q-14 0 -17 18l-19 141q-2 16 -17 16h-42q-15 0 -17 -16l-16 -143q-1 -10 -4.5 -13t-13.5 -3h-92q-9 0 -13.5 4t-3.5 11l81 614q4 32 32 37q-15 24 -15 45q0 37 22.5 61.5t57.5 24.5t57 -24.5t22 -62.5q0 -24 -14 -43q30 -3 35 -39zM213 709
q0 17 -9 28t-23 11t-23 -10t-9 -28q0 -17 9 -27.5t23 -10.5t23 10.5t9 26.5zM210 304l-19 230q-1 15 -8 15t-8 -16l-17 -229q-1 -5 2.5 -8t10.5 -3h25q7 0 11 3t3 8z" />
    <glyph glyph-name="ae" unicode="&#xe6;" horiz-adv-x="511" 
d="M506 43q0 -43 -34 -43h-223q-15 0 -15 18v141q0 9 -3 12.5t-12 3.5h-43q-15 0 -18 -16l-28 -143q-2 -10 -6 -13t-14 -3h-92q-18 0 -15 15l132 614q4 22 14.5 30t31.5 8h285q19 0 25.5 -7.5t6.5 -31.5v-37q0 -25 -6.5 -33.5t-25.5 -8.5h-98q-11 0 -14.5 -4t-3.5 -18v-93
q0 -14 2.5 -17.5t15.5 -3.5h50q17 0 23 -7t6 -27v-51q0 -19 -6.5 -26t-22.5 -7h-50q-11 0 -14.5 -3t-3.5 -12v-140q0 -13 4 -17.5t17 -4.5h99q20 0 28 -9.5t8 -33.5v-32zM234 304v230q0 15 -6 15q-7 0 -10 -16l-36 -229q-1 -5 2 -8t10 -3h25q15 0 15 11z" />
    <glyph glyph-name="ccedilla" unicode="&#xe7;" horiz-adv-x="290" 
d="M287 587q0 -23 -6.5 -30.5t-26.5 -7.5h-76q-24 0 -30 -14q-11 -23 -11 -186v-17q0 -82 1 -122t6 -62.5t11 -26t21 -3.5h78q18 0 25 -7.5t7 -26.5v-48q0 -20 -6.5 -28t-23.5 -8h-57q9 -32 9 -55q0 -38 -14 -60t-38 -22h-36q-22 0 -28.5 7t-6.5 33v22q0 18 8 24.5t31 6.5
h21q13 0 13 15q0 7 -6 29h-15q-32 0 -51.5 8.5t-34 27.5t-21.5 58t-10 91t-3 136q-1 214 18 280t97 66h124q17 0 24 -8t7 -27v-45z" />
    <glyph glyph-name="egrave" unicode="&#xe8;" horiz-adv-x="301" 
d="M217 701q0 -9 -11 -9h-62q-12 0 -22 9l-69 59q-10 9 -10 16q0 13 14 13h88q11 0 22 -16l45 -59q5 -6 5 -13zM298 43q0 -43 -34 -43h-204q-20 0 -27 9t-7 35v579q0 25 7.5 34.5t26.5 9.5h198q19 0 25.5 -7.5t6.5 -31.5v-37q0 -25 -6.5 -33.5t-25.5 -8.5h-98
q-11 0 -14.5 -4t-3.5 -18v-93q0 -14 2.5 -17.5t15.5 -3.5h50q17 0 23 -7t6 -27v-51q0 -19 -6.5 -26t-22.5 -7h-50q-11 0 -14.5 -3t-3.5 -12v-140q0 -13 4 -17.5t17 -4.5h99q20 0 28 -9.5t8 -33.5v-32z" />
    <glyph glyph-name="eacute" unicode="&#xe9;" horiz-adv-x="301" 
d="M248 776q0 -7 -10 -16l-69 -59q-10 -9 -22 -9h-62q-11 0 -11 9q0 7 5 13l45 59q11 16 22 16h88q14 0 14 -13zM298 43q0 -43 -34 -43h-204q-20 0 -27 9t-7 35v579q0 25 7.5 34.5t26.5 9.5h198q19 0 25.5 -7.5t6.5 -31.5v-37q0 -25 -6.5 -33.5t-25.5 -8.5h-98
q-11 0 -14.5 -4t-3.5 -18v-93q0 -14 2.5 -17.5t15.5 -3.5h50q17 0 23 -7t6 -27v-51q0 -19 -6.5 -26t-22.5 -7h-50q-11 0 -14.5 -3t-3.5 -12v-140q0 -13 4 -17.5t17 -4.5h99q20 0 28 -9.5t8 -33.5v-32z" />
    <glyph glyph-name="ecircumflex" unicode="&#xea;" horiz-adv-x="301" 
d="M261 699q0 -7 -9 -7h-54q-15 0 -23 10l-29 38l-28 -38q-8 -10 -23 -10h-54q-9 0 -9 7q0 3 2 9l34 65q8 16 27 16h103q19 0 27 -16l34 -65q2 -6 2 -9zM298 43q0 -43 -34 -43h-204q-20 0 -27 9t-7 35v579q0 25 7.5 34.5t26.5 9.5h198q19 0 25.5 -7.5t6.5 -31.5v-37
q0 -25 -6.5 -33.5t-25.5 -8.5h-98q-11 0 -14.5 -4t-3.5 -18v-93q0 -14 2.5 -17.5t15.5 -3.5h50q17 0 23 -7t6 -27v-51q0 -19 -6.5 -26t-22.5 -7h-50q-11 0 -14.5 -3t-3.5 -12v-140q0 -13 4 -17.5t17 -4.5h99q20 0 28 -9.5t8 -33.5v-32z" />
    <glyph glyph-name="edieresis" unicode="&#xeb;" horiz-adv-x="301" 
d="M253 723q0 -18 -6.5 -24.5t-24.5 -6.5h-29q-18 0 -24.5 6.5t-6.5 24.5v38q0 18 6.5 24.5t24.5 6.5h29q18 0 24.5 -6.5t6.5 -24.5v-38zM132 723q0 -18 -6.5 -24.5t-24.5 -6.5h-29q-18 0 -24.5 6.5t-6.5 24.5v38q0 18 6.5 24.5t24.5 6.5h29q18 0 24.5 -6.5t6.5 -24.5v-38z
M298 43q0 -43 -34 -43h-204q-20 0 -27 9t-7 35v579q0 25 7.5 34.5t26.5 9.5h198q19 0 25.5 -7.5t6.5 -31.5v-37q0 -25 -6.5 -33.5t-25.5 -8.5h-98q-11 0 -14.5 -4t-3.5 -18v-93q0 -14 2.5 -17.5t15.5 -3.5h50q17 0 23 -7t6 -27v-51q0 -19 -6.5 -26t-22.5 -7h-50
q-11 0 -14.5 -3t-3.5 -12v-140q0 -13 4 -17.5t17 -4.5h99q20 0 28 -9.5t8 -33.5v-32z" />
    <glyph glyph-name="igrave" unicode="&#xec;" horiz-adv-x="170" 
d="M155 701q0 -9 -11 -9h-62q-12 0 -22 9l-69 59q-10 9 -10 16q0 13 14 13h88q11 0 22 -16l45 -59q5 -6 5 -13zM144 42q0 -26 -7 -34t-26 -8h-50q-21 0 -28 8.5t-7 35.5v578q0 26 7 35.5t26 9.5h54q17 0 24 -10t7 -35v-580z" />
    <glyph glyph-name="iacute" unicode="&#xed;" horiz-adv-x="170" 
d="M179 776q0 -7 -10 -16l-69 -59q-10 -9 -22 -9h-62q-11 0 -11 9q0 7 5 13l45 59q11 16 22 16h88q14 0 14 -13zM144 42q0 -26 -7 -34t-26 -8h-50q-21 0 -28 8.5t-7 35.5v578q0 26 7 35.5t26 9.5h54q17 0 24 -10t7 -35v-580z" />
    <glyph glyph-name="icircumflex" unicode="&#xee;" horiz-adv-x="170" 
d="M199 699q0 -7 -9 -7h-54q-15 0 -23 10l-29 38l-28 -38q-8 -10 -23 -10h-54q-9 0 -9 7q0 3 2 9l34 65q8 16 27 16h103q19 0 27 -16l34 -65q2 -6 2 -9zM144 42q0 -26 -7 -34t-26 -8h-50q-21 0 -28 8.5t-7 35.5v578q0 26 7 35.5t26 9.5h54q17 0 24 -10t7 -35v-580z" />
    <glyph glyph-name="idieresis" unicode="&#xef;" horiz-adv-x="170" 
d="M192 723q0 -18 -6.5 -24.5t-24.5 -6.5h-29q-18 0 -24.5 6.5t-6.5 24.5v38q0 18 6.5 24.5t24.5 6.5h29q18 0 24.5 -6.5t6.5 -24.5v-38zM71 723q0 -18 -6.5 -24.5t-24.5 -6.5h-29q-18 0 -24.5 6.5t-6.5 24.5v38q0 18 6.5 24.5t24.5 6.5h29q18 0 24.5 -6.5t6.5 -24.5v-38z
M144 42q0 -26 -7 -34t-26 -8h-50q-21 0 -28 8.5t-7 35.5v578q0 26 7 35.5t26 9.5h54q17 0 24 -10t7 -35v-580z" />
    <glyph glyph-name="eth" unicode="&#xf0;" horiz-adv-x="366" 
d="M349 334q0 -150 -10.5 -218t-35.5 -92t-80 -24h-162q-22 0 -28.5 8t-6.5 35v268h-10q-26 0 -35.5 5.5t-9.5 25.5v25q0 20 9.5 25.5t35.5 5.5h10v224q0 25 7 35t25 10h171q28 0 47.5 -7t33 -26t21 -41.5t12 -64.5t5.5 -84t1 -110zM230 324q0 174 -9 201q-7 22 -31 24h-16
q-22 0 -28 -5t-6 -25v-121h11q26 0 35.5 -5.5t9.5 -25.5v-25q0 -20 -9.5 -25.5t-35.5 -5.5h-11v-166q0 -19 5.5 -23t31.5 -4q31 0 39 13q13 22 14 155v38z" />
    <glyph glyph-name="ntilde" unicode="&#xf1;" horiz-adv-x="391" 
d="M301 720q0 -28 -25 -28h-40q-2 0 -17 3l-71 21q-7 3 -12 3q-4 0 -4 -6v-5q0 -16 -16 -16h-25q-15 0 -20 5.5t-5 20.5v43q0 28 25 28h40q2 0 17 -3l71 -21q7 -3 12 -3q4 0 4 6v5q0 16 16 16h25q15 0 20 -5.5t5 -20.5v-43zM365 45q0 -26 -7 -35.5t-28 -9.5h-46q-18 0 -25 5
t-14 26l-84 249q-5 14 -11 14q-5 0 -5 -19v-231q0 -24 -6.5 -34t-24.5 -10h-52q-19 0 -27.5 9t-8.5 36v578q0 26 7 35t28 9h46q18 0 25 -5t14 -26l84 -248q5 -14 11 -14q5 0 5 19v230q0 24 6.5 34t24.5 10h52q19 0 27.5 -9t8.5 -36v-577z" />
    <glyph glyph-name="ograve" unicode="&#xf2;" 
d="M239 701q0 -9 -11 -9h-62q-12 0 -22 9l-69 59q-10 9 -10 16q0 13 14 13h88q11 0 22 -16l45 -59q5 -6 5 -13zM339 335v-65t-1.5 -58t-4.5 -55.5t-8.5 -46.5t-13.5 -42t-20 -31.5t-28 -25.5t-37.5 -14t-47.5 -6q-27 0 -48.5 6t-37.5 14t-28 26t-20 31.5t-13.5 42t-8 46
t-4 55.5t-1.5 58v65v65t1.5 57.5t4 54.5t8 45.5t13.5 41.5t20 30.5t28 25t37.5 13.5t48.5 6q107 0 139 -90q22 -59 22 -222v-27zM222 335q-1 142 -7 177.5t-37 35.5t-37.5 -36.5t-6.5 -176.5q1 -143 7 -180t37 -37t37.5 38t6.5 179z" />
    <glyph glyph-name="oacute" unicode="&#xf3;" 
d="M278 776q0 -7 -10 -16l-69 -59q-10 -9 -22 -9h-62q-11 0 -11 9q0 7 5 13l45 59q11 16 22 16h88q14 0 14 -13zM339 335v-65t-1.5 -58t-4.5 -55.5t-8.5 -46.5t-13.5 -42t-20 -31.5t-28 -25.5t-37.5 -14t-47.5 -6q-27 0 -48.5 6t-37.5 14t-28 26t-20 31.5t-13.5 42t-8 46
t-4 55.5t-1.5 58v65v65t1.5 57.5t4 54.5t8 45.5t13.5 41.5t20 30.5t28 25t37.5 13.5t48.5 6q107 0 139 -90q22 -59 22 -222v-27zM222 335q-1 142 -7 177.5t-37 35.5t-37.5 -36.5t-6.5 -176.5q1 -143 7 -180t37 -37t37.5 38t6.5 179z" />
    <glyph glyph-name="ocircumflex" unicode="&#xf4;" 
d="M288 699q0 -7 -9 -7h-54q-15 0 -23 10l-29 38l-28 -38q-8 -10 -23 -10h-54q-9 0 -9 7q0 3 2 9l34 65q8 16 27 16h103q19 0 27 -16l34 -65q2 -6 2 -9zM339 335v-65t-1.5 -58t-4.5 -55.5t-8.5 -46.5t-13.5 -42t-20 -31.5t-28 -25.5t-37.5 -14t-47.5 -6q-27 0 -48.5 6
t-37.5 14t-28 26t-20 31.5t-13.5 42t-8 46t-4 55.5t-1.5 58v65v65t1.5 57.5t4 54.5t8 45.5t13.5 41.5t20 30.5t28 25t37.5 13.5t48.5 6q107 0 139 -90q22 -59 22 -222v-27zM222 335q-1 142 -7 177.5t-37 35.5t-37.5 -36.5t-6.5 -176.5q1 -143 7 -180t37 -37t37.5 38t6.5 179
z" />
    <glyph glyph-name="otilde" unicode="&#xf5;" 
d="M290 720q0 -28 -25 -28h-40q-2 0 -17 3l-71 21q-8 3 -12 3t-4 -6v-5q0 -16 -16 -16h-25q-15 0 -20 5.5t-5 20.5v43q0 28 25 28h40q2 0 17 -3l71 -21q8 -3 12 -3t4 6v5q0 16 16 16h25q15 0 20 -5.5t5 -20.5v-43zM339 335v-65t-1.5 -58t-4.5 -55.5t-8.5 -46.5t-13.5 -42
t-20 -31.5t-28 -25.5t-37.5 -14t-47.5 -6q-27 0 -48.5 6t-37.5 14t-28 26t-20 31.5t-13.5 42t-8 46t-4 55.5t-1.5 58v65v65t1.5 57.5t4 54.5t8 45.5t13.5 41.5t20 30.5t28 25t37.5 13.5t48.5 6q107 0 139 -90q22 -59 22 -222v-27zM222 335q-1 142 -7 177.5t-37 35.5
t-37.5 -36.5t-6.5 -176.5q1 -143 7 -180t37 -37t37.5 38t6.5 179z" />
    <glyph glyph-name="odieresis" unicode="&#xf6;" 
d="M277 723q0 -18 -6.5 -24.5t-24.5 -6.5h-29q-18 0 -24.5 6.5t-6.5 24.5v38q0 18 6.5 24.5t24.5 6.5h29q18 0 24.5 -6.5t6.5 -24.5v-38zM156 723q0 -18 -6.5 -24.5t-24.5 -6.5h-29q-18 0 -24.5 6.5t-6.5 24.5v38q0 18 6.5 24.5t24.5 6.5h29q18 0 24.5 -6.5t6.5 -24.5v-38z
M339 335v-65t-1.5 -58t-4.5 -55.5t-8.5 -46.5t-13.5 -42t-20 -31.5t-28 -25.5t-37.5 -14t-47.5 -6q-27 0 -48.5 6t-37.5 14t-28 26t-20 31.5t-13.5 42t-8 46t-4 55.5t-1.5 58v65v65t1.5 57.5t4 54.5t8 45.5t13.5 41.5t20 30.5t28 25t37.5 13.5t48.5 6q107 0 139 -90
q22 -59 22 -222v-27zM222 335q-1 142 -7 177.5t-37 35.5t-37.5 -36.5t-6.5 -176.5q1 -143 7 -180t37 -37t37.5 38t6.5 179z" />
    <glyph glyph-name="divide" unicode="&#xf7;" horiz-adv-x="430" 
d="M423 319q0 -23 -7.5 -30.5t-24.5 -7.5h-352q-17 0 -24.5 7.5t-7.5 30.5v51q0 23 6.5 31.5t24.5 8.5h354q18 0 24.5 -8.5t6.5 -31.5v-51zM277 176q0 -28 -6 -38.5t-27 -10.5h-61q-21 0 -27 10.5t-6 38.5v30q0 28 6 38.5t27 10.5h61q21 0 27 -10.5t6 -38.5v-30zM277 485
q0 -28 -6 -38.5t-27 -10.5h-61q-21 0 -27 10.5t-6 38.5v30q0 28 6 38t27 10h61q21 0 27 -10t6 -38v-30z" />
    <glyph glyph-name="oslash" unicode="&#xf8;" 
d="M357 647l-36 -76q18 -59 18 -236v-65t-1.5 -58t-4.5 -55.5t-8.5 -46.5t-13.5 -42t-20 -31.5t-28 -25.5t-37.5 -14t-47.5 -6q-75 0 -113 44l-9 -20q-8 -15 -20 -15h-22q-14 0 -16 5t4 18l33 71q-18 61 -18 241v65t1.5 57.5t4 54.5t8 45.5t13.5 41.5t20 30.5t28 25
t37.5 13.5t48.5 6q73 0 111 -41l9 18q5 11 9 13.5t15 2.5h20q12 0 16 -3.5t-1 -16.5zM219 484q-4 37 -12.5 50.5t-28.5 13.5q-17 0 -26 -8.5t-14.5 -32t-5.5 -65t1 -107.5l1 -32zM222 335v29l-85 -179q3 -38 12 -52.5t29 -14.5q31 0 37.5 38t6.5 179z" />
    <glyph glyph-name="ugrave" unicode="&#xf9;" horiz-adv-x="362" 
d="M236 701q0 -9 -11 -9h-62q-12 0 -22 9l-69 59q-10 9 -10 16q0 13 14 13h88q11 0 22 -16l45 -59q5 -6 5 -13zM342 190q0 -46 -6 -78t-22 -61.5t-50 -44.5t-85 -15q-94 0 -126.5 46.5t-32.5 147.5v438q0 25 7.5 34.5t27.5 9.5h53q18 0 24 -8.5t6 -32.5v-456q0 -28 10 -40
t34 -12q23 0 32.5 12.5t9.5 40.5v455q0 25 6.5 33t25.5 8h55q19 0 25 -8t6 -33v-436z" />
    <glyph glyph-name="uacute" unicode="&#xfa;" horiz-adv-x="362" 
d="M281 776q0 -7 -10 -16l-69 -59q-10 -9 -22 -9h-62q-11 0 -11 9q0 7 5 13l45 59q11 16 22 16h88q14 0 14 -13zM342 190q0 -46 -6 -78t-22 -61.5t-50 -44.5t-85 -15q-94 0 -126.5 46.5t-32.5 147.5v438q0 25 7.5 34.5t27.5 9.5h53q18 0 24 -8.5t6 -32.5v-456q0 -28 10 -40
t34 -12q23 0 32.5 12.5t9.5 40.5v455q0 25 6.5 33t25.5 8h55q19 0 25 -8t6 -33v-436z" />
    <glyph glyph-name="ucircumflex" unicode="&#xfb;" horiz-adv-x="362" 
d="M290 699q0 -7 -9 -7h-54q-15 0 -23 10l-29 38l-28 -38q-8 -10 -23 -10h-54q-9 0 -9 7q0 3 2 9l34 65q8 16 27 16h103q19 0 27 -16l34 -65q2 -6 2 -9zM342 190q0 -46 -6 -78t-22 -61.5t-50 -44.5t-85 -15q-94 0 -126.5 46.5t-32.5 147.5v438q0 25 7.5 34.5t27.5 9.5h53
q18 0 24 -8.5t6 -32.5v-456q0 -28 10 -40t34 -12q23 0 32.5 12.5t9.5 40.5v455q0 25 6.5 33t25.5 8h55q19 0 25 -8t6 -33v-436z" />
    <glyph glyph-name="udieresis" unicode="&#xfc;" horiz-adv-x="362" 
d="M279 723q0 -18 -6.5 -24.5t-24.5 -6.5h-29q-18 0 -24.5 6.5t-6.5 24.5v38q0 18 6.5 24.5t24.5 6.5h29q18 0 24.5 -6.5t6.5 -24.5v-38zM158 723q0 -18 -6.5 -24.5t-24.5 -6.5h-29q-18 0 -24.5 6.5t-6.5 24.5v38q0 18 6.5 24.5t24.5 6.5h29q18 0 24.5 -6.5t6.5 -24.5v-38z
M342 190q0 -46 -6 -78t-22 -61.5t-50 -44.5t-85 -15q-94 0 -126.5 46.5t-32.5 147.5v438q0 25 7.5 34.5t27.5 9.5h53q18 0 24 -8.5t6 -32.5v-456q0 -28 10 -40t34 -12q23 0 32.5 12.5t9.5 40.5v455q0 25 6.5 33t25.5 8h55q19 0 25 -8t6 -33v-436z" />
    <glyph glyph-name="yacute" unicode="&#xfd;" horiz-adv-x="344" 
d="M341 632l-110 -377v-212q0 -26 -6.5 -34.5t-26.5 -8.5h-52q-20 0 -26.5 8.5t-6.5 34.5v212l-110 377q-5 12 -0.5 23.5t18.5 11.5h67q11 0 16.5 -4.5t9.5 -19.5l51 -217q4 -11 7 -11t7 11l51 217q4 15 9.5 19.5t16.5 4.5h67q14 0 18.5 -11.5t-0.5 -23.5zM276 776
q0 -7 -10 -16l-69 -59q-12 -9 -22 -9h-62q-12 0 -12 9q0 5 5 13l45 59q13 16 22 16h88q15 0 15 -13z" />
    <glyph glyph-name="thorn" unicode="&#xfe;" horiz-adv-x="343" 
d="M26 43l1 581q0 26 6 34.5t26 8.5h54q20 0 26 -8t6 -35v-63h67q128 0 128 -213q0 -101 -28.5 -153.5t-83.5 -52.5h-84v-99q0 -26 -6 -34.5t-26 -8.5h-54q-20 0 -26 8t-6 35zM222 349q0 58 -7.5 76t-25.5 18h-29q-8 0 -12 -3.5t-4 -14.5v-148q0 -17 15 -17h33q16 0 23 16.5
t7 72.5z" />
    <glyph glyph-name="ydieresis" unicode="&#xff;" horiz-adv-x="344" 
d="M281 723q0 -18 -6.5 -24.5t-24.5 -6.5h-29q-18 0 -24.5 6.5t-6.5 24.5v38q0 18 6.5 24.5t24.5 6.5h29q18 0 24.5 -6.5t6.5 -24.5v-38zM160 723q0 -18 -6.5 -24.5t-24.5 -6.5h-29q-18 0 -24.5 6.5t-6.5 24.5v38q0 18 6.5 24.5t24.5 6.5h29q18 0 24.5 -6.5t6.5 -24.5v-38z
M341 632l-110 -377v-212q0 -26 -6.5 -34.5t-26.5 -8.5h-52q-20 0 -26.5 8.5t-6.5 34.5v212l-110 377q-5 12 -0.5 23.5t18.5 11.5h67q11 0 16.5 -4.5t9.5 -19.5l51 -217q4 -11 7 -11t7 11l51 217q4 15 9.5 19.5t16.5 4.5h67q14 0 18.5 -11.5t-0.5 -23.5z" />
    <glyph glyph-name="Amacron" unicode="&#x100;" horiz-adv-x="371" 
d="M298 723q0 -20 -9.5 -25.5t-35.5 -5.5h-135q-26 0 -35.5 5.5t-9.5 25.5v25q0 20 9.5 25.5t35.5 5.5h135q26 0 35.5 -5.5t9.5 -25.5v-25zM368 15q2 -15 -15 -15h-95q-14 0 -17 18l-19 141q-2 16 -17 16h-42q-15 0 -17 -16l-16 -143q-1 -10 -4.5 -13t-13.5 -3h-92
q-9 0 -13.5 4t-3.5 11l81 614q3 22 12 30t30 8h116q18 0 27 -8.5t12 -30.5zM210 304l-19 230q-1 15 -8 15t-8 -16l-17 -229q-1 -5 2.5 -8t10.5 -3h25q7 0 11 3t3 8z" />
    <glyph glyph-name="amacron" unicode="&#x101;" horiz-adv-x="371" 
d="M298 723q0 -20 -9.5 -25.5t-35.5 -5.5h-135q-26 0 -35.5 5.5t-9.5 25.5v25q0 20 9.5 25.5t35.5 5.5h135q26 0 35.5 -5.5t9.5 -25.5v-25zM368 15q2 -15 -15 -15h-95q-14 0 -17 18l-19 141q-2 16 -17 16h-42q-15 0 -17 -16l-16 -143q-1 -10 -4.5 -13t-13.5 -3h-92
q-9 0 -13.5 4t-3.5 11l81 614q3 22 12 30t30 8h116q18 0 27 -8.5t12 -30.5zM210 304l-19 230q-1 15 -8 15t-8 -16l-17 -229q-1 -5 2.5 -8t10.5 -3h25q7 0 11 3t3 8z" />
    <glyph glyph-name="Abreve" unicode="&#x102;" horiz-adv-x="371" 
d="M312 790q0 -39 -29.5 -68t-96.5 -29t-97 29t-30 68q0 13 11 13h27q10 0 13 -13q4 -14 19.5 -19.5t56.5 -5.5t57 6t18 19q5 13 12 13h28q11 0 11 -13zM368 15q2 -15 -15 -15h-95q-14 0 -17 18l-19 141q-2 16 -17 16h-42q-15 0 -17 -16l-16 -143q-1 -10 -4.5 -13t-13.5 -3
h-92q-9 0 -13.5 4t-3.5 11l81 614q3 22 12 30t30 8h116q18 0 27 -8.5t12 -30.5zM210 304l-19 230q-1 15 -8 15t-8 -16l-17 -229q-1 -5 2.5 -8t10.5 -3h25q7 0 11 3t3 8z" />
    <glyph glyph-name="abreve" unicode="&#x103;" horiz-adv-x="371" 
d="M312 790q0 -39 -29.5 -68t-96.5 -29t-97 29t-30 68q0 13 11 13h27q10 0 13 -13q4 -14 19.5 -19.5t56.5 -5.5t57 6t18 19q5 13 12 13h28q11 0 11 -13zM368 15q2 -15 -15 -15h-95q-14 0 -17 18l-19 141q-2 16 -17 16h-42q-15 0 -17 -16l-16 -143q-1 -10 -4.5 -13t-13.5 -3
h-92q-9 0 -13.5 4t-3.5 11l81 614q3 22 12 30t30 8h116q18 0 27 -8.5t12 -30.5zM210 304l-19 230q-1 15 -8 15t-8 -16l-17 -229q-1 -5 2.5 -8t10.5 -3h25q7 0 11 3t3 8z" />
    <glyph glyph-name="Aogonek" unicode="&#x104;" horiz-adv-x="371" 
d="M417 -82q0 -15 -14 -26q-36 -29 -70 -29q-61 0 -61 78q0 30 8 59h-22q-14 0 -17 18l-19 141q-2 16 -17 16h-42q-15 0 -17 -16l-16 -143q-1 -10 -4.5 -13t-13.5 -3h-92q-9 0 -13.5 4t-3.5 11l81 614q3 22 12 30t30 8h116q18 0 27 -8.5t12 -30.5l87 -613q2 -15 -15 -15h-26
q-4 -20 -4 -26q0 -27 24 -27q8 0 28 10q18 9 25 0q17 -20 17 -39zM210 304l-19 230q-1 15 -8 15t-8 -16l-17 -229q-1 -5 2.5 -8t10.5 -3h25q7 0 11 3t3 8z" />
    <glyph glyph-name="aogonek" unicode="&#x105;" horiz-adv-x="371" 
d="M418 -82q0 -15 -14 -26q-36 -29 -70 -29q-61 0 -61 78q0 30 8 59h-23q-14 0 -17 18l-19 141q-2 16 -17 16h-42q-15 0 -17 -16l-16 -143q-1 -10 -4.5 -13t-13.5 -3h-92q-9 0 -13.5 4t-3.5 11l81 614q3 22 12 30t30 8h116q18 0 27 -8.5t12 -30.5l87 -613q2 -15 -15 -15h-25
q-4 -20 -4 -26q0 -27 24 -27q8 0 28 10q18 9 25 0q17 -20 17 -39zM210 304l-19 230q-1 15 -8 15t-8 -16l-17 -229q-1 -5 2.5 -8t10.5 -3h25q7 0 11 3t3 8z" />
    <glyph glyph-name="Cacute" unicode="&#x106;" horiz-adv-x="290" 
d="M262 776q0 -7 -10 -16l-69 -59q-10 -9 -22 -9h-62q-11 0 -11 9q0 7 5 13l45 59q11 16 22 16h88q14 0 14 -13zM287 587q0 -23 -6.5 -30.5t-26.5 -7.5h-76q-24 0 -30 -14q-11 -23 -11 -186v-17q0 -82 1 -122t6 -62.5t11 -26t21 -3.5h78q18 0 25 -7.5t7 -26.5v-48
q0 -20 -6.5 -28t-23.5 -8h-119q-32 0 -51.5 8.5t-34 27.5t-21.5 58t-10 91t-3 136q-1 214 18 280t97 66h124q17 0 24 -8t7 -27v-45z" />
    <glyph glyph-name="cacute" unicode="&#x107;" horiz-adv-x="290" 
d="M260 776q0 -7 -10 -16l-69 -59q-10 -9 -22 -9h-62q-11 0 -11 9q0 7 5 13l45 59q11 16 22 16h88q14 0 14 -13zM287 587q0 -23 -6.5 -30.5t-26.5 -7.5h-76q-24 0 -30 -14q-11 -23 -11 -186v-17q0 -82 1 -122t6 -62.5t11 -26t21 -3.5h78q18 0 25 -7.5t7 -26.5v-48
q0 -20 -6.5 -28t-23.5 -8h-119q-32 0 -51.5 8.5t-34 27.5t-21.5 58t-10 91t-3 136q-1 214 18 280t97 66h124q17 0 24 -8t7 -27v-45z" />
    <glyph glyph-name="Ccaron" unicode="&#x10c;" horiz-adv-x="290" 
d="M260 782q0 -6 -2 -9l-34 -66q-9 -15 -27 -15h-103q-20 0 -27 15l-35 66q0 2 -1 5t-1 4q0 7 9 7h54q16 0 23 -10l29 -38l28 38q8 10 23 10h54q10 0 10 -7zM287 587q0 -23 -6.5 -30.5t-26.5 -7.5h-76q-24 0 -30 -14q-11 -23 -11 -186v-17q0 -82 1 -122t6 -62.5t11 -26
t21 -3.5h78q18 0 25 -7.5t7 -26.5v-48q0 -20 -6.5 -28t-23.5 -8h-119q-32 0 -51.5 8.5t-34 27.5t-21.5 58t-10 91t-3 136q-1 214 18 280t97 66h124q17 0 24 -8t7 -27v-45z" />
    <glyph glyph-name="ccaron" unicode="&#x10d;" horiz-adv-x="290" 
d="M260 782q0 -6 -2 -9l-34 -66q-9 -15 -27 -15h-103q-20 0 -27 15l-35 66q0 2 -1 5t-1 4q0 7 9 7h54q16 0 23 -10l29 -38l28 38q8 10 23 10h54q10 0 10 -7zM287 587q0 -23 -6.5 -30.5t-26.5 -7.5h-76q-24 0 -30 -14q-11 -23 -11 -186v-17q0 -82 1 -122t6 -62.5t11 -26
t21 -3.5h78q18 0 25 -7.5t7 -26.5v-48q0 -20 -6.5 -28t-23.5 -8h-119q-32 0 -51.5 8.5t-34 27.5t-21.5 58t-10 91t-3 136q-1 214 18 280t97 66h124q17 0 24 -8t7 -27v-45z" />
    <glyph glyph-name="Dcaron" unicode="&#x10e;" horiz-adv-x="366" 
d="M298 782q0 -6 -2 -9l-34 -66q-9 -15 -27 -15h-103q-20 0 -27 15l-35 66q0 2 -1 5t-1 4q0 7 9 7h54q16 0 23 -10l29 -38l28 38q8 10 23 10h54q10 0 10 -7zM349 334q0 -150 -10.5 -218t-35.5 -92t-80 -24h-162q-22 0 -28.5 8t-6.5 35v579q0 25 7 35t25 10h171q28 0 47.5 -7
t33 -26t21 -41.5t12 -64.5t5.5 -84t1 -110zM230 324q0 174 -9 201q-7 22 -31 24h-16q-22 0 -28 -5t-6 -25v-374q0 -19 5.5 -23t31.5 -4q31 0 39 13q13 22 14 155v38z" />
    <glyph glyph-name="dcaron" unicode="&#x10f;" horiz-adv-x="366" 
d="M298 782q0 -6 -2 -9l-34 -66q-9 -15 -27 -15h-103q-20 0 -27 15l-35 66q0 2 -1 5t-1 4q0 7 9 7h54q16 0 23 -10l29 -38l28 38q8 10 23 10h54q10 0 10 -7zM349 334q0 -150 -10.5 -218t-35.5 -92t-80 -24h-162q-22 0 -28.5 8t-6.5 35v579q0 25 7 35t25 10h171q28 0 47.5 -7
t33 -26t21 -41.5t12 -64.5t5.5 -84t1 -110zM230 324q0 174 -9 201q-7 22 -31 24h-16q-22 0 -28 -5t-6 -25v-374q0 -19 5.5 -23t31.5 -4q31 0 39 13q13 22 14 155v38z" />
    <glyph glyph-name="Dcroat" unicode="&#x110;" horiz-adv-x="366" 
d="M349 334q0 -150 -10.5 -218t-35.5 -92t-80 -24h-162q-22 0 -28.5 8t-6.5 35v268h-10q-26 0 -35.5 5.5t-9.5 25.5v25q0 20 9.5 25.5t35.5 5.5h10v224q0 25 7 35t25 10h171q28 0 47.5 -7t33 -26t21 -41.5t12 -64.5t5.5 -84t1 -110zM230 324q0 174 -9 201q-7 22 -31 24h-16
q-22 0 -28 -5t-6 -25v-121h11q26 0 35.5 -5.5t9.5 -25.5v-25q0 -20 -9.5 -25.5t-35.5 -5.5h-11v-166q0 -19 5.5 -23t31.5 -4q31 0 39 13q13 22 14 155v38z" />
    <glyph glyph-name="dcroat" unicode="&#x111;" horiz-adv-x="366" 
d="M349 334q0 -150 -10.5 -218t-35.5 -92t-80 -24h-162q-22 0 -28.5 8t-6.5 35v268h-10q-26 0 -35.5 5.5t-9.5 25.5v25q0 20 9.5 25.5t35.5 5.5h10v224q0 25 7 35t25 10h171q28 0 47.5 -7t33 -26t21 -41.5t12 -64.5t5.5 -84t1 -110zM230 324q0 174 -9 201q-7 22 -31 24h-16
q-22 0 -28 -5t-6 -25v-121h11q26 0 35.5 -5.5t9.5 -25.5v-25q0 -20 -9.5 -25.5t-35.5 -5.5h-11v-166q0 -19 5.5 -23t31.5 -4q31 0 39 13q13 22 14 155v38z" />
    <glyph glyph-name="Emacron" unicode="&#x112;" horiz-adv-x="301" 
d="M263 723q0 -20 -9.5 -25.5t-35.5 -5.5h-135q-26 0 -35.5 5.5t-9.5 25.5v25q0 20 9.5 25.5t35.5 5.5h135q26 0 35.5 -5.5t9.5 -25.5v-25zM298 43q0 -43 -34 -43h-204q-20 0 -27 9t-7 35v579q0 25 7.5 34.5t26.5 9.5h198q19 0 25.5 -7.5t6.5 -31.5v-37q0 -25 -6.5 -33.5
t-25.5 -8.5h-98q-11 0 -14.5 -4t-3.5 -18v-93q0 -14 2.5 -17.5t15.5 -3.5h50q17 0 23 -7t6 -27v-51q0 -19 -6.5 -26t-22.5 -7h-50q-11 0 -14.5 -3t-3.5 -12v-140q0 -13 4 -17.5t17 -4.5h99q20 0 28 -9.5t8 -33.5v-32z" />
    <glyph glyph-name="emacron" unicode="&#x113;" horiz-adv-x="301" 
d="M263 723q0 -20 -9.5 -25.5t-35.5 -5.5h-135q-26 0 -35.5 5.5t-9.5 25.5v25q0 20 9.5 25.5t35.5 5.5h135q26 0 35.5 -5.5t9.5 -25.5v-25zM298 43q0 -43 -34 -43h-204q-20 0 -27 9t-7 35v579q0 25 7.5 34.5t26.5 9.5h198q19 0 25.5 -7.5t6.5 -31.5v-37q0 -25 -6.5 -33.5
t-25.5 -8.5h-98q-11 0 -14.5 -4t-3.5 -18v-93q0 -14 2.5 -17.5t15.5 -3.5h50q17 0 23 -7t6 -27v-51q0 -19 -6.5 -26t-22.5 -7h-50q-11 0 -14.5 -3t-3.5 -12v-140q0 -13 4 -17.5t17 -4.5h99q20 0 28 -9.5t8 -33.5v-32z" />
    <glyph glyph-name="Edotaccent" unicode="&#x116;" horiz-adv-x="301" 
d="M196 723q0 -18 -6.5 -24.5t-24.5 -6.5h-29q-18 0 -24.5 6.5t-6.5 24.5v38q0 18 6.5 24.5t24.5 6.5h29q18 0 24.5 -6.5t6.5 -24.5v-38zM298 43q0 -43 -34 -43h-204q-20 0 -27 9t-7 35v579q0 25 7.5 34.5t26.5 9.5h198q19 0 25.5 -7.5t6.5 -31.5v-37q0 -25 -6.5 -33.5
t-25.5 -8.5h-98q-11 0 -14.5 -4t-3.5 -18v-93q0 -14 2.5 -17.5t15.5 -3.5h50q17 0 23 -7t6 -27v-51q0 -19 -6.5 -26t-22.5 -7h-50q-11 0 -14.5 -3t-3.5 -12v-140q0 -13 4 -17.5t17 -4.5h99q20 0 28 -9.5t8 -33.5v-32z" />
    <glyph glyph-name="edotaccent" unicode="&#x117;" horiz-adv-x="301" 
d="M196 723q0 -18 -6.5 -24.5t-24.5 -6.5h-29q-18 0 -24.5 6.5t-6.5 24.5v38q0 18 6.5 24.5t24.5 6.5h29q18 0 24.5 -6.5t6.5 -24.5v-38zM298 43q0 -43 -34 -43h-204q-20 0 -27 9t-7 35v579q0 25 7.5 34.5t26.5 9.5h198q19 0 25.5 -7.5t6.5 -31.5v-37q0 -25 -6.5 -33.5
t-25.5 -8.5h-98q-11 0 -14.5 -4t-3.5 -18v-93q0 -14 2.5 -17.5t15.5 -3.5h50q17 0 23 -7t6 -27v-51q0 -19 -6.5 -26t-22.5 -7h-50q-11 0 -14.5 -3t-3.5 -12v-140q0 -13 4 -17.5t17 -4.5h99q20 0 28 -9.5t8 -33.5v-32z" />
    <glyph glyph-name="Eogonek" unicode="&#x118;" horiz-adv-x="301" 
d="M321 -82q0 -15 -14 -26q-36 -29 -70 -29q-61 0 -61 78q0 30 8 59h-124q-20 0 -27 9t-7 35v579q0 25 7.5 34.5t26.5 9.5h198q19 0 25.5 -7.5t6.5 -31.5v-37q0 -25 -6.5 -33.5t-25.5 -8.5h-98q-11 0 -14.5 -4t-3.5 -18v-93q0 -14 2.5 -17.5t15.5 -3.5h50q17 0 23 -7t6 -27
v-51q0 -19 -6.5 -26t-22.5 -7h-50q-11 0 -14.5 -3t-3.5 -12v-140q0 -13 4 -17.5t17 -4.5h99q20 0 28 -9.5t8 -33.5v-32q0 -43 -34 -43h-33q-4 -20 -4 -26q0 -27 24 -27q8 0 28 10q18 9 25 0q17 -20 17 -39z" />
    <glyph glyph-name="eogonek" unicode="&#x119;" horiz-adv-x="301" 
d="M321 -82q0 -15 -14 -26q-36 -29 -70 -29q-61 0 -61 78q0 30 8 59h-124q-20 0 -27 9t-7 35v579q0 25 7.5 34.5t26.5 9.5h198q19 0 25.5 -7.5t6.5 -31.5v-37q0 -25 -6.5 -33.5t-25.5 -8.5h-98q-11 0 -14.5 -4t-3.5 -18v-93q0 -14 2.5 -17.5t15.5 -3.5h50q17 0 23 -7t6 -27
v-51q0 -19 -6.5 -26t-22.5 -7h-50q-11 0 -14.5 -3t-3.5 -12v-140q0 -13 4 -17.5t17 -4.5h99q20 0 28 -9.5t8 -33.5v-32q0 -43 -34 -43h-33q-4 -20 -4 -26q0 -27 24 -27q8 0 28 10q18 9 25 0q17 -20 17 -39z" />
    <glyph glyph-name="Ecaron" unicode="&#x11a;" horiz-adv-x="301" 
d="M265 782q0 -6 -2 -9l-34 -66q-7 -15 -27 -15h-103q-19 0 -27 15l-34 66q-2 6 -2 9q0 7 9 7h54q15 0 23 -10l29 -38l28 38q8 10 23 10h54q9 0 9 -7zM298 43q0 -43 -34 -43h-204q-20 0 -27 9t-7 35v579q0 25 7.5 34.5t26.5 9.5h198q19 0 25.5 -7.5t6.5 -31.5v-37
q0 -25 -6.5 -33.5t-25.5 -8.5h-98q-11 0 -14.5 -4t-3.5 -18v-93q0 -14 2.5 -17.5t15.5 -3.5h50q17 0 23 -7t6 -27v-51q0 -19 -6.5 -26t-22.5 -7h-50q-11 0 -14.5 -3t-3.5 -12v-140q0 -13 4 -17.5t17 -4.5h99q20 0 28 -9.5t8 -33.5v-32z" />
    <glyph glyph-name="ecaron" unicode="&#x11b;" horiz-adv-x="301" 
d="M265 782q0 -6 -2 -9l-34 -66q-7 -15 -27 -15h-103q-19 0 -27 15l-34 66q-2 6 -2 9q0 7 9 7h54q15 0 23 -10l29 -38l28 38q8 10 23 10h54q9 0 9 -7zM298 43q0 -43 -34 -43h-204q-20 0 -27 9t-7 35v579q0 25 7.5 34.5t26.5 9.5h198q19 0 25.5 -7.5t6.5 -31.5v-37
q0 -25 -6.5 -33.5t-25.5 -8.5h-98q-11 0 -14.5 -4t-3.5 -18v-93q0 -14 2.5 -17.5t15.5 -3.5h50q17 0 23 -7t6 -27v-51q0 -19 -6.5 -26t-22.5 -7h-50q-11 0 -14.5 -3t-3.5 -12v-140q0 -13 4 -17.5t17 -4.5h99q20 0 28 -9.5t8 -33.5v-32z" />
    <glyph glyph-name="Gbreve" unicode="&#x11e;" 
d="M341 196q0 -53 -5 -85t-20.5 -60t-47 -40.5t-81.5 -12.5q-28 0 -50.5 4t-40 12t-30 20t-21 28.5t-14 37t-8.5 45t-4.5 53.5t-1.5 62v71q1 190 14 245q18 79 77 89q11 2 23 2h136q20 0 27 -8t7 -34v-32q0 -25 -6.5 -34.5t-24.5 -9.5h-72q-36 0 -46 -12q-15 -19 -16 -130
v-79v-146q0 -64 53 -64q21 0 34.5 14t13.5 39v98q0 26 -12 26h-29q-12 0 -15 6.5t-3 24.5v46q0 23 7 32t30 9h95q19 0 25 -10t6 -34v-173zM304 790q0 -39 -29.5 -68t-96.5 -29t-97 29t-30 68q0 13 11 13h27q10 0 13 -13q4 -14 19.5 -19.5t56.5 -5.5t57 6t18 19q5 13 12 13
h28q11 0 11 -13z" />
    <glyph glyph-name="gbreve" unicode="&#x11f;" 
d="M341 196q0 -53 -5 -85t-20.5 -60t-47 -40.5t-81.5 -12.5q-28 0 -50.5 4t-40 12t-30 20t-21 28.5t-14 37t-8.5 45t-4.5 53.5t-1.5 62v71q1 190 14 245q18 79 77 89q11 2 23 2h136q20 0 27 -8t7 -34v-32q0 -25 -6.5 -34.5t-24.5 -9.5h-72q-36 0 -46 -12q-15 -19 -16 -130
v-79v-146q0 -64 53 -64q21 0 34.5 14t13.5 39v98q0 26 -12 26h-29q-12 0 -15 6.5t-3 24.5v46q0 23 7 32t30 9h95q19 0 25 -10t6 -34v-173zM304 790q0 -39 -29.5 -68t-96.5 -29t-97 29t-30 68q0 13 11 13h27q10 0 13 -13q4 -14 19.5 -19.5t56.5 -5.5t57 6t18 19q5 13 12 13
h28q11 0 11 -13z" />
    <glyph glyph-name="Gcommaaccent" unicode="&#x122;" 
d="M341 196q0 -53 -5 -85t-20.5 -60t-47 -40.5t-81.5 -12.5q-28 0 -50.5 4t-40 12t-30 20t-21 28.5t-14 37t-8.5 45t-4.5 53.5t-1.5 62v71q1 190 14 245q18 79 77 89q11 2 23 2h136q20 0 27 -8t7 -34v-32q0 -25 -6.5 -34.5t-24.5 -9.5h-72q-36 0 -46 -12q-15 -19 -16 -130
v-79v-146q0 -64 53 -64q21 0 34.5 14t13.5 39v98q0 26 -12 26h-29q-12 0 -15 6.5t-3 24.5v46q0 23 7 32t30 9h95q19 0 25 -10t6 -34v-173zM230 -106q0 -25 -3 -35l-24 -76q-7 -19 -22 -19h-37q-9 0 -11.5 3.5t0.5 15.5l21 57q7 18 -4 18h-7q-10 0 -14 7.5t-4 29.5v37
q0 25 7.5 34.5t25.5 9.5h41q17 0 24 -9t7 -32v-41z" />
    <glyph glyph-name="gcommaaccent" unicode="&#x123;" 
d="M341 196q0 -53 -5 -85t-20.5 -60t-47 -40.5t-81.5 -12.5q-28 0 -50.5 4t-40 12t-30 20t-21 28.5t-14 37t-8.5 45t-4.5 53.5t-1.5 62v71q1 190 14 245q18 79 77 89q11 2 23 2h136q20 0 27 -8t7 -34v-32q0 -25 -6.5 -34.5t-24.5 -9.5h-72q-36 0 -46 -12q-15 -19 -16 -130
v-79v-146q0 -64 53 -64q21 0 34.5 14t13.5 39v98q0 26 -12 26h-29q-12 0 -15 6.5t-3 24.5v46q0 23 7 32t30 9h95q19 0 25 -10t6 -34v-173zM230 -106q0 -25 -3 -35l-24 -76q-7 -19 -22 -19h-37q-9 0 -11.5 3.5t0.5 15.5l21 57q7 18 -4 18h-7q-10 0 -14 7.5t-4 29.5v37
q0 25 7.5 34.5t25.5 9.5h41q17 0 24 -9t7 -32v-41z" />
    <glyph glyph-name="Imacron" unicode="&#x12a;" horiz-adv-x="170" 
d="M198 723q0 -20 -9.5 -25.5t-35.5 -5.5h-135q-26 0 -36 5.5t-10 25.5v25q0 20 9.5 25.5t35.5 5.5h135q26 0 36 -5.5t10 -25.5v-25zM144 42q0 -26 -7 -34t-26 -8h-50q-21 0 -28 8.5t-7 35.5v578q0 26 7 35.5t26 9.5h54q17 0 24 -10t7 -35v-580z" />
    <glyph glyph-name="imacron" unicode="&#x12b;" horiz-adv-x="170" 
d="M198 723q0 -20 -9.5 -25.5t-35.5 -5.5h-135q-26 0 -36 5.5t-10 25.5v25q0 20 9.5 25.5t35.5 5.5h135q26 0 36 -5.5t10 -25.5v-25zM144 42q0 -26 -7 -34t-26 -8h-50q-21 0 -28 8.5t-7 35.5v578q0 26 7 35.5t26 9.5h54q17 0 24 -10t7 -35v-580z" />
    <glyph glyph-name="Iogonek" unicode="&#x12e;" horiz-adv-x="170" 
d="M199 -82q0 -15 -14 -26q-36 -29 -70 -29q-61 0 -61 78q0 34 7 59q-21 0 -28 8.5t-7 35.5v578q0 26 7 35.5t26 9.5h54q17 0 24 -10t7 -35v-580q0 -26 -7 -34t-26 -8h-2q-4 -13 -4 -26q0 -27 24 -27q8 0 28 10q17 9 25 0q17 -23 17 -39z" />
    <glyph glyph-name="iogonek" unicode="&#x12f;" horiz-adv-x="170" 
d="M199 -82q0 -15 -14 -26q-36 -29 -70 -29q-61 0 -61 78q0 34 7 59q-21 0 -28 8.5t-7 35.5v578q0 26 7 35.5t26 9.5h54q17 0 24 -10t7 -35v-580q0 -26 -7 -34t-26 -8h-2q-4 -13 -4 -26q0 -27 24 -27q8 0 28 10q17 9 25 0q17 -23 17 -39z" />
    <glyph glyph-name="Idotaccent" unicode="&#x130;" horiz-adv-x="170" 
d="M131 723q0 -18 -6.5 -24.5t-24.5 -6.5h-29q-18 0 -24.5 6.5t-6.5 24.5v38q0 18 6.5 24.5t24.5 6.5h29q18 0 24.5 -6.5t6.5 -24.5v-38zM144 42q0 -26 -7 -34t-26 -8h-50q-21 0 -28 8.5t-7 35.5v578q0 26 7 35.5t26 9.5h54q17 0 24 -10t7 -35v-580z" />
    <glyph glyph-name="dotlessi" unicode="&#x131;" horiz-adv-x="170" 
d="M131 723q0 -18 -6.5 -24.5t-24.5 -6.5h-29q-18 0 -24.5 6.5t-6.5 24.5v38q0 18 6.5 24.5t24.5 6.5h29q18 0 24.5 -6.5t6.5 -24.5v-38zM144 42q0 -26 -7 -34t-26 -8h-50q-21 0 -28 8.5t-7 35.5v578q0 26 7 35.5t26 9.5h54q17 0 24 -10t7 -35v-580z" />
    <glyph glyph-name="Kcommaaccent" unicode="&#x136;" horiz-adv-x="375" 
d="M372 655q0 -6 -3 -12l-99 -192q-5 -9 -6 -19q-1 -6 3 -21l101 -381q4 -20 1 -25t-17 -5h-82q-13 0 -18.5 6t-9.5 23l-47 222q-7 31 -12 31q-6 0 -10 -5.5t-20 -35.5q-9 -17 -9 -56v-143q0 -26 -7 -34t-26 -8h-50q-21 0 -28 8.5t-7 35.5v578q0 26 7 35.5t26 9.5h54
q17 0 24 -10t7 -35v-149q0 -10 4 -11q3 -1 5.5 1.5t5.5 9.5l74 156q11 24 17 31t21 7h89q12 0 12 -12zM240 -106q0 -22 -4 -35l-24 -76q-5 -19 -22 -19h-37q-10 0 -12 3.5t2 15.5l21 57q7 18 -5 18h-7q-10 0 -13.5 7.5t-3.5 29.5v37q0 25 7.5 34.5t25.5 9.5h41q17 0 24 -9
t7 -32v-41z" />
    <glyph glyph-name="kcommaaccent" unicode="&#x137;" horiz-adv-x="375" 
d="M372 655q0 -6 -3 -12l-99 -192q-5 -9 -6 -19q-1 -6 3 -21l101 -381q4 -20 1 -25t-17 -5h-82q-13 0 -18.5 6t-9.5 23l-47 222q-7 31 -12 31q-6 0 -10 -5.5t-20 -35.5q-9 -17 -9 -56v-143q0 -26 -7 -34t-26 -8h-50q-21 0 -28 8.5t-7 35.5v578q0 26 7 35.5t26 9.5h54
q17 0 24 -10t7 -35v-149q0 -10 4 -11q3 -1 5.5 1.5t5.5 9.5l74 156q11 24 17 31t21 7h89q12 0 12 -12zM240 -106q0 -22 -4 -35l-24 -76q-5 -19 -22 -19h-37q-10 0 -12 3.5t2 15.5l21 57q7 18 -5 18h-7q-10 0 -13.5 7.5t-3.5 29.5v37q0 25 7.5 34.5t25.5 9.5h41q17 0 24 -9
t7 -32v-41z" />
    <glyph glyph-name="Lacute" unicode="&#x139;" horiz-adv-x="278" 
d="M218 776q0 -7 -10 -16l-69 -59q-10 -9 -22 -9h-62q-11 0 -11 9q0 7 5 13l45 59q11 16 22 16h88q14 0 14 -13zM275 43q0 -23 -8.5 -33t-28.5 -10h-179q-20 0 -26.5 8.5t-6.5 35.5v580q0 23 7.5 33t25.5 10h53q19 0 25.5 -9t6.5 -34v-485q0 -21 16 -21h81q19 0 26.5 -9
t7.5 -33v-33z" />
    <glyph glyph-name="lacute" unicode="&#x13a;" horiz-adv-x="278" 
d="M218 776q0 -7 -10 -16l-69 -59q-10 -9 -22 -9h-62q-11 0 -11 9q0 7 5 13l45 59q11 16 22 16h88q14 0 14 -13zM275 43q0 -23 -8.5 -33t-28.5 -10h-179q-20 0 -26.5 8.5t-6.5 35.5v580q0 23 7.5 33t25.5 10h53q19 0 25.5 -9t6.5 -34v-485q0 -21 16 -21h81q19 0 26.5 -9
t7.5 -33v-33z" />
    <glyph glyph-name="Lcommaaccent" unicode="&#x13b;" horiz-adv-x="278" 
d="M275 43q0 -23 -8.5 -33t-28.5 -10h-179q-20 0 -26.5 8.5t-6.5 35.5v580q0 23 7.5 33t25.5 10h53q19 0 25.5 -9t6.5 -34v-485q0 -21 16 -21h81q19 0 26.5 -9t7.5 -33v-33zM191 -106q0 -25 -3 -35l-24 -76q-7 -19 -22 -19h-37q-9 0 -11.5 3.5t0.5 15.5l21 57q7 18 -4 18h-7
q-10 0 -14 7.5t-4 29.5v37q0 25 7.5 34.5t25.5 9.5h41q17 0 24 -9t7 -32v-41z" />
    <glyph glyph-name="lcommaaccent" unicode="&#x13c;" horiz-adv-x="278" 
d="M275 43q0 -23 -8.5 -33t-28.5 -10h-179q-20 0 -26.5 8.5t-6.5 35.5v580q0 23 7.5 33t25.5 10h53q19 0 25.5 -9t6.5 -34v-485q0 -21 16 -21h81q19 0 26.5 -9t7.5 -33v-33zM191 -106q0 -25 -3 -35l-24 -76q-7 -19 -22 -19h-37q-9 0 -11.5 3.5t0.5 15.5l21 57q7 18 -4 18h-7
q-10 0 -14 7.5t-4 29.5v37q0 25 7.5 34.5t25.5 9.5h41q17 0 24 -9t7 -32v-41z" />
    <glyph glyph-name="Lcaron" unicode="&#x13d;" horiz-adv-x="278" 
d="M275 585q0 -22 -4 -35l-25 -76q-7 -19 -22 -19h-36q-10 0 -12 3t2 16l20 57q5 18 -5 18h-7q-10 0 -13 7t-3 30v37q0 25 7 34.5t26 9.5h41q17 0 24 -9t7 -32v-41zM275 43q0 -23 -8.5 -33t-28.5 -10h-179q-20 0 -26.5 8.5t-6.5 35.5v580q0 23 7.5 33t25.5 10h53
q19 0 25.5 -9t6.5 -34v-485q0 -21 16 -21h81q19 0 26.5 -9t7.5 -33v-33z" />
    <glyph glyph-name="lcaron" unicode="&#x13e;" horiz-adv-x="278" 
d="M275 585q0 -22 -4 -35l-25 -76q-7 -19 -22 -19h-36q-10 0 -12 3t2 16l20 57q5 18 -5 18h-7q-10 0 -13 7t-3 30v37q0 25 7 34.5t26 9.5h41q17 0 24 -9t7 -32v-41zM275 43q0 -23 -8.5 -33t-28.5 -10h-179q-20 0 -26.5 8.5t-6.5 35.5v580q0 23 7.5 33t25.5 10h53
q19 0 25.5 -9t6.5 -34v-485q0 -21 16 -21h81q19 0 26.5 -9t7.5 -33v-33z" />
    <glyph glyph-name="Lslash" unicode="&#x141;" horiz-adv-x="294" 
d="M291 43q0 -23 -8.5 -33t-28.5 -10h-179q-20 0 -26.5 8.5t-6.5 35.5v174l-25 -33q-7 -10 -13.5 -8t-6.5 13v61q0 18 19 42l26 33v298q0 23 7.5 33t25.5 10h53q19 0 25.5 -9t6.5 -34v-144l45 59q7 10 13.5 8t6.5 -13v-62q0 -18 -19 -42l-46 -58v-233q0 -21 16 -21h81
q19 0 26.5 -9t7.5 -33v-33z" />
    <glyph glyph-name="lslash" unicode="&#x142;" horiz-adv-x="294" 
d="M291 43q0 -23 -8.5 -33t-28.5 -10h-179q-20 0 -26.5 8.5t-6.5 35.5v174l-25 -33q-7 -10 -13.5 -8t-6.5 13v61q0 18 19 42l26 33v298q0 23 7.5 33t25.5 10h53q19 0 25.5 -9t6.5 -34v-144l45 59q7 10 13.5 8t6.5 -13v-62q0 -18 -19 -42l-46 -58v-233q0 -21 16 -21h81
q19 0 26.5 -9t7.5 -33v-33z" />
    <glyph glyph-name="Nacute" unicode="&#x143;" horiz-adv-x="391" 
d="M299 776q0 -7 -10 -16l-69 -59q-12 -9 -22 -9h-62q-12 0 -12 9q0 5 5 13l45 59q13 16 22 16h88q15 0 15 -13zM365 45q0 -26 -7 -35.5t-28 -9.5h-46q-19 0 -25.5 5.5t-13.5 25.5l-84 249q-5 14 -11 14q-5 0 -5 -19v-231q0 -24 -6.5 -34t-24.5 -10h-52q-19 0 -27.5 9
t-8.5 36v578q0 26 7 35t28 9h46q18 0 25 -5t14 -26l84 -248q5 -14 11 -14q5 0 5 19v230q0 24 6.5 34t24.5 10h52q19 0 27.5 -9t8.5 -36v-577z" />
    <glyph glyph-name="nacute" unicode="&#x144;" horiz-adv-x="391" 
d="M299 776q0 -6 -10 -16l-69 -59q-12 -9 -22 -9h-62q-12 0 -12 9q0 5 5 13l45 59q13 16 22 16h88q15 0 15 -13zM365 45q0 -26 -7 -35.5t-28 -9.5h-46q-19 0 -25.5 5.5t-13.5 25.5l-84 249q-5 14 -11 14q-5 0 -5 -19v-231q0 -24 -6.5 -34t-24.5 -10h-52q-19 0 -27.5 9
t-8.5 36v578q0 26 7 35t28 9h46q18 0 25 -5t14 -26l84 -248q5 -14 11 -14q5 0 5 19v230q0 24 6.5 34t24.5 10h52q19 0 27.5 -9t8.5 -36v-577z" />
    <glyph glyph-name="Ncommaaccent" unicode="&#x145;" horiz-adv-x="391" 
d="M365 45q0 -26 -7 -35.5t-28 -9.5h-46q-18 0 -25 5t-14 26l-84 249q-5 14 -11 14q-5 0 -5 -19v-231q0 -24 -6.5 -34t-24.5 -10h-52q-19 0 -27.5 9t-8.5 36v578q0 26 7 35t28 9h46q18 0 25 -5t14 -26l84 -248q5 -14 11 -14q5 0 5 19v230q0 24 6.5 34t24.5 10h52
q19 0 27.5 -9t8.5 -36v-577zM248 -106q0 -22 -4 -35l-24 -76q-5 -19 -22 -19h-37q-10 0 -12 3.5t2 15.5l21 57q7 18 -5 18h-7q-10 0 -13.5 7.5t-3.5 29.5v37q0 25 7.5 34.5t25.5 9.5h41q17 0 24 -9t7 -32v-41z" />
    <glyph glyph-name="ncommaaccent" unicode="&#x146;" horiz-adv-x="391" 
d="M365 45q0 -26 -7 -35.5t-28 -9.5h-46q-18 0 -25 5t-14 26l-84 249q-5 14 -11 14q-5 0 -5 -19v-231q0 -24 -6.5 -34t-24.5 -10h-52q-19 0 -27.5 9t-8.5 36v578q0 26 7 35t28 9h46q18 0 25 -5t14 -26l84 -248q5 -14 11 -14q5 0 5 19v230q0 24 6.5 34t24.5 10h52
q19 0 27.5 -9t8.5 -36v-577zM248 -106q0 -22 -4 -35l-24 -76q-5 -19 -22 -19h-37q-10 0 -12 3.5t2 15.5l21 57q7 18 -5 18h-7q-10 0 -13.5 7.5t-3.5 29.5v37q0 25 7.5 34.5t25.5 9.5h41q17 0 24 -9t7 -32v-41z" />
    <glyph glyph-name="Ncaron" unicode="&#x147;" horiz-adv-x="391" 
d="M310 782q0 -6 -2 -9l-34 -66q-8 -15 -27 -15h-103q-20 0 -27 15l-34 66q-2 6 -2 9q0 7 9 7h54q15 0 23 -10l29 -38l28 38q8 10 23 10h54q9 0 9 -7zM365 45q0 -26 -7 -35.5t-28 -9.5h-46q-18 0 -25 5t-14 26l-84 249q-5 14 -11 14q-5 0 -5 -19v-231q0 -24 -6.5 -34
t-24.5 -10h-52q-19 0 -27.5 9t-8.5 36v578q0 26 7 35t28 9h46q18 0 25 -5t14 -26l84 -248q5 -14 11 -14q5 0 5 19v230q0 24 6.5 34t24.5 10h52q19 0 27.5 -9t8.5 -36v-577z" />
    <glyph glyph-name="ncaron" unicode="&#x148;" horiz-adv-x="391" 
d="M310 782q0 -6 -2 -9l-34 -66q-8 -15 -27 -15h-103q-20 0 -27 15l-34 66q-2 6 -2 9q0 7 9 7h54q15 0 23 -10l29 -38l28 38q8 10 23 10h54q9 0 9 -7zM365 45q0 -26 -7 -35.5t-28 -9.5h-46q-18 0 -25 5t-14 26l-84 249q-5 14 -11 14q-5 0 -5 -19v-231q0 -24 -6.5 -34
t-24.5 -10h-52q-19 0 -27.5 9t-8.5 36v578q0 26 7 35t28 9h46q18 0 25 -5t14 -26l84 -248q5 -14 11 -14q5 0 5 19v230q0 24 6.5 34t24.5 10h52q19 0 27.5 -9t8.5 -36v-577z" />
    <glyph glyph-name="Omacron" unicode="&#x14c;" 
d="M291 723q0 -20 -9.5 -25.5t-35.5 -5.5h-135q-26 0 -36 5.5t-10 25.5v25q0 20 9.5 25.5t35.5 5.5h135q26 0 36 -5.5t10 -25.5v-25zM339 335v-65t-1.5 -58t-4.5 -55.5t-8.5 -46.5t-13.5 -42t-20 -31.5t-28 -25.5t-37.5 -14t-47.5 -6q-27 0 -48.5 6t-37.5 14t-28 26
t-20 31.5t-13.5 42t-8 46t-4 55.5t-1.5 58v65v65t1.5 57.5t4 54.5t8 45.5t13.5 41.5t20 30.5t28 25t37.5 13.5t48.5 6q107 0 139 -90q22 -59 22 -222v-27zM222 335q-1 142 -7 177.5t-37 35.5t-37.5 -36.5t-6.5 -176.5q1 -143 7 -180t37 -37t37.5 38t6.5 179z" />
    <glyph glyph-name="omacron" unicode="&#x14d;" 
d="M291 723q0 -20 -9.5 -25.5t-35.5 -5.5h-135q-26 0 -36 5.5t-10 25.5v25q0 20 9.5 25.5t35.5 5.5h135q26 0 36 -5.5t10 -25.5v-25zM339 335v-65t-1.5 -58t-4.5 -55.5t-8.5 -46.5t-13.5 -42t-20 -31.5t-28 -25.5t-37.5 -14t-47.5 -6q-27 0 -48.5 6t-37.5 14t-28 26
t-20 31.5t-13.5 42t-8 46t-4 55.5t-1.5 58v65v65t1.5 57.5t4 54.5t8 45.5t13.5 41.5t20 30.5t28 25t37.5 13.5t48.5 6q107 0 139 -90q22 -59 22 -222v-27zM222 335q-1 142 -7 177.5t-37 35.5t-37.5 -36.5t-6.5 -176.5q1 -143 7 -180t37 -37t37.5 38t6.5 179z" />
    <glyph glyph-name="Ohungarumlaut" unicode="&#x150;" 
d="M309 769l-54 -62l-4.5 -4.5t-3 -3.5t-2.5 -2.5t-2.5 -2t-2 -1.5t-3 -1h-3.5h-37q-5 0 -7.5 6t1.5 16l33 54q3 4 5.5 8.5t3.5 6.5t2.5 3.5t3.5 2t5 0.5h57q8 0 11 -6.5t-3 -13.5zM206 769l-54 -62q-2 -2 -5 -6t-4 -5t-3 -2t-4 -1.5t-5 -0.5h-36q-7 0 -10 6t2 16l34 54
l4.5 7l3.5 5.5t3 3.5l3 3t3 1.5t5 0.5h55q8 0 11 -6.5t-3 -13.5zM339 335v-65t-1.5 -58t-4.5 -55.5t-8.5 -46.5t-13.5 -42t-20 -31.5t-28 -25.5t-37.5 -14t-47.5 -6q-27 0 -48.5 6t-37.5 14t-28 26t-20 31.5t-13.5 42t-8 46t-4 55.5t-1.5 58v65v65t1.5 57.5t4 54.5t8 45.5
t13.5 41.5t20 30.5t28 25t37.5 13.5t48.5 6q107 0 139 -90q22 -59 22 -222v-27zM222 335q-1 142 -7 177.5t-37 35.5t-37.5 -36.5t-6.5 -176.5q1 -143 7 -180t37 -37t37.5 38t6.5 179z" />
    <glyph glyph-name="ohungarumlaut" unicode="&#x151;" 
d="M309 769l-54 -62l-4.5 -4.5t-3 -3.5t-2.5 -2.5t-2.5 -2t-2 -1.5t-3 -1h-3.5h-37q-5 0 -7.5 6t1.5 16l33 54q3 4 5.5 8.5t3.5 6.5t2.5 3.5t3.5 2t5 0.5h57q8 0 11 -6.5t-3 -13.5zM206 769l-54 -62q-2 -2 -5 -6t-4 -5t-3 -2t-4 -1.5t-5 -0.5h-36q-7 0 -10 6t2 16l34 54
l4.5 7l3.5 5.5t3 3.5l3 3t3 1.5t5 0.5h55q8 0 11 -6.5t-3 -13.5zM339 335v-65t-1.5 -58t-4.5 -55.5t-8.5 -46.5t-13.5 -42t-20 -31.5t-28 -25.5t-37.5 -14t-47.5 -6q-27 0 -48.5 6t-37.5 14t-28 26t-20 31.5t-13.5 42t-8 46t-4 55.5t-1.5 58v65v65t1.5 57.5t4 54.5t8 45.5
t13.5 41.5t20 30.5t28 25t37.5 13.5t48.5 6q107 0 139 -90q22 -59 22 -222v-27zM222 335q-1 142 -7 177.5t-37 35.5t-37.5 -36.5t-6.5 -176.5q1 -143 7 -180t37 -37t37.5 38t6.5 179z" />
    <glyph glyph-name="OE" unicode="&#x152;" horiz-adv-x="503" 
d="M498 43q0 -43 -34 -43h-195q-15 0 -23 5q-31 -14 -73 -14q-27 0 -48.5 6t-37.5 14t-28 26t-20 31.5t-13.5 42t-8 46t-4 55.5t-1.5 58v65v65t1.5 57.5t4 54.5t8 45.5t13.5 41.5t20 30.5t28 25t37.5 13.5t48.5 6q42 0 73 -14q7 7 23 7h189q19 0 25.5 -7.5t6.5 -31.5v-37
q0 -25 -6.5 -33.5t-25.5 -8.5h-98q-11 0 -14.5 -4t-3.5 -18v-93q0 -14 2.5 -17.5t15.5 -3.5h50q17 0 23 -7t6 -27v-51q0 -19 -6.5 -26t-22.5 -7h-50q-11 0 -14.5 -3t-3.5 -12v-140q0 -13 4 -17.5t17 -4.5h99q20 0 28 -9.5t8 -33.5v-32zM217 335q-1 142 -7 177.5t-37 35.5
t-38 -37t-7 -176q0 -140 7 -178.5t38 -38.5t37.5 38t6.5 179z" />
    <glyph glyph-name="oe" unicode="&#x153;" horiz-adv-x="503" 
d="M498 43q0 -43 -34 -43h-195q-15 0 -23 5q-31 -14 -73 -14q-27 0 -48.5 6t-37.5 14t-28 26t-20 31.5t-13.5 42t-8 46t-4 55.5t-1.5 58v65v65t1.5 57.5t4 54.5t8 45.5t13.5 41.5t20 30.5t28 25t37.5 13.5t48.5 6q42 0 73 -14q7 7 23 7h189q19 0 25.5 -7.5t6.5 -31.5v-37
q0 -25 -6.5 -33.5t-25.5 -8.5h-98q-11 0 -14.5 -4t-3.5 -18v-93q0 -14 2.5 -17.5t15.5 -3.5h50q17 0 23 -7t6 -27v-51q0 -19 -6.5 -26t-22.5 -7h-50q-11 0 -14.5 -3t-3.5 -12v-140q0 -13 4 -17.5t17 -4.5h99q20 0 28 -9.5t8 -33.5v-32zM217 335q-1 142 -7 177.5t-37 35.5
t-38 -37t-7 -176q0 -140 7 -178.5t38 -38.5t37.5 38t6.5 179z" />
    <glyph glyph-name="Racute" unicode="&#x154;" horiz-adv-x="351" 
d="M277 776q0 -7 -10 -16l-69 -59q-12 -9 -22 -9h-62q-12 0 -12 9q0 5 5 13l45 59q13 16 22 16h88q15 0 15 -13zM346 14q0 -14 -18 -14h-78q-14 0 -19 5.5t-8 23.5l-41 240q-2 9 -12 9h-14q-11 0 -11 -9v-227q0 -23 -7.5 -32.5t-25.5 -9.5h-54q-19 0 -25.5 9t-6.5 34v579
q0 26 7.5 35.5t26.5 9.5h143q137 0 137 -206q0 -56 -12.5 -90.5t-41.5 -59.5l58 -284q2 -10 2 -13zM224 476q0 73 -34 73h-32q-13 0 -13 -14v-121q0 -18 10 -18h33q36 0 36 80z" />
    <glyph glyph-name="racute" unicode="&#x155;" horiz-adv-x="351" 
d="M277 776q0 -7 -10 -16l-69 -59q-12 -9 -22 -9h-62q-12 0 -12 9q0 5 5 13l45 59q13 16 22 16h88q15 0 15 -13zM346 14q0 -14 -18 -14h-78q-14 0 -19 5.5t-8 23.5l-41 240q-2 9 -12 9h-14q-11 0 -11 -9v-227q0 -23 -7.5 -32.5t-25.5 -9.5h-54q-19 0 -25.5 9t-6.5 34v579
q0 26 7.5 35.5t26.5 9.5h143q137 0 137 -206q0 -56 -12.5 -90.5t-41.5 -59.5l58 -284q2 -10 2 -13zM224 476q0 73 -34 73h-32q-13 0 -13 -14v-121q0 -18 10 -18h33q36 0 36 80z" />
    <glyph glyph-name="Rcommaaccent" unicode="&#x156;" horiz-adv-x="351" 
d="M346 14q0 -14 -18 -14h-78q-14 0 -19 5.5t-8 23.5l-41 240q-2 9 -12 9h-14q-11 0 -11 -9v-227q0 -23 -7.5 -32.5t-25.5 -9.5h-54q-19 0 -25.5 9t-6.5 34v579q0 26 7.5 35.5t26.5 9.5h143q137 0 137 -206q0 -56 -12.5 -90.5t-41.5 -59.5l58 -284q2 -10 2 -13zM228 -106
q0 -22 -4 -35l-24 -76q-5 -19 -22 -19h-37q-10 0 -12 3.5t2 15.5l21 57q7 18 -5 18h-7q-10 0 -13.5 7.5t-3.5 29.5v37q0 25 7.5 34.5t25.5 9.5h41q17 0 24 -9t7 -32v-41zM224 476q0 73 -34 73h-32q-13 0 -13 -14v-121q0 -18 10 -18h33q36 0 36 80z" />
    <glyph glyph-name="rcommaaccent" unicode="&#x157;" horiz-adv-x="351" 
d="M346 14q0 -14 -18 -14h-78q-14 0 -19 5.5t-8 23.5l-41 240q-2 9 -12 9h-14q-11 0 -11 -9v-227q0 -23 -7.5 -32.5t-25.5 -9.5h-54q-19 0 -25.5 9t-6.5 34v579q0 26 7.5 35.5t26.5 9.5h143q137 0 137 -206q0 -56 -12.5 -90.5t-41.5 -59.5l58 -284q2 -10 2 -13zM228 -106
q0 -22 -4 -35l-24 -76q-5 -19 -22 -19h-37q-10 0 -12 3.5t2 15.5l21 57q7 18 -5 18h-7q-10 0 -13.5 7.5t-3.5 29.5v37q0 25 7.5 34.5t25.5 9.5h41q17 0 24 -9t7 -32v-41zM224 476q0 73 -34 73h-32q-13 0 -13 -14v-121q0 -18 10 -18h33q36 0 36 80z" />
    <glyph glyph-name="Rcaron" unicode="&#x158;" horiz-adv-x="351" 
d="M290 782q0 -6 -2 -9l-34 -66q-8 -15 -27 -15h-103q-20 0 -27 15l-34 66q-2 6 -2 9q0 7 9 7h54q15 0 23 -10l29 -38l28 38q8 10 23 10h54q9 0 9 -7zM346 14q0 -14 -18 -14h-78q-14 0 -19 5.5t-8 23.5l-41 240q-2 9 -12 9h-14q-11 0 -11 -9v-227q0 -23 -7.5 -32.5
t-25.5 -9.5h-54q-19 0 -25.5 9t-6.5 34v579q0 26 7.5 35.5t26.5 9.5h143q137 0 137 -206q0 -56 -12.5 -90.5t-41.5 -59.5l58 -284q2 -10 2 -13zM224 476q0 73 -34 73h-32q-13 0 -13 -14v-121q0 -18 10 -18h33q36 0 36 80z" />
    <glyph glyph-name="rcaron" unicode="&#x159;" horiz-adv-x="351" 
d="M290 782q0 -6 -2 -9l-34 -66q-8 -15 -27 -15h-103q-20 0 -27 15l-34 66q-2 6 -2 9q0 7 9 7h54q15 0 23 -10l29 -38l28 38q8 10 23 10h54q9 0 9 -7zM346 14q0 -14 -18 -14h-78q-14 0 -19 5.5t-8 23.5l-41 240q-2 9 -12 9h-14q-11 0 -11 -9v-227q0 -23 -7.5 -32.5
t-25.5 -9.5h-54q-19 0 -25.5 9t-6.5 34v579q0 26 7.5 35.5t26.5 9.5h143q137 0 137 -206q0 -56 -12.5 -90.5t-41.5 -59.5l58 -284q2 -10 2 -13zM224 476q0 73 -34 73h-32q-13 0 -13 -14v-121q0 -18 10 -18h33q36 0 36 80z" />
    <glyph glyph-name="Sacute" unicode="&#x15a;" horiz-adv-x="302" 
d="M256 776q0 -7 -10 -16l-69 -59q-10 -9 -22 -9h-62q-11 0 -11 9q0 7 5 13l45 59q11 16 22 16h88q14 0 14 -13zM297 107q0 -107 -107 -107h-149q-20 0 -26.5 8t-6.5 33v35q0 26 6 34t26 8h103q20 0 25.5 16.5t-4.5 32.5l-113 213q-46 87 -46 166q0 66 30 93.5t94 27.5h114
q28 0 28 -36v-44q0 -21 -7 -29.5t-24 -8.5h-89q-24 0 -29.5 -18.5t7.5 -40.5l107 -197q38 -70 49.5 -107.5t11.5 -78.5z" />
    <glyph glyph-name="sacute" unicode="&#x15b;" horiz-adv-x="302" 
d="M256 776q0 -7 -10 -16l-69 -59q-10 -9 -22 -9h-62q-11 0 -11 9q0 7 5 13l45 59q11 16 22 16h88q14 0 14 -13zM297 107q0 -107 -107 -107h-149q-20 0 -26.5 8t-6.5 33v35q0 26 6 34t26 8h103q20 0 25.5 16.5t-4.5 32.5l-113 213q-46 87 -46 166q0 66 30 93.5t94 27.5h114
q28 0 28 -36v-44q0 -21 -7 -29.5t-24 -8.5h-89q-24 0 -29.5 -18.5t7.5 -40.5l107 -197q38 -70 49.5 -107.5t11.5 -78.5z" />
    <glyph glyph-name="Scedilla" unicode="&#x15e;" horiz-adv-x="302" 
d="M141 0h-100q-20 0 -26.5 8t-6.5 33v35q0 26 6 34t26 8h103q27 0 27 26q0 12 -6 23l-113 213q-46 87 -46 166q0 66 30 93.5t94 27.5h114q28 0 28 -36v-44q0 -21 -7 -29.5t-24 -8.5h-89q-31 0 -31 -29q0 -14 9 -30l107 -197q38 -70 49.5 -107.5t11.5 -78.5
q0 -107 -107 -107q7 -25 7 -55q0 -38 -14 -60t-38 -22h-36q-22 0 -28.5 7t-6.5 33v22q0 18 8 24.5t31 6.5h21q13 0 13 15q0 7 -6 29z" />
    <glyph glyph-name="scedilla" unicode="&#x15f;" horiz-adv-x="302" 
d="M141 0h-100q-20 0 -26.5 8t-6.5 33v35q0 26 6 34t26 8h103q27 0 27 26q0 12 -6 23l-113 213q-46 87 -46 166q0 66 30 93.5t94 27.5h114q28 0 28 -36v-44q0 -21 -7 -29.5t-24 -8.5h-89q-31 0 -31 -29q0 -14 9 -30l107 -197q38 -70 49.5 -107.5t11.5 -78.5
q0 -107 -107 -107q7 -25 7 -55q0 -38 -14 -60t-38 -22h-36q-22 0 -28.5 7t-6.5 33v22q0 18 8 24.5t31 6.5h21q13 0 13 15q0 7 -6 29z" />
    <glyph glyph-name="Scaron" unicode="&#x160;" horiz-adv-x="302" 
d="M297 107q0 -107 -107 -107h-149q-20 0 -26.5 8t-6.5 33v35q0 26 6 34t26 8h103q20 0 25.5 16.5t-4.5 32.5l-113 213q-46 87 -46 166q0 66 30 93.5t94 27.5h114q28 0 28 -36v-44q0 -21 -7 -29.5t-24 -8.5h-89q-24 0 -29.5 -18.5t7.5 -40.5l107 -197q38 -70 49.5 -107.5
t11.5 -78.5zM262 782q0 -6 -2 -9l-34 -66q-8 -15 -27 -15h-103q-20 0 -27 15l-34 66q-2 6 -2 9q0 7 9 7h54q15 0 23 -10l29 -38l28 38q8 10 23 10h54q9 0 9 -7z" />
    <glyph glyph-name="scaron" unicode="&#x161;" horiz-adv-x="302" 
d="M297 107q0 -107 -107 -107h-149q-20 0 -26.5 8t-6.5 33v35q0 26 6 34t26 8h103q20 0 25.5 16.5t-4.5 32.5l-113 213q-46 87 -46 166q0 66 30 93.5t94 27.5h114q28 0 28 -36v-44q0 -21 -7 -29.5t-24 -8.5h-89q-24 0 -29.5 -18.5t7.5 -40.5l107 -197q38 -70 49.5 -107.5
t11.5 -78.5zM257 782q0 -6 -2 -9l-34 -66q-7 -15 -27 -15h-103q-19 0 -27 15l-34 66q-2 6 -2 9q0 7 9 7h54q15 0 23 -10l29 -38l28 38q8 10 23 10h54q9 0 9 -7z" />
    <glyph glyph-name="Tcommaaccent" unicode="&#x162;" horiz-adv-x="315" 
d="M312 590q0 -24 -6.5 -32.5t-24.5 -8.5h-52q-13 0 -13 -20v-485q0 -26 -6.5 -35t-25.5 -9h-52q-20 0 -27 8.5t-7 32.5v488q0 20 -13 20h-52q-18 0 -24 7.5t-6 32.5v34q0 26 6.5 35t26.5 9h244q18 0 25 -8.5t7 -31.5v-37zM209 -106q0 -22 -4 -35l-24 -76q-7 -19 -22 -19
h-37q-13 0 -13 8q0 4 3 11l21 57q2 6 2 9q0 9 -7 9h-7q-10 0 -13.5 7.5t-3.5 29.5v37q0 25 7.5 34.5t25.5 9.5h41q17 0 24 -9t7 -32v-41z" />
    <glyph glyph-name="tcommaaccent" unicode="&#x163;" horiz-adv-x="315" 
d="M312 590q0 -24 -6.5 -32.5t-24.5 -8.5h-52q-13 0 -13 -20v-485q0 -26 -6.5 -35t-25.5 -9h-52q-20 0 -27 8.5t-7 32.5v488q0 20 -13 20h-52q-18 0 -24 7.5t-6 32.5v34q0 26 6.5 35t26.5 9h244q18 0 25 -8.5t7 -31.5v-37zM209 -106q0 -22 -4 -35l-24 -76q-7 -19 -22 -19
h-37q-10 0 -12 3.5t2 15.5l21 57q7 18 -5 18h-7q-10 0 -13.5 7.5t-3.5 29.5v37q0 25 7.5 34.5t25.5 9.5h41q17 0 24 -9t7 -32v-41z" />
    <glyph glyph-name="Tcaron" unicode="&#x164;" horiz-adv-x="315" 
d="M272 782q0 -6 -2 -9l-34 -66q-8 -15 -27 -15h-103q-20 0 -27 15l-34 66q-2 6 -2 9q0 7 9 7h54q15 0 23 -10l29 -38l28 38q8 10 23 10h54q9 0 9 -7zM312 590q0 -24 -6.5 -32.5t-24.5 -8.5h-52q-13 0 -13 -20v-485q0 -26 -6.5 -35t-25.5 -9h-52q-20 0 -27 8.5t-7 32.5v488
q0 20 -13 20h-52q-18 0 -24 7.5t-6 32.5v34q0 26 6.5 35t26.5 9h244q18 0 25 -8.5t7 -31.5v-37z" />
    <glyph glyph-name="tcaron" unicode="&#x165;" horiz-adv-x="315" 
d="M272 782q0 -6 -2 -9l-34 -66q-8 -15 -27 -15h-103q-20 0 -27 15l-34 66q-2 6 -2 9q0 7 9 7h54q15 0 23 -10l29 -38l28 38q8 10 23 10h54q9 0 9 -7zM312 590q0 -24 -6.5 -32.5t-24.5 -8.5h-52q-13 0 -13 -20v-485q0 -26 -6.5 -35t-25.5 -9h-52q-20 0 -27 8.5t-7 32.5v488
q0 20 -13 20h-52q-18 0 -24 7.5t-6 32.5v34q0 26 6.5 35t26.5 9h244q18 0 25 -8.5t7 -31.5v-37z" />
    <glyph glyph-name="Umacron" unicode="&#x16a;" horiz-adv-x="362" 
d="M294 723q0 -20 -9.5 -25.5t-35.5 -5.5h-135q-26 0 -36 5.5t-10 25.5v25q0 20 9.5 25.5t35.5 5.5h135q26 0 36 -5.5t10 -25.5v-25zM342 190q0 -46 -6 -78t-22 -61.5t-50 -44.5t-85 -15q-94 0 -126.5 46.5t-32.5 147.5v438q0 25 7.5 34.5t27.5 9.5h53q18 0 24 -8.5t6 -32.5
v-456q0 -28 10 -40t34 -12q23 0 32.5 12.5t9.5 40.5v455q0 25 6.5 33t25.5 8h55q19 0 25 -8t6 -33v-436z" />
    <glyph glyph-name="umacron" unicode="&#x16b;" horiz-adv-x="362" 
d="M294 723q0 -20 -9.5 -25.5t-35.5 -5.5h-135q-26 0 -36 5.5t-10 25.5v25q0 20 9.5 25.5t35.5 5.5h135q26 0 36 -5.5t10 -25.5v-25zM342 190q0 -46 -6 -78t-22 -61.5t-50 -44.5t-85 -15q-94 0 -126.5 46.5t-32.5 147.5v438q0 25 7.5 34.5t27.5 9.5h53q18 0 24 -8.5t6 -32.5
v-456q0 -28 10 -40t34 -12q23 0 32.5 12.5t9.5 40.5v455q0 25 6.5 33t25.5 8h55q19 0 25 -8t6 -33v-436z" />
    <glyph glyph-name="Uring" unicode="&#x16e;" horiz-adv-x="362" 
d="M261 740q0 -35 -22.5 -58.5t-56.5 -23.5t-57.5 24t-23.5 59q0 37 22.5 61.5t57.5 24.5t57.5 -24.5t22.5 -62.5zM342 190q0 -46 -6 -78t-22 -61.5t-50 -44.5t-85 -15q-94 0 -126.5 46.5t-32.5 147.5v438q0 25 7.5 34.5t27.5 9.5h53q18 0 24 -8.5t6 -32.5v-456
q0 -28 10 -40t34 -12q23 0 32.5 12.5t9.5 40.5v455q0 25 6.5 33t25.5 8h55q19 0 25 -8t6 -33v-436zM213 739h1q0 16 -9 26.5t-23 10.5t-23.5 -10t-9.5 -26t9 -26t23 -10t23 10t9 25z" />
    <glyph glyph-name="uring" unicode="&#x16f;" horiz-adv-x="362" 
d="M261 740q0 -35 -22.5 -58.5t-56.5 -23.5t-57.5 24t-23.5 59q0 37 22.5 61.5t57.5 24.5t57.5 -24.5t22.5 -62.5zM342 190q0 -46 -6 -78t-22 -61.5t-50 -44.5t-85 -15q-94 0 -126.5 46.5t-32.5 147.5v438q0 25 7.5 34.5t27.5 9.5h53q18 0 24 -8.5t6 -32.5v-456
q0 -28 10 -40t34 -12q23 0 32.5 12.5t9.5 40.5v455q0 25 6.5 33t25.5 8h55q19 0 25 -8t6 -33v-436zM213 739h1q0 16 -9 26.5t-23 10.5t-23.5 -10t-9.5 -26t9 -26t23 -10t23 10t9 25z" />
    <glyph glyph-name="Uhungarumlaut" unicode="&#x170;" horiz-adv-x="362" 
d="M309 769l-54 -62l-4.5 -4.5t-3 -3.5t-2.5 -2.5t-2.5 -2t-2 -1.5t-3 -1h-3.5h-37q-5 0 -7.5 6t1.5 16l33 54q3 4 5.5 8.5t3.5 6.5t2.5 3.5t3.5 2t5 0.5h57q8 0 11 -6.5t-3 -13.5zM206 769l-54 -62q-2 -2 -5 -6t-4 -5t-3 -2t-4 -1.5t-5 -0.5h-36q-7 0 -10 6t2 16l34 54
l4.5 7l3.5 5.5t3 3.5l3 3t3 1.5t5 0.5h55q8 0 11 -6.5t-3 -13.5zM342 190q0 -46 -6 -78t-22 -61.5t-50 -44.5t-85 -15q-94 0 -126.5 46.5t-32.5 147.5v438q0 25 7.5 34.5t27.5 9.5h53q18 0 24 -8.5t6 -32.5v-456q0 -28 10 -40t34 -12q23 0 32.5 12.5t9.5 40.5v455
q0 25 6.5 33t25.5 8h55q19 0 25 -8t6 -33v-436z" />
    <glyph glyph-name="uhungarumlaut" unicode="&#x171;" horiz-adv-x="362" 
d="M309 769l-54 -62l-4.5 -4.5t-3 -3.5t-2.5 -2.5t-2.5 -2t-2 -1.5t-3 -1h-3.5h-37q-5 0 -7.5 6t1.5 16l33 54q3 4 5.5 8.5t3.5 6.5t2.5 3.5t3.5 2t5 0.5h57q8 0 11 -6.5t-3 -13.5zM206 769l-54 -62q-2 -2 -5 -6t-4 -5t-3 -2t-4 -1.5t-5 -0.5h-36q-7 0 -10 6t2 16l34 54
l4.5 7l3.5 5.5t3 3.5l3 3t3 1.5t5 0.5h55q8 0 11 -6.5t-3 -13.5zM342 190q0 -46 -6 -78t-22 -61.5t-50 -44.5t-85 -15q-94 0 -126.5 46.5t-32.5 147.5v438q0 25 7.5 34.5t27.5 9.5h53q18 0 24 -8.5t6 -32.5v-456q0 -28 10 -40t34 -12q23 0 32.5 12.5t9.5 40.5v455
q0 25 6.5 33t25.5 8h55q19 0 25 -8t6 -33v-436z" />
    <glyph glyph-name="Uogonek" unicode="&#x172;" horiz-adv-x="362" 
d="M346 -82q0 -16 -14 -26q-35 -29 -70 -29q-61 0 -61 78q0 27 6 51q-9 -1 -28 -1q-94 0 -126.5 46.5t-32.5 147.5v438q0 25 7.5 34.5t27.5 9.5h53q18 0 24 -8.5t6 -32.5v-456q0 -28 10 -40t34 -12q23 0 32.5 12.5t9.5 40.5v455q0 25 6.5 33t25.5 8h55q19 0 25 -8t6 -33
v-436q0 -73 -17.5 -119.5t-66.5 -66.5q-6 -24 -6 -30q0 -27 24 -27q8 0 28 10q18 9 25 0q17 -20 17 -39z" />
    <glyph glyph-name="uogonek" unicode="&#x173;" horiz-adv-x="362" 
d="M346 -82q0 -16 -14 -26q-35 -29 -70 -29q-61 0 -61 78q0 27 6 51q-9 -1 -28 -1q-94 0 -126.5 46.5t-32.5 147.5v438q0 25 7.5 34.5t27.5 9.5h53q18 0 24 -8.5t6 -32.5v-456q0 -28 10 -40t34 -12q23 0 32.5 12.5t9.5 40.5v455q0 25 6.5 33t25.5 8h55q19 0 25 -8t6 -33
v-436q0 -73 -17.5 -119.5t-66.5 -66.5q-6 -24 -6 -30q0 -27 24 -27q8 0 28 10q18 9 25 0q17 -20 17 -39z" />
    <glyph glyph-name="Ydieresis" unicode="&#x178;" horiz-adv-x="344" 
d="M281 723q0 -18 -6.5 -24.5t-24.5 -6.5h-29q-18 0 -24.5 6.5t-6.5 24.5v38q0 18 6.5 24.5t24.5 6.5h29q18 0 24.5 -6.5t6.5 -24.5v-38zM160 723q0 -18 -6.5 -24.5t-24.5 -6.5h-29q-18 0 -24.5 6.5t-6.5 24.5v38q0 18 6.5 24.5t24.5 6.5h29q18 0 24.5 -6.5t6.5 -24.5v-38z
M341 632l-110 -377v-212q0 -26 -6.5 -34.5t-26.5 -8.5h-52q-20 0 -26.5 8.5t-6.5 34.5v212l-110 377q-5 12 -0.5 23.5t18.5 11.5h67q11 0 16.5 -4.5t9.5 -19.5l51 -217q4 -11 7 -11t7 11l51 217q4 15 9.5 19.5t16.5 4.5h67q14 0 18.5 -11.5t-0.5 -23.5z" />
    <glyph glyph-name="Zacute" unicode="&#x179;" horiz-adv-x="311" 
d="M261 776q0 -6 -10 -16l-69 -59q-12 -9 -22 -9h-62q-12 0 -12 9q0 5 5 13l45 59q13 16 22 16h88q15 0 15 -13zM303 41q0 -24 -7.5 -32.5t-28.5 -8.5h-227q-19 0 -25.5 8t-6.5 32v75q0 34 16 69l159 347q9 18 -8 18h-125q-22 0 -27.5 7t-5.5 34v35q0 26 6 34t26 8h223
q30 0 30 -39v-84q0 -20 -14 -51l-159 -351q-12 -24 9 -24h133q19 0 25.5 -8.5t6.5 -34.5v-34z" />
    <glyph glyph-name="zacute" unicode="&#x17a;" horiz-adv-x="311" 
d="M261 776q0 -6 -10 -16l-69 -59q-12 -9 -22 -9h-62q-12 0 -12 9q0 5 5 13l45 59q13 16 22 16h88q15 0 15 -13zM303 41q0 -24 -7.5 -32.5t-28.5 -8.5h-227q-19 0 -25.5 8t-6.5 32v75q0 34 16 69l159 347q9 18 -8 18h-125q-22 0 -27.5 7t-5.5 34v35q0 26 6 34t26 8h223
q30 0 30 -39v-84q0 -20 -14 -51l-159 -351q-12 -24 9 -24h133q19 0 25.5 -8.5t6.5 -34.5v-34z" />
    <glyph glyph-name="Zdotaccent" unicode="&#x17b;" horiz-adv-x="311" 
d="M201 723q0 -18 -6.5 -24.5t-24.5 -6.5h-29q-18 0 -24.5 6.5t-6.5 24.5v38q0 18 6.5 24.5t24.5 6.5h29q18 0 24.5 -6.5t6.5 -24.5v-38zM303 41q0 -24 -7.5 -32.5t-28.5 -8.5h-227q-19 0 -25.5 8t-6.5 32v75q0 34 16 69l159 347q9 18 -8 18h-125q-22 0 -27.5 7t-5.5 34v35
q0 26 6 34t26 8h223q30 0 30 -39v-84q0 -20 -14 -51l-159 -351q-12 -24 9 -24h133q19 0 25.5 -8.5t6.5 -34.5v-34z" />
    <glyph glyph-name="zdotaccent" unicode="&#x17c;" horiz-adv-x="311" 
d="M201 723q0 -18 -6.5 -24.5t-24.5 -6.5h-29q-18 0 -24.5 6.5t-6.5 24.5v38q0 18 6.5 24.5t24.5 6.5h29q18 0 24.5 -6.5t6.5 -24.5v-38zM303 41q0 -24 -7.5 -32.5t-28.5 -8.5h-227q-19 0 -25.5 8t-6.5 32v75q0 34 16 69l159 347q9 18 -8 18h-125q-22 0 -27.5 7t-5.5 34v35
q0 26 6 34t26 8h223q30 0 30 -39v-84q0 -20 -14 -51l-159 -351q-12 -24 9 -24h133q19 0 25.5 -8.5t6.5 -34.5v-34z" />
    <glyph glyph-name="Zcaron" unicode="&#x17d;" horiz-adv-x="311" 
d="M303 41q0 -24 -7.5 -32.5t-28.5 -8.5h-227q-19 0 -25.5 8t-6.5 32v75q0 34 16 69l159 347q9 18 -8 18h-125q-22 0 -27.5 7t-5.5 34v35q0 26 6 34t26 8h223q30 0 30 -39v-84q0 -20 -14 -51l-159 -351q-12 -24 9 -24h133q19 0 25.5 -8.5t6.5 -34.5v-34zM272 782q0 -6 -2 -9
l-34 -66q-8 -15 -27 -15h-103q-20 0 -27 15l-34 66q-2 6 -2 9q0 7 9 7h54q15 0 23 -10l29 -38l28 38q8 10 23 10h54q9 0 9 -7z" />
    <glyph glyph-name="zcaron" unicode="&#x17e;" horiz-adv-x="311" 
d="M303 41q0 -24 -7.5 -32.5t-28.5 -8.5h-227q-19 0 -25.5 8t-6.5 32v75q0 34 16 69l159 347q9 18 -8 18h-125q-22 0 -27.5 7t-5.5 34v35q0 26 6 34t26 8h223q30 0 30 -39v-84q0 -20 -14 -51l-159 -351q-12 -24 9 -24h133q19 0 25.5 -8.5t6.5 -34.5v-34zM272 782q0 -6 -2 -9
l-34 -66q-8 -15 -27 -15h-103q-20 0 -27 15l-34 66q-2 6 -2 9q0 7 9 7h54q15 0 23 -10l29 -38l28 38q8 10 23 10h54q9 0 9 -7z" />
    <glyph glyph-name="florin" unicode="&#x192;" horiz-adv-x="291" 
d="M276 591q0 -42 -25 -42h-24q-8 0 -11.5 -0.5t-6.5 -5t-4 -9t-3 -18.5l-12 -66q-2 -12 0 -15.5t9 -3.5h25q18 0 23.5 -7.5t5.5 -30.5v-40q0 -23 -6 -31t-24 -8h-33q-7 0 -9.5 -3t-4.5 -14l-33 -260q-3 -23 -8.5 -30t-18.5 -7h-61q-19 0 -24 8t-1 39l30 249q3 19 -6 19h-28
q-10 0 -13.5 7t-3.5 28v52q0 25 17 25h36q10 0 12 12l15 123q13 105 90 105h51q27 0 36.5 -9.5t9.5 -31.5v-35z" />
    <glyph glyph-name="Scommaaccent" unicode="&#x218;" horiz-adv-x="302" 
d="M297 107q0 -107 -107 -107h-149q-20 0 -26.5 8t-6.5 33v35q0 26 6 34t26 8h103q20 0 25.5 16.5t-4.5 32.5l-113 213q-46 87 -46 166q0 66 30 93.5t94 27.5h114q28 0 28 -36v-44q0 -21 -7 -29.5t-24 -8.5h-89q-24 0 -29.5 -18.5t7.5 -40.5l107 -197q38 -70 49.5 -107.5
t11.5 -78.5zM206 -106q0 -22 -4 -35l-24 -76q-5 -19 -22 -19h-37q-10 0 -12 3.5t2 15.5l21 57q7 18 -5 18h-7q-10 0 -13.5 7.5t-3.5 29.5v37q0 25 7.5 34.5t25.5 9.5h41q17 0 24 -9t7 -32v-41z" />
    <glyph glyph-name="scommaaccent" unicode="&#x219;" horiz-adv-x="302" 
d="M297 107q0 -107 -107 -107h-149q-20 0 -26.5 8t-6.5 33v35q0 26 6 34t26 8h103q20 0 25.5 16.5t-4.5 32.5l-113 213q-46 87 -46 166q0 66 30 93.5t94 27.5h114q28 0 28 -36v-44q0 -21 -7 -29.5t-24 -8.5h-89q-24 0 -29.5 -18.5t7.5 -40.5l107 -197q38 -70 49.5 -107.5
t11.5 -78.5zM206 -106q0 -22 -4 -35l-24 -76q-5 -19 -22 -19h-37q-10 0 -12 3.5t2 15.5l21 57q7 18 -5 18h-7q-10 0 -13.5 7.5t-3.5 29.5v37q0 25 7.5 34.5t25.5 9.5h41q17 0 24 -9t7 -32v-41z" />
    <glyph glyph-name="circumflex" unicode="&#x2c6;" horiz-adv-x="237" 
d="M233 699q0 -7 -9 -7h-54q-15 0 -23 10l-29 38l-28 -38q-8 -10 -23 -10h-54q-9 0 -9 7q0 3 2 9l34 65q8 16 27 16h103q19 0 27 -16l34 -65q2 -6 2 -9z" />
    <glyph glyph-name="caron" unicode="&#x2c7;" horiz-adv-x="228" 
d="M229 782q0 -6 -2 -9l-34 -66q-7 -15 -27 -15h-103q-19 0 -27 15l-34 66q-2 6 -2 9q0 7 9 7h54q15 0 23 -10l29 -38l28 38q8 10 23 10h54q9 0 9 -7z" />
    <glyph glyph-name="breve" unicode="&#x2d8;" horiz-adv-x="367" 
d="M346 798q0 -42 -38.5 -74t-124.5 -32t-124.5 32t-38.5 74q0 15 14 15h36q11 0 16 -14q4 -15 24 -21.5t73 -6.5t73 6.5t24 21.5q5 14 16 14h36q14 0 14 -15z" />
    <glyph glyph-name="dotaccent" unicode="&#x2d9;" horiz-adv-x="111" 
d="M101 723q0 -18 -6.5 -24.5t-24.5 -6.5h-29q-18 0 -24.5 6.5t-6.5 24.5v38q0 18 6.5 24.5t24.5 6.5h29q18 0 24.5 -6.5t6.5 -24.5v-38z" />
    <glyph glyph-name="ring" unicode="&#x2da;" horiz-adv-x="159" 
d="M159 710q0 -35 -22.5 -58.5t-56.5 -23.5t-57 24t-23 59q0 37 22.5 61.5t57.5 24.5t57 -24.5t22 -62.5zM112 709q0 16 -9 26.5t-23 10.5t-23 -10t-9 -26t9 -26t23 -10t23 10t9 25z" />
    <glyph glyph-name="ogonek" unicode="&#x2db;" horiz-adv-x="145" 
d="M145 -82q0 -15 -14 -26q-36 -29 -70 -29q-61 0 -61 78q0 35 11 70l5 16h47l-3 -11q-9 -34 -9 -42q0 -27 24 -27q8 0 28 10q18 9 25 0q17 -20 17 -39z" />
    <glyph glyph-name="tilde" unicode="&#x2dc;" horiz-adv-x="245" 
d="M240 720q0 -28 -25 -28h-40q-2 0 -17 3l-71 21q-8 3 -12 3t-4 -6v-5q0 -16 -16 -16h-25q-15 0 -20 5.5t-5 20.5v43q0 28 25 28h40q2 0 17 -3l71 -21q8 -3 12 -3t4 6v5q0 16 16 16h25q15 0 20 -5.5t5 -20.5v-43z" />
    <glyph glyph-name="hungarumlaut" unicode="&#x2dd;" horiz-adv-x="211" 
d="M221 769l-54 -62q-12 -15 -21 -15h-37q-5 0 -7.5 6t2.5 16l33 54q2 3 4 6.5t3 5t2 3.5t2 3t2.5 2t3 1h3.5h57q8 0 10.5 -6.5t-3.5 -13.5zM119 769l-55 -62q-16 -14 -21 -15h-36q-7 0 -9.5 6t2.5 16l34 54q2 2 4.5 6.5t3.5 6t2.5 4t3 3t3.5 1t5 0.5h55q8 0 11 -6.5
t-3 -13.5z" />
    <glyph glyph-name="Alphatonos" unicode="&#x386;" horiz-adv-x="459" 
d="M456 15q3 -15 -15 -15h-95q-14 0 -17 18l-19 141q-1 16 -17 16h-42q-15 0 -17 -16l-16 -143q-1 -10 -4.5 -13t-13.5 -3h-92q-9 0 -13.5 4t-3.5 11l81 614q3 22 12 30t30 8h116q18 0 27 -8.5t12 -30.5zM298 304l-19 230q-1 15 -8 15t-8 -16l-17 -229q-1 -5 2.5 -8t10.5 -3
h25q7 0 11 3t3 8zM162 655q0 -7 -10 -16l-69 -59q-10 -9 -22 -9h-62q-11 0 -11 9q0 6 5 13l45 59q12 16 22 16h88q14 0 14 -13z" />
    <glyph glyph-name="Epsilontonos" unicode="&#x388;" horiz-adv-x="452" 
d="M449 43q0 -43 -34 -43h-204q-20 0 -27 9t-7 35v579q0 25 7.5 34.5t26.5 9.5h198q19 0 25.5 -7.5t6.5 -31.5v-37q0 -25 -6.5 -33.5t-25.5 -8.5h-98q-11 0 -14.5 -4t-3.5 -18v-93q0 -14 2.5 -17.5t15.5 -3.5h50q17 0 23 -7t6 -27v-51q0 -19 -6.5 -26t-22.5 -7h-50
q-11 0 -14.5 -3t-3.5 -12v-140q0 -13 4 -17.5t17 -4.5h99q20 0 28 -9.5t8 -33.5v-32zM162 655q0 -7 -10 -16l-69 -59q-10 -9 -22 -9h-62q-11 0 -11 9q0 6 5 13l45 59q12 16 22 16h88q14 0 14 -13z" />
    <glyph glyph-name="Etatonos" unicode="&#x389;" horiz-adv-x="530" 
d="M504 44q0 -25 -7 -34.5t-26 -9.5h-53q-19 0 -25 10t-6 33v231q0 12 -3 16.5t-13 4.5h-60q-10 0 -13 -4.5t-3 -16.5v-231q0 -23 -6 -33t-25 -10h-53q-19 0 -26 9.5t-7 34.5v580q0 24 7.5 33.5t25.5 9.5h54q30 0 30 -42v-193q0 -19 15 -19h62q15 0 15 19v193q0 42 30 42h54
q18 0 25.5 -9.5t7.5 -33.5v-580zM162 654q0 -7 -10 -16l-69 -59q-10 -9 -22 -9h-62q-11 0 -11 9q0 7 5 13l45 59q11 16 22 16h88q14 0 14 -13z" />
    <glyph glyph-name="Iotatonos" unicode="&#x38a;" horiz-adv-x="321" 
d="M295 42q0 -26 -7 -34t-26 -8h-50q-21 0 -28 8.5t-7 35.5v578q0 26 7 35.5t26 9.5h54q17 0 24 -10t7 -35v-580zM162 654q0 -7 -10 -16l-69 -59q-10 -9 -22 -9h-62q-11 0 -11 9q0 7 5 13l45 59q11 16 22 16h88q14 0 14 -13z" />
    <glyph glyph-name="Omicrontonos" unicode="&#x38c;" horiz-adv-x="461" 
d="M444 335v-65t-1.5 -58t-4.5 -55.5t-8.5 -46.5t-13.5 -42t-20 -31.5t-28 -25.5t-37.5 -14t-47.5 -6q-27 0 -48.5 6t-37.5 14t-28 26t-20 31.5t-13.5 42t-8 46t-4 55.5t-1.5 58v65v65t1.5 57.5t4 54.5t8 45.5t13.5 41.5t20 30.5t28 25t37.5 13.5t48.5 6q107 0 139 -90
q22 -59 22 -222v-27zM327 335q-1 142 -7 177.5t-37 35.5t-37.5 -36.5t-6.5 -176.5q1 -143 7 -180t37 -37t37.5 38t6.5 179zM162 654q0 -7 -10 -16l-69 -59q-10 -9 -22 -9h-62q-11 0 -11 9q0 7 5 13l45 59q11 16 22 16h88q14 0 14 -13z" />
    <glyph glyph-name="Upsilontonos" unicode="&#x38e;" horiz-adv-x="523" 
d="M520 632l-110 -377v-212q0 -26 -6.5 -34.5t-26.5 -8.5h-52q-20 0 -26.5 8.5t-6.5 34.5v212l-110 377q-5 12 -0.5 23.5t18.5 11.5h67q11 0 16.5 -4.5t9.5 -19.5l51 -217q4 -11 7 -11t7 11l51 217q4 15 9.5 19.5t16.5 4.5h67q14 0 18.5 -11.5t-0.5 -23.5zM162 654
q0 -7 -10 -16l-69 -59q-10 -9 -22 -9h-62q-11 0 -11 9q0 7 5 13l45 59q11 16 22 16h88q14 0 14 -13z" />
    <glyph glyph-name="Omegatonos" unicode="&#x38f;" horiz-adv-x="459" 
d="M442 413q0 133 -32 197t-129 64q-41 0 -70.5 -12.5t-46.5 -33.5t-27 -56t-13 -71t-3 -88q0 -126 8 -183t37 -91q19 -21 2 -21h-13q-19 0 -26.5 -9t-7.5 -33v-33q0 -23 8.5 -33t28.5 -10h73q19 0 26 8.5t7 32.5v161q0 11 -8 19q-18 19 -18 192q0 83 8.5 109t35.5 26
t35 -26t8 -109q0 -173 -18 -193q-8 -11 -8 -18v-160q0 -23 7.5 -32.5t26.5 -9.5h71q20 0 28.5 10t8.5 33v33q0 24 -7.5 33t-26.5 9h-12q-17 0 2 21q29 34 37 91t8 183zM162 654q0 -7 -10 -16l-69 -59q-10 -9 -22 -9h-62q-11 0 -11 9q0 7 5 13l45 59q11 16 22 16h88
q14 0 14 -13z" />
    <glyph glyph-name="iotadieresistonos" unicode="&#x390;" horiz-adv-x="170" 
d="M144 42q0 -26 -7 -34t-26 -8h-50q-21 0 -28 8.5t-7 35.5v578q0 26 7 35.5t26 9.5h54q17 0 24 -10t7 -35v-580zM281 723q0 -18 -6.5 -24.5t-24.5 -6.5h-29q-18 0 -24.5 6.5t-6.5 24.5v38q0 18 6.5 24.5t24.5 6.5h29q18 0 24.5 -6.5t6.5 -24.5v-38zM-20 723
q0 -18 -6.5 -24.5t-24.5 -6.5h-29q-18 0 -24.5 6.5t-6.5 24.5v38q0 18 6.5 24.5t24.5 6.5h29q18 0 24.5 -6.5t6.5 -24.5v-38zM171 776q0 -7 -10 -16l-69 -59q-10 -9 -22 -9h-62q-11 0 -11 9q0 7 5 13l45 59q11 16 22 16h88q14 0 14 -13z" />
    <glyph glyph-name="Alpha" unicode="&#x391;" horiz-adv-x="371" 
d="M368 15q2 -15 -15 -15h-95q-14 0 -17 18l-19 141q-2 16 -17 16h-42q-15 0 -17 -16l-16 -143q-1 -10 -4.5 -13t-13.5 -3h-92q-9 0 -13.5 4t-3.5 11l81 614q3 22 12 30t30 8h116q18 0 27 -8.5t12 -30.5zM210 304l-19 230q-1 15 -8 15t-8 -16l-17 -229q-1 -5 2.5 -8t10.5 -3
h25q7 0 11 3t3 8z" />
    <glyph glyph-name="Beta" unicode="&#x392;" horiz-adv-x="361" 
d="M347 180q0 -85 -24 -132.5t-84 -47.5h-181q-19 0 -25.5 9t-6.5 35v580q0 24 7 33.5t25 9.5h181q31 0 51.5 -12.5t30.5 -37t13.5 -52t3.5 -66.5q0 -118 -54 -151q63 -25 63 -168zM221 476q0 44 -10 58.5t-32 14.5h-19q-10 0 -13.5 -4t-3.5 -16v-105q0 -12 3.5 -16t13.5 -4
h19q26 0 34 15t8 57zM228 201q0 51 -11 68t-38 17h-19q-10 0 -13.5 -4t-3.5 -16v-128q0 -20 17 -20h19q30 0 39.5 17t9.5 66z" />
    <glyph glyph-name="Gamma" unicode="&#x393;" horiz-adv-x="278" 
d="M275 591q0 -24 -7.5 -33t-26.5 -9h-81q-16 0 -16 -21v-485q0 -25 -6.5 -34t-25.5 -9h-53q-18 0 -25.5 10t-7.5 33v580q0 27 6.5 35.5t26.5 8.5h179q20 0 28.5 -10t8.5 -33v-33z" />
    <glyph glyph-name="Delta" unicode="&#x394;" horiz-adv-x="370" 
d="M366 35q2 -15 -5.5 -25t-20.5 -10h-308q-14 0 -21.5 9.5t-5.5 24.5l79 595q3 22 12 30t30 8h116q18 0 27 -8.5t12 -30.5zM224 137l-33 381q-1 15 -8 15q-8 0 -9 -16l-31 -382q0 -17 14 -17h53q7 0 11 6.5t3 12.5z" />
    <glyph glyph-name="Epsilon" unicode="&#x395;" horiz-adv-x="301" 
d="M298 43q0 -43 -34 -43h-204q-20 0 -27 9t-7 35v579q0 25 7.5 34.5t26.5 9.5h198q19 0 25.5 -7.5t6.5 -31.5v-37q0 -25 -6.5 -33.5t-25.5 -8.5h-98q-11 0 -14.5 -4t-3.5 -18v-93q0 -14 2.5 -17.5t15.5 -3.5h50q17 0 23 -7t6 -27v-51q0 -19 -6.5 -26t-22.5 -7h-50
q-11 0 -14.5 -3t-3.5 -12v-140q0 -13 4 -17.5t17 -4.5h99q20 0 28 -9.5t8 -33.5v-32z" />
    <glyph glyph-name="Zeta" unicode="&#x396;" horiz-adv-x="311" 
d="M303 41q0 -24 -7.5 -32.5t-28.5 -8.5h-227q-19 0 -25.5 8t-6.5 32v75q0 34 16 69l159 347q9 18 -8 18h-125q-22 0 -27.5 7t-5.5 34v35q0 26 6 34t26 8h223q30 0 30 -39v-84q0 -20 -14 -51l-159 -351q-12 -24 9 -24h133q19 0 25.5 -8.5t6.5 -34.5v-34z" />
    <glyph glyph-name="Eta" unicode="&#x397;" horiz-adv-x="378" 
d="M352 44q0 -25 -7 -34.5t-26 -9.5h-53q-19 0 -25 10t-6 33v231q0 12 -3 16.5t-13 4.5h-60q-10 0 -13 -4.5t-3 -16.5v-231q0 -23 -6 -33t-25 -10h-53q-19 0 -26 9.5t-7 34.5v580q0 24 7.5 33.5t25.5 9.5h54q30 0 30 -42v-193q0 -19 15 -19h62q15 0 15 19v193q0 42 30 42h54
q18 0 25.5 -9.5t7.5 -33.5v-580z" />
    <glyph glyph-name="Theta" unicode="&#x398;" 
d="M339 335v-65t-1.5 -58t-4.5 -55.5t-8.5 -46.5t-13.5 -42t-20 -31.5t-28 -25.5t-37.5 -14t-47.5 -6q-27 0 -48.5 6t-37.5 14t-28 26t-20 31.5t-13.5 42t-8 46t-4 55.5t-1.5 58v65v65t1.5 57.5t4 54.5t8 45.5t13.5 41.5t20 30.5t28 25t37.5 13.5t48.5 6q107 0 139 -90
q22 -59 22 -222v-27zM221 432q-2 72 -10 94t-33 22q-26 0 -34.5 -23t-9.5 -93q0 -19 15 -19h58q8 0 11 3.5t3 15.5zM222 274q0 12 -3 16.5t-13 4.5h-56q-10 0 -13 -4.5t-3 -16.5q1 -96 9 -126t35 -30q28 0 36 30t8 126z" />
    <glyph glyph-name="Iota" unicode="&#x399;" horiz-adv-x="170" 
d="M144 42q0 -26 -7 -34t-26 -8h-50q-21 0 -28 8.5t-7 35.5v578q0 26 7 35.5t26 9.5h54q17 0 24 -10t7 -35v-580z" />
    <glyph glyph-name="Kappa" unicode="&#x39a;" horiz-adv-x="375" 
d="M372 655q0 -6 -3 -12l-99 -192q-5 -9 -6 -19q-1 -6 3 -21l101 -381q4 -20 1 -25t-17 -5h-82q-13 0 -18.5 6t-9.5 23l-47 222q-7 31 -12 31q-6 0 -10 -5.5t-20 -35.5q-9 -17 -9 -56v-143q0 -26 -7 -34t-26 -8h-50q-21 0 -28 8.5t-7 35.5v578q0 26 7 35.5t26 9.5h54
q17 0 24 -10t7 -35v-149q0 -10 4 -11q3 -1 5.5 1.5t5.5 9.5l74 156q11 24 17 31t21 7h89q12 0 12 -12z" />
    <glyph glyph-name="Lambda" unicode="&#x39b;" horiz-adv-x="371" 
d="M367 21q2 -21 -14 -21h-93q-18 0 -19 18l-50 500q-1 15 -8 15t-8 -16l-44 -499q-2 -10 -5.5 -14t-13.5 -4h-90q-9 0 -14 5.5t-4 12.5l80 611q3 22 12 30t30 8h116q18 0 27 -8.5t12 -30.5z" />
    <glyph glyph-name="Mu" unicode="&#x39c;" horiz-adv-x="466" 
d="M440 43q0 -27 -6 -35t-27 -8h-53q-19 0 -25.5 9t-6.5 33v271q0 24 -4 24q-5 0 -9 -22l-40 -198q-4 -18 -11.5 -24t-24.5 -6t-24.5 6t-11.5 24l-40 198q-4 22 -9 22q-4 0 -4 -24v-271q0 -24 -6.5 -33t-25.5 -9h-53q-21 0 -27 8t-6 35v583q0 25 6.5 33t25.5 8h55
q24 0 31.5 -5t13.5 -26l67 -240q3 -9 8 -9t8 9l67 240q6 21 13.5 26t31.5 5h55q19 0 25.5 -8t6.5 -33v-583z" />
    <glyph glyph-name="Nu" unicode="&#x39d;" horiz-adv-x="391" 
d="M365 45q0 -26 -7 -35.5t-28 -9.5h-46q-18 0 -25 5t-14 26l-84 249q-5 14 -11 14q-5 0 -5 -19v-231q0 -24 -6.5 -34t-24.5 -10h-52q-19 0 -27.5 9t-8.5 36v578q0 26 7 35t28 9h46q18 0 25 -5t14 -26l84 -248q5 -14 11 -14q5 0 5 19v230q0 24 6.5 34t24.5 10h52
q19 0 27.5 -9t8.5 -36v-577z" />
    <glyph glyph-name="Xi" unicode="&#x39e;" horiz-adv-x="321" 
d="M315 590q0 -24 -6.5 -32.5t-24.5 -8.5h-248q-18 0 -24 7.5t-6 32.5v34q0 26 6.5 35t26.5 9h244q18 0 25 -8.5t7 -31.5v-37zM285 336q0 -24 -6.5 -32.5t-24.5 -8.5h-188q-18 0 -24 7.5t-6 32.5v34q0 26 6.5 35t26.5 9h184q18 0 25 -8.5t7 -31.5v-37zM315 41
q0 -24 -6.5 -32.5t-24.5 -8.5h-248q-18 0 -24 7.5t-6 32.5v34q0 26 6.5 35t26.5 9h244q18 0 25 -9t7 -31v-37z" />
    <glyph glyph-name="Omicron" unicode="&#x39f;" 
d="M339 335v-65t-1.5 -58t-4.5 -55.5t-8.5 -46.5t-13.5 -42t-20 -31.5t-28 -25.5t-37.5 -14t-47.5 -6q-27 0 -48.5 6t-37.5 14t-28 26t-20 31.5t-13.5 42t-8 46t-4 55.5t-1.5 58v65v65t1.5 57.5t4 54.5t8 45.5t13.5 41.5t20 30.5t28 25t37.5 13.5t48.5 6q107 0 139 -90
q22 -59 22 -222v-27zM222 335q-1 142 -7 177.5t-37 35.5t-37.5 -36.5t-6.5 -176.5q1 -143 7 -180t37 -37t37.5 38t6.5 179z" />
    <glyph glyph-name="Pi" unicode="&#x3a0;" horiz-adv-x="378" 
d="M352 38q0 -24 -6.5 -31t-26.5 -7h-53q-19 0 -25 7.5t-6 29.5v491q0 12 -3 16.5t-13 4.5h-60q-10 0 -13 -4.5t-3 -16.5v-491q0 -22 -6 -29.5t-25 -7.5h-53q-20 0 -26.5 7t-6.5 31v586q0 24 7.5 33.5t25.5 9.5h260q18 0 25.5 -9.5t7.5 -33.5v-586z" />
    <glyph glyph-name="Rho" unicode="&#x3a1;" horiz-adv-x="347" 
d="M340 454q0 -101 -28.5 -153.5t-83.5 -52.5h-84v-205q0 -26 -6 -34.5t-26 -8.5h-54q-20 0 -26 8t-6 35v578q0 26 7 36t25 10h154q128 0 128 -213zM222 455q0 58 -7.5 76t-25.5 18h-29q-8 0 -12 -3.5t-4 -14.5v-148q0 -17 15 -17h33q16 0 23 16.5t7 72.5z" />
    <glyph glyph-name="Sigma" unicode="&#x3a3;" horiz-adv-x="305" 
d="M31 493q-14 31 -14 51v84q0 39 30 39h211q20 0 26 -8t6 -34v-35q0 -26 -5.5 -33.5t-23.5 -7.5h-115q-17 0 -8 -18l86 -165q10 -19 -1 -41l-86 -183q-12 -24 9 -24h121q19 0 25.5 -8.5t6.5 -34.5v-34q0 -24 -7.5 -32.5t-28.5 -8.5h-215q-19 0 -25.5 8t-6.5 32v75
q0 34 16 69l69 148q8 16 -2 34z" />
    <glyph glyph-name="Tau" unicode="&#x3a4;" horiz-adv-x="315" 
d="M312 590q0 -24 -6.5 -32.5t-24.5 -8.5h-52q-13 0 -13 -20v-485q0 -26 -6.5 -35t-25.5 -9h-52q-20 0 -27 8.5t-7 32.5v488q0 20 -13 20h-52q-18 0 -24 7.5t-6 32.5v34q0 26 6.5 35t26.5 9h244q18 0 25 -8.5t7 -31.5v-37z" />
    <glyph glyph-name="Upsilon" unicode="&#x3a5;" horiz-adv-x="344" 
d="M341 632l-110 -377v-212q0 -26 -6.5 -34.5t-26.5 -8.5h-52q-20 0 -26.5 8.5t-6.5 34.5v212l-110 377q-5 12 -0.5 23.5t18.5 11.5h67q11 0 16.5 -4.5t9.5 -19.5l51 -217q4 -11 7 -11t7 11l51 217q4 15 9.5 19.5t16.5 4.5h67q14 0 18.5 -11.5t-0.5 -23.5z" />
    <glyph glyph-name="Phi" unicode="&#x3a6;" horiz-adv-x="453" 
d="M443 354q0 -251 -144 -266q-16 -2 -16 -17v-33q0 -24 -5 -31t-27 -7h-46q-23 0 -29 7.5t-6 32.5v31q0 15 -18 17q-36 3 -62.5 21.5t-41.5 44t-24 61.5t-11.5 68t-2.5 71q0 41 6.5 78t21 72.5t43 59t68.5 28.5q21 2 21 18v16q0 23 6 32t27 9h50q20 0 25 -9t5 -32v-15
q0 -17 22 -19q52 -7 84.5 -46.5t43 -87t10.5 -104.5zM329 340q0 28 -1 46.5t-5 40.5t-14 33.5t-26 11.5v-262q46 0 46 130zM170 210v262q-29 0 -37.5 -36t-8.5 -96q0 -130 46 -130z" />
    <glyph glyph-name="Chi" unicode="&#x3a7;" horiz-adv-x="342" 
d="M337 37q9 -37 -16 -37h-78q-23 0 -27 25l-36 207q-3 12 -9 12t-9 -12l-36 -207q-4 -25 -27 -25h-78q-25 0 -16 37l66 309l-66 285q-8 36 20 36h76q20 0 26 -27l36 -188q2 -13 8 -13t8 13l36 188q6 27 26 27h76q28 0 20 -36l-67 -285z" />
    <glyph glyph-name="Psi" unicode="&#x3a8;" horiz-adv-x="471" 
d="M179 40q0 -24 6 -32t29 -8h46q22 0 27 7.5t5 30.5v144q0 16 17 18q37 3 64 22.5t41.5 45t23.5 63t11 67.5t2 68v160q0 15 -1 22t-8 13t-21 6h-50q-22 0 -27.5 -9t-5.5 -32v-174q0 -130 -46 -130v304q0 15 -1 22t-8 13t-21 6h-50q-22 0 -27.5 -9t-5.5 -32v-304
q-46 0 -46 130v174q0 23 -5.5 32t-27.5 9h-50q-14 0 -21 -6t-8 -13t-1 -22v-160q0 -251 140 -268q19 -2 19 -16v-142z" />
    <glyph glyph-name="Omega" unicode="&#x3a9;" horiz-adv-x="355" 
d="M338 413q0 133 -32 197t-129 64q-41 0 -70.5 -12.5t-46.5 -33.5t-27 -56t-13 -71t-3 -88q0 -126 8 -183t37 -91q19 -21 2 -21h-13q-19 0 -26.5 -9t-7.5 -33v-33q0 -23 8.5 -33t28.5 -10h73q19 0 26 8.5t7 32.5v161q0 11 -8 19q-18 19 -18 192q0 83 8.5 109t35.5 26
t35 -26t8 -109q0 -173 -18 -193q-8 -11 -8 -18v-160q0 -23 7.5 -32.5t26.5 -9.5h71q20 0 28.5 10t8.5 33v33q0 24 -7.5 33t-26.5 9h-12q-17 0 2 21q29 34 37 91t8 183z" />
    <glyph glyph-name="Iotadieresis" unicode="&#x3aa;" horiz-adv-x="170" 
d="M144 42q0 -26 -7 -34t-26 -8h-50q-21 0 -28 8.5t-7 35.5v578q0 26 7 35.5t26 9.5h54q17 0 24 -10t7 -35v-580zM191 723q0 -18 -6.5 -24.5t-24.5 -6.5h-29q-18 0 -24.5 6.5t-6.5 24.5v38q0 18 6.5 24.5t24.5 6.5h29q18 0 24.5 -6.5t6.5 -24.5v-38zM70 723
q0 -18 -6.5 -24.5t-24.5 -6.5h-29q-18 0 -24.5 6.5t-6.5 24.5v38q0 18 6.5 24.5t24.5 6.5h29q18 0 24.5 -6.5t6.5 -24.5v-38z" />
    <glyph glyph-name="Upsilondieresis" unicode="&#x3ab;" horiz-adv-x="344" 
d="M341 632l-110 -377v-212q0 -26 -6.5 -34.5t-26.5 -8.5h-52q-20 0 -26.5 8.5t-6.5 34.5v212l-110 377q-5 12 -0.5 23.5t18.5 11.5h67q11 0 16.5 -4.5t9.5 -19.5l51 -217q4 -11 7 -11t7 11l51 217q4 15 9.5 19.5t16.5 4.5h67q14 0 18.5 -11.5t-0.5 -23.5zM278 723
q0 -18 -6.5 -24.5t-24.5 -6.5h-29q-18 0 -24.5 6.5t-6.5 24.5v38q0 18 6.5 24.5t24.5 6.5h29q18 0 24.5 -6.5t6.5 -24.5v-38zM157 723q0 -18 -6.5 -24.5t-24.5 -6.5h-29q-18 0 -24.5 6.5t-6.5 24.5v38q0 18 6.5 24.5t24.5 6.5h29q18 0 24.5 -6.5t6.5 -24.5v-38z" />
    <glyph glyph-name="alphatonos" unicode="&#x3ac;" horiz-adv-x="459" 
d="M456 15q3 -15 -15 -15h-95q-14 0 -17 18l-19 141q-1 16 -17 16h-42q-15 0 -17 -16l-16 -143q-1 -10 -4.5 -13t-13.5 -3h-92q-9 0 -13.5 4t-3.5 11l81 614q3 22 12 30t30 8h116q18 0 27 -8.5t12 -30.5zM298 304l-19 230q-1 15 -8 15t-8 -16l-17 -229q-1 -5 2.5 -8t10.5 -3
h25q7 0 11 3t3 8zM162 655q0 -7 -10 -16l-69 -59q-10 -9 -22 -9h-62q-11 0 -11 9q0 6 5 13l45 59q12 16 22 16h88q14 0 14 -13z" />
    <glyph glyph-name="epsilontonos" unicode="&#x3ad;" horiz-adv-x="452" 
d="M449 43q0 -43 -34 -43h-204q-20 0 -27 9t-7 35v579q0 25 7.5 34.5t26.5 9.5h198q19 0 25.5 -7.5t6.5 -31.5v-37q0 -25 -6.5 -33.5t-25.5 -8.5h-98q-11 0 -14.5 -4t-3.5 -18v-93q0 -14 2.5 -17.5t15.5 -3.5h50q17 0 23 -7t6 -27v-51q0 -19 -6.5 -26t-22.5 -7h-50
q-11 0 -14.5 -3t-3.5 -12v-140q0 -13 4 -17.5t17 -4.5h99q20 0 28 -9.5t8 -33.5v-32zM162 655q0 -7 -10 -16l-69 -59q-10 -9 -22 -9h-62q-11 0 -11 9q0 6 5 13l45 59q12 16 22 16h88q14 0 14 -13z" />
    <glyph glyph-name="etatonos" unicode="&#x3ae;" horiz-adv-x="530" 
d="M504 44q0 -25 -7 -34.5t-26 -9.5h-53q-19 0 -25 10t-6 33v231q0 12 -3 16.5t-13 4.5h-60q-10 0 -13 -4.5t-3 -16.5v-231q0 -23 -6 -33t-25 -10h-53q-19 0 -26 9.5t-7 34.5v580q0 24 7.5 33.5t25.5 9.5h54q30 0 30 -42v-193q0 -19 15 -19h62q15 0 15 19v193q0 42 30 42h54
q18 0 25.5 -9.5t7.5 -33.5v-580zM162 654q0 -7 -10 -16l-69 -59q-10 -9 -22 -9h-62q-11 0 -11 9q0 7 5 13l45 59q11 16 22 16h88q14 0 14 -13z" />
    <glyph glyph-name="iotatonos" unicode="&#x3af;" horiz-adv-x="321" 
d="M295 42q0 -26 -7 -34t-26 -8h-50q-21 0 -28 8.5t-7 35.5v578q0 26 7 35.5t26 9.5h54q17 0 24 -10t7 -35v-580zM162 654q0 -7 -10 -16l-69 -59q-10 -9 -22 -9h-62q-11 0 -11 9q0 7 5 13l45 59q11 16 22 16h88q14 0 14 -13z" />
    <glyph glyph-name="upsilondieresistonos" unicode="&#x3b0;" horiz-adv-x="344" 
d="M341 632l-110 -377v-212q0 -26 -6.5 -34.5t-26.5 -8.5h-52q-20 0 -26.5 8.5t-6.5 34.5v212l-110 377q-5 12 -0.5 23.5t18.5 11.5h67q11 0 16.5 -4.5t9.5 -19.5l51 -217q4 -11 7 -11t7 11l51 217q4 15 9.5 19.5t16.5 4.5h67q14 0 18.5 -11.5t-0.5 -23.5zM368 723
q0 -18 -6.5 -24.5t-24.5 -6.5h-29q-18 0 -24.5 6.5t-6.5 24.5v38q0 18 6.5 24.5t24.5 6.5h29q18 0 24.5 -6.5t6.5 -24.5v-38zM67 723q0 -18 -6.5 -24.5t-24.5 -6.5h-29q-18 0 -24.5 6.5t-6.5 24.5v38q0 18 6.5 24.5t24.5 6.5h29q18 0 24.5 -6.5t6.5 -24.5v-38zM258 776
q0 -7 -10 -16l-69 -59q-10 -9 -22 -9h-62q-11 0 -11 9q0 7 5 13l45 59q11 16 22 16h88q14 0 14 -13z" />
    <glyph glyph-name="alpha" unicode="&#x3b1;" horiz-adv-x="371" 
d="M368 15q2 -15 -15 -15h-95q-14 0 -17 18l-19 141q-2 16 -17 16h-42q-15 0 -17 -16l-16 -143q-1 -10 -4.5 -13t-13.5 -3h-92q-9 0 -13.5 4t-3.5 11l81 614q3 22 12 30t30 8h116q18 0 27 -8.5t12 -30.5zM210 304l-19 230q-1 15 -8 15t-8 -16l-17 -229q-1 -5 2.5 -8t10.5 -3
h25q7 0 11 3t3 8z" />
    <glyph glyph-name="beta" unicode="&#x3b2;" horiz-adv-x="361" 
d="M347 180q0 -85 -24 -132.5t-84 -47.5h-181q-19 0 -25.5 9t-6.5 35v580q0 24 7 33.5t25 9.5h181q31 0 51.5 -12.5t30.5 -37t13.5 -52t3.5 -66.5q0 -118 -54 -151q63 -25 63 -168zM221 476q0 44 -10 58.5t-32 14.5h-19q-10 0 -13.5 -4t-3.5 -16v-105q0 -12 3.5 -16t13.5 -4
h19q26 0 34 15t8 57zM228 201q0 51 -11 68t-38 17h-19q-10 0 -13.5 -4t-3.5 -16v-128q0 -20 17 -20h19q30 0 39.5 17t9.5 66z" />
    <glyph glyph-name="gamma" unicode="&#x3b3;" horiz-adv-x="278" 
d="M275 591q0 -24 -7.5 -33t-26.5 -9h-81q-16 0 -16 -21v-485q0 -25 -6.5 -34t-25.5 -9h-53q-18 0 -25.5 10t-7.5 33v580q0 27 6.5 35.5t26.5 8.5h179q20 0 28.5 -10t8.5 -33v-33z" />
    <glyph glyph-name="delta" unicode="&#x3b4;" horiz-adv-x="370" 
d="M366 35q2 -15 -5.5 -25t-20.5 -10h-308q-14 0 -21.5 9.5t-5.5 24.5l79 595q3 22 12 30t30 8h116q18 0 27 -8.5t12 -30.5zM224 137l-33 381q-1 15 -8 15q-8 0 -9 -16l-31 -382q0 -17 14 -17h53q7 0 11 6.5t3 12.5z" />
    <glyph glyph-name="epsilon" unicode="&#x3b5;" horiz-adv-x="301" 
d="M298 43q0 -43 -34 -43h-204q-20 0 -27 9t-7 35v579q0 25 7.5 34.5t26.5 9.5h198q19 0 25.5 -7.5t6.5 -31.5v-37q0 -25 -6.5 -33.5t-25.5 -8.5h-98q-11 0 -14.5 -4t-3.5 -18v-93q0 -14 2.5 -17.5t15.5 -3.5h50q17 0 23 -7t6 -27v-51q0 -19 -6.5 -26t-22.5 -7h-50
q-11 0 -14.5 -3t-3.5 -12v-140q0 -13 4 -17.5t17 -4.5h99q20 0 28 -9.5t8 -33.5v-32z" />
    <glyph glyph-name="zeta" unicode="&#x3b6;" horiz-adv-x="311" 
d="M303 41q0 -24 -7.5 -32.5t-28.5 -8.5h-227q-19 0 -25.5 8t-6.5 32v75q0 34 16 69l159 347q9 18 -8 18h-125q-22 0 -27.5 7t-5.5 34v35q0 26 6 34t26 8h223q30 0 30 -39v-84q0 -20 -14 -51l-159 -351q-12 -24 9 -24h133q19 0 25.5 -8.5t6.5 -34.5v-34z" />
    <glyph glyph-name="eta" unicode="&#x3b7;" horiz-adv-x="378" 
d="M352 44q0 -25 -7 -34.5t-26 -9.5h-53q-19 0 -25 10t-6 33v231q0 12 -3 16.5t-13 4.5h-60q-10 0 -13 -4.5t-3 -16.5v-231q0 -23 -6 -33t-25 -10h-53q-19 0 -26 9.5t-7 34.5v580q0 24 7.5 33.5t25.5 9.5h54q30 0 30 -42v-193q0 -19 15 -19h62q15 0 15 19v193q0 42 30 42h54
q18 0 25.5 -9.5t7.5 -33.5v-580z" />
    <glyph glyph-name="theta" unicode="&#x3b8;" 
d="M339 335v-65t-1.5 -58t-4.5 -55.5t-8.5 -46.5t-13.5 -42t-20 -31.5t-28 -25.5t-37.5 -14t-47.5 -6q-27 0 -48.5 6t-37.5 14t-28 26t-20 31.5t-13.5 42t-8 46t-4 55.5t-1.5 58v65v65t1.5 57.5t4 54.5t8 45.5t13.5 41.5t20 30.5t28 25t37.5 13.5t48.5 6q107 0 139 -90
q22 -59 22 -222v-27zM221 432q-2 72 -10 94t-33 22q-26 0 -34.5 -23t-9.5 -93q0 -19 15 -19h58q8 0 11 3.5t3 15.5zM222 274q0 12 -3 16.5t-13 4.5h-56q-10 0 -13 -4.5t-3 -16.5q1 -96 9 -126t35 -30q28 0 36 30t8 126z" />
    <glyph glyph-name="iota" unicode="&#x3b9;" horiz-adv-x="170" 
d="M144 42q0 -26 -7 -34t-26 -8h-50q-21 0 -28 8.5t-7 35.5v578q0 26 7 35.5t26 9.5h54q17 0 24 -10t7 -35v-580z" />
    <glyph glyph-name="kappa" unicode="&#x3ba;" horiz-adv-x="375" 
d="M372 655q0 -6 -3 -12l-99 -192q-5 -9 -6 -19q-1 -6 3 -21l101 -381q4 -20 1 -25t-17 -5h-82q-13 0 -18.5 6t-9.5 23l-47 222q-7 31 -12 31q-6 0 -10 -5.5t-20 -35.5q-9 -17 -9 -56v-143q0 -26 -7 -34t-26 -8h-50q-21 0 -28 8.5t-7 35.5v578q0 26 7 35.5t26 9.5h54
q17 0 24 -10t7 -35v-149q0 -10 4 -11q3 -1 5.5 1.5t5.5 9.5l74 156q11 24 17 31t21 7h89q12 0 12 -12z" />
    <glyph glyph-name="lambda" unicode="&#x3bb;" horiz-adv-x="371" 
d="M367 21q2 -21 -14 -21h-93q-18 0 -19 18l-50 500q-1 15 -8 15t-8 -16l-44 -499q-2 -10 -5.5 -14t-13.5 -4h-90q-9 0 -14 5.5t-4 12.5l80 611q3 22 12 30t30 8h116q18 0 27 -8.5t12 -30.5z" />
    <glyph glyph-name="mu" unicode="&#x3bc;" horiz-adv-x="466" 
d="M440 43q0 -27 -6 -35t-27 -8h-53q-19 0 -25.5 9t-6.5 33v271q0 24 -4 24q-5 0 -9 -22l-40 -198q-4 -18 -11.5 -24t-24.5 -6t-24.5 6t-11.5 24l-40 198q-4 22 -9 22q-4 0 -4 -24v-271q0 -24 -6.5 -33t-25.5 -9h-53q-21 0 -27 8t-6 35v583q0 25 6.5 33t25.5 8h55
q24 0 31.5 -5t13.5 -26l67 -240q3 -9 8 -9t8 9l67 240q6 21 13.5 26t31.5 5h55q19 0 25.5 -8t6.5 -33v-583z" />
    <glyph glyph-name="nu" unicode="&#x3bd;" horiz-adv-x="391" 
d="M365 45q0 -26 -7 -35.5t-28 -9.5h-46q-18 0 -25 5t-14 26l-84 249q-5 14 -11 14q-5 0 -5 -19v-231q0 -24 -6.5 -34t-24.5 -10h-52q-19 0 -27.5 9t-8.5 36v578q0 26 7 35t28 9h46q18 0 25 -5t14 -26l84 -248q5 -14 11 -14q5 0 5 19v230q0 24 6.5 34t24.5 10h52
q19 0 27.5 -9t8.5 -36v-577z" />
    <glyph glyph-name="xi" unicode="&#x3be;" horiz-adv-x="321" 
d="M315 590q0 -24 -6.5 -32.5t-24.5 -8.5h-248q-18 0 -24 7.5t-6 32.5v34q0 26 6.5 35t26.5 9h244q18 0 25 -8.5t7 -31.5v-37zM285 336q0 -24 -6.5 -32.5t-24.5 -8.5h-188q-18 0 -24 7.5t-6 32.5v34q0 26 6.5 35t26.5 9h184q18 0 25 -8.5t7 -31.5v-37zM315 41
q0 -24 -6.5 -32.5t-24.5 -8.5h-248q-18 0 -24 7.5t-6 32.5v34q0 26 6.5 35t26.5 9h244q18 0 25 -9t7 -31v-37z" />
    <glyph glyph-name="omicron" unicode="&#x3bf;" 
d="M339 335v-65t-1.5 -58t-4.5 -55.5t-8.5 -46.5t-13.5 -42t-20 -31.5t-28 -25.5t-37.5 -14t-47.5 -6q-27 0 -48.5 6t-37.5 14t-28 26t-20 31.5t-13.5 42t-8 46t-4 55.5t-1.5 58v65v65t1.5 57.5t4 54.5t8 45.5t13.5 41.5t20 30.5t28 25t37.5 13.5t48.5 6q107 0 139 -90
q22 -59 22 -222v-27zM222 335q-1 142 -7 177.5t-37 35.5t-37.5 -36.5t-6.5 -176.5q1 -143 7 -180t37 -37t37.5 38t6.5 179z" />
    <glyph glyph-name="pi" unicode="&#x3c0;" horiz-adv-x="378" 
d="M352 38q0 -24 -6.5 -31t-26.5 -7h-53q-19 0 -25 7.5t-6 29.5v491q0 12 -3 16.5t-13 4.5h-60q-10 0 -13 -4.5t-3 -16.5v-491q0 -22 -6 -29.5t-25 -7.5h-53q-20 0 -26.5 7t-6.5 31v586q0 24 7.5 33.5t25.5 9.5h260q18 0 25.5 -9.5t7.5 -33.5v-586z" />
    <glyph glyph-name="rho" unicode="&#x3c1;" horiz-adv-x="347" 
d="M340 454q0 -101 -28.5 -153.5t-83.5 -52.5h-84v-205q0 -26 -6 -34.5t-26 -8.5h-54q-20 0 -26 8t-6 35v578q0 26 7 36t25 10h154q128 0 128 -213zM222 455q0 58 -7.5 76t-25.5 18h-29q-8 0 -12 -3.5t-4 -14.5v-148q0 -17 15 -17h33q16 0 23 16.5t7 72.5z" />
    <glyph glyph-name="sigma1" unicode="&#x3c2;" horiz-adv-x="305" 
d="M31 493q-14 31 -14 51v84q0 39 30 39h211q20 0 26 -8t6 -34v-35q0 -26 -5.5 -33.5t-23.5 -7.5h-115q-17 0 -8 -18l86 -165q10 -19 -1 -41l-86 -183q-12 -24 9 -24h121q19 0 25.5 -8.5t6.5 -34.5v-34q0 -24 -7.5 -32.5t-28.5 -8.5h-215q-19 0 -25.5 8t-6.5 32v75
q0 34 16 69l69 148q8 16 -2 34z" />
    <glyph glyph-name="sigma" unicode="&#x3c3;" horiz-adv-x="305" 
d="M31 493q-14 31 -14 51v84q0 39 30 39h211q20 0 26 -8t6 -34v-35q0 -26 -5.5 -33.5t-23.5 -7.5h-115q-17 0 -8 -18l86 -165q10 -19 -1 -41l-86 -183q-12 -24 9 -24h121q19 0 25.5 -8.5t6.5 -34.5v-34q0 -24 -7.5 -32.5t-28.5 -8.5h-215q-19 0 -25.5 8t-6.5 32v75
q0 34 16 69l69 148q8 16 -2 34z" />
    <glyph glyph-name="tau" unicode="&#x3c4;" horiz-adv-x="315" 
d="M312 590q0 -24 -6.5 -32.5t-24.5 -8.5h-52q-13 0 -13 -20v-485q0 -26 -6.5 -35t-25.5 -9h-52q-20 0 -27 8.5t-7 32.5v488q0 20 -13 20h-52q-18 0 -24 7.5t-6 32.5v34q0 26 6.5 35t26.5 9h244q18 0 25 -8.5t7 -31.5v-37z" />
    <glyph glyph-name="upsilon" unicode="&#x3c5;" horiz-adv-x="344" 
d="M341 632l-110 -377v-212q0 -26 -6.5 -34.5t-26.5 -8.5h-52q-20 0 -26.5 8.5t-6.5 34.5v212l-110 377q-5 12 -0.5 23.5t18.5 11.5h67q11 0 16.5 -4.5t9.5 -19.5l51 -217q4 -11 7 -11t7 11l51 217q4 15 9.5 19.5t16.5 4.5h67q14 0 18.5 -11.5t-0.5 -23.5z" />
    <glyph glyph-name="phi" unicode="&#x3c6;" horiz-adv-x="453" 
d="M443 354q0 -251 -144 -266q-16 -2 -16 -17v-33q0 -24 -5 -31t-27 -7h-46q-23 0 -29 7.5t-6 32.5v31q0 15 -18 17q-36 3 -62.5 21.5t-41.5 44t-24 61.5t-11.5 68t-2.5 71q0 41 6.5 78t21 72.5t43 59t68.5 28.5q21 2 21 18v16q0 23 6 32t27 9h50q20 0 25 -9t5 -32v-15
q0 -17 22 -19q52 -7 84.5 -46.5t43 -87t10.5 -104.5zM329 340q0 28 -1 46.5t-5 40.5t-14 33.5t-26 11.5v-262q46 0 46 130zM170 210v262q-29 0 -37.5 -36t-8.5 -96q0 -130 46 -130z" />
    <glyph glyph-name="chi" unicode="&#x3c7;" horiz-adv-x="342" 
d="M337 37q9 -37 -16 -37h-78q-23 0 -27 25l-36 207q-3 12 -9 12t-9 -12l-36 -207q-4 -25 -27 -25h-78q-25 0 -16 37l66 309l-66 285q-8 36 20 36h76q20 0 26 -27l36 -188q2 -13 8 -13t8 13l36 188q6 27 26 27h76q28 0 20 -36l-67 -285z" />
    <glyph glyph-name="psi" unicode="&#x3c8;" horiz-adv-x="471" 
d="M179 40q0 -24 6 -32t29 -8h46q22 0 27 7.5t5 30.5v144q0 16 17 18q37 3 64 22.5t41.5 45t23.5 63t11 67.5t2 68v160q0 15 -1 22t-8 13t-21 6h-50q-22 0 -27.5 -9t-5.5 -32v-174q0 -130 -46 -130v304q0 15 -1 22t-8 13t-21 6h-50q-22 0 -27.5 -9t-5.5 -32v-304
q-46 0 -46 130v174q0 23 -5.5 32t-27.5 9h-50q-14 0 -21 -6t-8 -13t-1 -22v-160q0 -251 140 -268q19 -2 19 -16v-142z" />
    <glyph glyph-name="omega" unicode="&#x3c9;" horiz-adv-x="355" 
d="M338 413q0 133 -32 197t-129 64q-41 0 -70.5 -12.5t-46.5 -33.5t-27 -56t-13 -71t-3 -88q0 -126 8 -183t37 -91q19 -21 2 -21h-13q-19 0 -26.5 -9t-7.5 -33v-33q0 -23 8.5 -33t28.5 -10h73q19 0 26 8.5t7 32.5v161q0 11 -8 19q-18 19 -18 192q0 83 8.5 109t35.5 26
t35 -26t8 -109q0 -173 -18 -193q-8 -11 -8 -18v-160q0 -23 7.5 -32.5t26.5 -9.5h71q20 0 28.5 10t8.5 33v33q0 24 -7.5 33t-26.5 9h-12q-17 0 2 21q29 34 37 91t8 183z" />
    <glyph glyph-name="iotadieresis" unicode="&#x3ca;" horiz-adv-x="170" 
d="M144 42q0 -26 -7 -34t-26 -8h-50q-21 0 -28 8.5t-7 35.5v578q0 26 7 35.5t26 9.5h54q17 0 24 -10t7 -35v-580zM191 723q0 -18 -6.5 -24.5t-24.5 -6.5h-29q-18 0 -24.5 6.5t-6.5 24.5v38q0 18 6.5 24.5t24.5 6.5h29q18 0 24.5 -6.5t6.5 -24.5v-38zM70 723
q0 -18 -6.5 -24.5t-24.5 -6.5h-29q-18 0 -24.5 6.5t-6.5 24.5v38q0 18 6.5 24.5t24.5 6.5h29q18 0 24.5 -6.5t6.5 -24.5v-38z" />
    <glyph glyph-name="upsilondieresis" unicode="&#x3cb;" horiz-adv-x="344" 
d="M341 632l-110 -377v-212q0 -26 -6.5 -34.5t-26.5 -8.5h-52q-20 0 -26.5 8.5t-6.5 34.5v212l-110 377q-5 12 -0.5 23.5t18.5 11.5h67q11 0 16.5 -4.5t9.5 -19.5l51 -217q4 -11 7 -11t7 11l51 217q4 15 9.5 19.5t16.5 4.5h67q14 0 18.5 -11.5t-0.5 -23.5zM278 723
q0 -18 -6.5 -24.5t-24.5 -6.5h-29q-18 0 -24.5 6.5t-6.5 24.5v38q0 18 6.5 24.5t24.5 6.5h29q18 0 24.5 -6.5t6.5 -24.5v-38zM157 723q0 -18 -6.5 -24.5t-24.5 -6.5h-29q-18 0 -24.5 6.5t-6.5 24.5v38q0 18 6.5 24.5t24.5 6.5h29q18 0 24.5 -6.5t6.5 -24.5v-38z" />
    <glyph glyph-name="omicrontonos" unicode="&#x3cc;" horiz-adv-x="461" 
d="M444 335v-65t-1.5 -58t-4.5 -55.5t-8.5 -46.5t-13.5 -42t-20 -31.5t-28 -25.5t-37.5 -14t-47.5 -6q-27 0 -48.5 6t-37.5 14t-28 26t-20 31.5t-13.5 42t-8 46t-4 55.5t-1.5 58v65v65t1.5 57.5t4 54.5t8 45.5t13.5 41.5t20 30.5t28 25t37.5 13.5t48.5 6q107 0 139 -90
q22 -59 22 -222v-27zM327 335q-1 142 -7 177.5t-37 35.5t-37.5 -36.5t-6.5 -176.5q1 -143 7 -180t37 -37t37.5 38t6.5 179zM162 654q0 -7 -10 -16l-69 -59q-10 -9 -22 -9h-62q-11 0 -11 9q0 7 5 13l45 59q11 16 22 16h88q14 0 14 -13z" />
    <glyph glyph-name="upsilontonos" unicode="&#x3cd;" horiz-adv-x="523" 
d="M520 632l-110 -377v-212q0 -26 -6.5 -34.5t-26.5 -8.5h-52q-20 0 -26.5 8.5t-6.5 34.5v212l-110 377q-5 12 -0.5 23.5t18.5 11.5h67q11 0 16.5 -4.5t9.5 -19.5l51 -217q4 -11 7 -11t7 11l51 217q4 15 9.5 19.5t16.5 4.5h67q14 0 18.5 -11.5t-0.5 -23.5zM162 654
q0 -7 -10 -16l-69 -59q-10 -9 -22 -9h-62q-11 0 -11 9q0 7 5 13l45 59q11 16 22 16h88q14 0 14 -13z" />
    <glyph glyph-name="omegatonos" unicode="&#x3ce;" horiz-adv-x="459" 
d="M442 413q0 133 -32 197t-129 64q-41 0 -70.5 -12.5t-46.5 -33.5t-27 -56t-13 -71t-3 -88q0 -126 8 -183t37 -91q19 -21 2 -21h-13q-19 0 -26.5 -9t-7.5 -33v-33q0 -23 8.5 -33t28.5 -10h73q19 0 26 8.5t7 32.5v161q0 11 -8 19q-18 19 -18 192q0 83 8.5 109t35.5 26
t35 -26t8 -109q0 -173 -18 -193q-8 -11 -8 -18v-160q0 -23 7.5 -32.5t26.5 -9.5h71q20 0 28.5 10t8.5 33v33q0 24 -7.5 33t-26.5 9h-12q-17 0 2 21q29 34 37 91t8 183zM162 654q0 -7 -10 -16l-69 -59q-10 -9 -22 -9h-62q-11 0 -11 9q0 7 5 13l45 59q11 16 22 16h88
q14 0 14 -13z" />
    <glyph glyph-name="afii10023" unicode="&#x401;" horiz-adv-x="301" 
d="M253 723q0 -18 -6.5 -24.5t-24.5 -6.5h-29q-18 0 -24.5 6.5t-6.5 24.5v38q0 18 6.5 24.5t24.5 6.5h29q18 0 24.5 -6.5t6.5 -24.5v-38zM132 723q0 -18 -6.5 -24.5t-24.5 -6.5h-29q-18 0 -24.5 6.5t-6.5 24.5v38q0 18 6.5 24.5t24.5 6.5h29q18 0 24.5 -6.5t6.5 -24.5v-38z
M298 43q0 -43 -34 -43h-204q-20 0 -27 9t-7 35v579q0 25 7.5 34.5t26.5 9.5h198q19 0 25.5 -7.5t6.5 -31.5v-37q0 -25 -6.5 -33.5t-25.5 -8.5h-98q-11 0 -14.5 -4t-3.5 -18v-93q0 -14 2.5 -17.5t15.5 -3.5h50q17 0 23 -7t6 -27v-51q0 -19 -6.5 -26t-22.5 -7h-50
q-11 0 -14.5 -3t-3.5 -12v-140q0 -13 4 -17.5t17 -4.5h99q20 0 28 -9.5t8 -33.5v-32z" />
    <glyph glyph-name="afii10051" unicode="&#x402;" horiz-adv-x="459" 
d="M445 207q0 -207 -132 -207h-24q-22 0 -28.5 8t-6.5 33v37q0 24 6 32t23 8q15 0 19 1q20 0 25 24t5 69q0 57 -21 73t-61 16h-16q-19 0 -19 -24v-235q0 -15 -3 -24t-9 -12.5t-9.5 -4.5t-9.5 -1h-53q-20 0 -26.5 11t-6.5 33v485q0 20 -13 20h-52q-18 0 -24 7.5t-6 32.5v34
q0 26 6.5 35t26.5 9h244q18 0 25 -8.5t7 -31.5v-37q0 -24 -6.5 -32.5t-24.5 -8.5h-53q-13 0 -13 -20v-89q0 -6 0.5 -8.5t1.5 -6t4.5 -5t8.5 -1.5h24q36 0 57.5 -2.5t50 -14t44.5 -33t27.5 -62.5t11.5 -100z" />
    <glyph glyph-name="afii10052" unicode="&#x403;" horiz-adv-x="287" 
d="M143 522v-480q0 -24 -6 -33t-23 -9h-56q-19 0 -25.5 8.5t-6.5 33.5v579q0 28 6.5 37t26.5 9h190q20 0 27.5 -9.5t7.5 -33.5v-35q0 -22 -7 -31t-24 -9h-92q-12 0 -15 -5t-3 -22zM247 776q0 -7 -10 -16l-69 -59q-10 -9 -22 -9h-62q-11 0 -11 9q0 7 5 13l45 59q11 16 22 16
h88q14 0 14 -13z" />
    <glyph glyph-name="afii10053" unicode="&#x404;" horiz-adv-x="290" 
d="M137 280q2 -121 9 -141q5 -14 10.5 -17.5t19.5 -3.5h78q18 0 25 -7.5t7 -26.5v-48q0 -20 -6.5 -28t-23.5 -8h-119q-32 0 -51.5 8.5t-34 27.5t-21.5 58t-10 91t-3 136q-1 214 18 280t97 66h124q17 0 24 -8t7 -27v-45q0 -23 -6.5 -30.5t-26.5 -7.5h-76q-28 0 -33 -23
t-8 -92q0 -14 2.5 -17.5t15.5 -3.5h61q17 0 23 -7t6 -27v-51q0 -19 -6.5 -26t-22.5 -7h-61q-11 0 -14.5 -3t-3.5 -12z" />
    <glyph glyph-name="afii10054" unicode="&#x405;" horiz-adv-x="302" 
d="M297 107q0 -107 -107 -107h-149q-20 0 -26.5 8t-6.5 33v35q0 26 6 34t26 8h103q20 0 25.5 16.5t-4.5 32.5l-113 213q-46 87 -46 166q0 66 30 93.5t94 27.5h114q28 0 28 -36v-44q0 -21 -7 -29.5t-24 -8.5h-89q-24 0 -29.5 -18.5t7.5 -40.5l107 -197q38 -70 49.5 -107.5
t11.5 -78.5z" />
    <glyph glyph-name="afii10055" unicode="&#x406;" horiz-adv-x="170" 
d="M144 42q0 -26 -7 -34t-26 -8h-50q-21 0 -28 8.5t-7 35.5v578q0 26 7 35.5t26 9.5h54q17 0 24 -10t7 -35v-580z" />
    <glyph glyph-name="afii10056" unicode="&#x407;" horiz-adv-x="170" 
d="M192 723q0 -18 -6.5 -24.5t-24.5 -6.5h-29q-18 0 -24.5 6.5t-6.5 24.5v38q0 18 6.5 24.5t24.5 6.5h29q18 0 24.5 -6.5t6.5 -24.5v-38zM71 723q0 -18 -6.5 -24.5t-24.5 -6.5h-29q-18 0 -24.5 6.5t-6.5 24.5v38q0 18 6.5 24.5t24.5 6.5h29q18 0 24.5 -6.5t6.5 -24.5v-38z
M144 42q0 -26 -7 -34t-26 -8h-50q-21 0 -28 8.5t-7 35.5v578q0 26 7 35.5t26 9.5h54q17 0 24 -10t7 -35v-580z" />
    <glyph glyph-name="afii10057" unicode="&#x408;" horiz-adv-x="230" 
d="M211 171q0 -73 -23 -116q-30 -55 -101 -55h-49q-22 0 -28.5 8t-6.5 33v37q0 25 6.5 32.5t25.5 7.5h26q18 0 25 9t7 35v463q0 26 6.5 34t27.5 8h50q21 0 27.5 -8t6.5 -33v-455z" />
    <glyph glyph-name="afii10058" unicode="&#x409;" horiz-adv-x="596" 
d="M131 667h221q19 0 26.5 -9.5t7.5 -33.5v-205h84q55 0 83.5 -52.5t28.5 -153.5q0 -213 -128 -213h-154q-10 0 -15.5 1.5t-10.5 11t-5 28.5v490q0 18 -15 18h-25q-11 0 -14.5 -4t-3.5 -18l-2 -139q-5 -209 -49 -315q-32 -76 -110 -76h-21q-26 0 -26 28v69q0 24 19 24h9
q68 0 68 411q0 22 -0.5 44t-0.5 35.5v15.5q0 20 6.5 30t12 11.5t14.5 1.5zM464 212q0 56 -7 72.5t-23 16.5h-33q-15 0 -15 -17v-148q0 -11 4 -14.5t12 -3.5h29q18 0 25.5 18t7.5 76z" />
    <glyph glyph-name="afii10059" unicode="&#x40a;" horiz-adv-x="563" 
d="M266 0h155q128 0 128 213q0 101 -28.5 153.5t-83.5 52.5h-84v205q0 24 -7.5 33.5t-26.5 9.5h-54q-30 0 -30 -42v-187q0 -19 -15 -19h-62q-15 0 -15 19v187q0 42 -30 42h-54q-18 0 -25.5 -9.5t-7.5 -33.5v-580q0 -25 7 -34.5t26 -9.5h53q19 0 25 10t6 33v237q0 12 3 16.5
t13 4.5h60q10 0 13 -4.5t3 -16.5v-237q0 -23 6 -33t25 -10zM431 212q0 -58 -7.5 -76t-25.5 -18h-29q-8 0 -12 3.5t-4 14.5v148q0 17 15 17h33q16 0 23 -16.5t7 -72.5z" />
    <glyph glyph-name="afii10060" unicode="&#x40b;" horiz-adv-x="436" 
d="M98 45v484q0 20 -13 20h-52q-18 0 -24 7.5t-6 32.5v34q0 26 6.5 35t26.5 9h244q18 0 25 -8.5t7 -31.5v-37q0 -24 -6.5 -32.5t-24.5 -8.5h-53q-13 0 -13 -20v-89q0 -18 9 -20q2 -1 6 -1h24q77 0 99 -8q52 -19 59 -109q2 -19 2 -43v-215q0 -16 -3.5 -25.5t-10 -13t-9.5 -4
t-10 -0.5h-54q-30 0 -30 42v211q0 22 -6.5 32.5t-14.5 12.5t-24 2h-18q-19 0 -19 -25v-233q0 -15 -3.5 -25t-10 -13t-9.5 -3.5t-9 -0.5h-52q-20 0 -26.5 11t-6.5 33z" />
    <glyph glyph-name="afii10061" unicode="&#x40c;" horiz-adv-x="375" 
d="M18 45v578q0 21 5.5 31t11.5 11.5t17 1.5h49q10 0 14 -0.5t10 -4.5t8 -13.5t2 -25.5v-150q0 -11 6 -11q3 0 9 11l75 158q7 15 9 18.5t6.5 9.5t9 7t12.5 1h89q16 0 12 -12l-3 -12l-99 -192q-6 -10 -6 -19q0 -10 2 -17l102 -385q5 -10 3 -20t-19 -10h-82q-10 0 -16.5 5.5
t-8 10t-3.5 13.5l-51 239q-3 21 -10 21q-6 0 -13 -17l-16 -34q-8 -16 -8 -33v-164q0 -26 -5.5 -33.5t-24.5 -7.5h-52q-22 0 -28.5 7t-6.5 38zM295 776q0 -7 -10 -16l-69 -59q-10 -9 -22 -9h-62q-11 0 -11 9q0 7 5 13l45 59q11 16 22 16h88q14 0 14 -13z" />
    <glyph glyph-name="afii10062" unicode="&#x40e;" horiz-adv-x="364" 
d="M128 635l52 -284q3 -15 8 -15q8 0 9 15l47 284q1 11 2.5 16t7 10.5t16.5 5.5h74q14 0 17 -7t0 -20l-102 -503q-11 -62 -47.5 -101t-92.5 -39h-50q-19 0 -29 7t-11.5 14.5t-1.5 22.5v39q0 6 2.5 13.5t10.5 16t20 8.5h17q20 0 30.5 14t2.5 46l-107 462q-6 27 18 27h80
q15 0 19 -5.5t8 -26.5zM307 790q0 -39 -29.5 -68t-96.5 -29t-97 29t-30 68q0 13 11 13h27q10 0 13 -13q4 -14 19.5 -19.5t56.5 -5.5t57 6t18 19q5 13 12 13h28q11 0 11 -13z" />
    <glyph glyph-name="afii10145" unicode="&#x40f;" horiz-adv-x="378" 
d="M59 0h46q16 0 16 -15v-79q0 -11 1.5 -17.5t9.5 -12t24 -5.5h43q16 0 24 5.5t9.5 12t1.5 17.5v79q0 15 16 15h69q18 0 25.5 9.5t7.5 33.5v580q0 25 -7 34.5t-26 9.5h-53q-19 0 -25 -10t-6 -33v-486q0 -12 -3 -16.5t-13 -4.5h-60q-16 0 -16 23v484q0 23 -6 33t-25 10h-53
q-19 0 -26 -9.5t-7 -34.5v-580q0 -24 7.5 -33.5t25.5 -9.5z" />
    <glyph glyph-name="afii10017" unicode="&#x410;" horiz-adv-x="371" 
d="M368 15q2 -15 -15 -15h-95q-14 0 -17 18l-19 141q-2 16 -17 16h-42q-15 0 -17 -16l-16 -143q-1 -10 -4.5 -13t-13.5 -3h-92q-9 0 -13.5 4t-3.5 11l81 614q3 22 12 30t30 8h116q18 0 27 -8.5t12 -30.5zM210 304l-19 230q-1 15 -8 15t-8 -16l-17 -229q-1 -5 2.5 -8t10.5 -3
h25q7 0 11 3t3 8z" />
    <glyph glyph-name="afii10018" unicode="&#x411;" horiz-adv-x="354" 
d="M222 212q0 -58 -7.5 -76t-25.5 -18h-29q-8 0 -12 3.5t-4 14.5v148q0 17 15 17h33q16 0 23 -16.5t7 -72.5zM26 621v-575q0 -26 7 -36t25 -10h154q128 0 128 213q0 101 -28.5 153.5t-83.5 52.5h-84l-1 103q0 17 3 22t15 5h117q17 0 24 9t7 31v35q0 24 -7.5 33.5t-27.5 9.5
h-215q-20 0 -26.5 -9t-6.5 -37z" />
    <glyph glyph-name="afii10019" unicode="&#x412;" horiz-adv-x="361" 
d="M347 180q0 -85 -24 -132.5t-84 -47.5h-181q-19 0 -25.5 9t-6.5 35v580q0 24 7 33.5t25 9.5h181q31 0 51.5 -12.5t30.5 -37t13.5 -52t3.5 -66.5q0 -118 -54 -151q63 -25 63 -168zM221 476q0 44 -10 58.5t-32 14.5h-19q-10 0 -13.5 -4t-3.5 -16v-105q0 -12 3.5 -16t13.5 -4
h19q26 0 34 15t8 57zM228 201q0 51 -11 68t-38 17h-19q-10 0 -13.5 -4t-3.5 -16v-128q0 -20 17 -20h19q30 0 39.5 17t9.5 66z" />
    <glyph glyph-name="afii10020" unicode="&#x413;" horiz-adv-x="287" 
d="M143 522v-480q0 -24 -6 -33t-23 -9h-56q-19 0 -25.5 8.5t-6.5 33.5v579q0 28 6.5 37t26.5 9h190q20 0 27.5 -9.5t7.5 -33.5v-35q0 -22 -7 -31t-24 -9h-92q-12 0 -15 -5t-3 -22z" />
    <glyph glyph-name="afii10021" unicode="&#x414;" horiz-adv-x="454" 
d="M147 667h210q16 0 24 -5.5t9.5 -12t1.5 -17.5v-500q0 -10 1.5 -12t10.5 -2h12q16 0 24 -5.5t9.5 -12t1.5 -17.5v-177q0 -16 -5.5 -24t-12 -9.5t-17.5 -1.5h-43q-16 0 -24 5.5t-9.5 12t-1.5 17.5v79q0 15 -16 15h-188q-18 0 -18 -19v-75q0 -16 -5.5 -24t-12 -9.5
t-17.5 -1.5h-43q-16 0 -24 5.5t-9.5 12t-1.5 17.5v177q0 22 7.5 28.5t22.5 6.5h7q5 0 12.5 16.5t16 52t14.5 79.5q18 129 26 300l3 72q0 14 6 20.5t11.5 7.5t17.5 1zM275 132v404q0 12 -12 12h-31q-13 0 -14 -17l-3 -53q-8 -154 -15 -214q-11 -94 -20 -131q-2 -5 0 -8
q2 -7 14 -7h67h6t5 3.5t3 10.5z" />
    <glyph glyph-name="afii10022" unicode="&#x415;" horiz-adv-x="301" 
d="M298 43q0 -43 -34 -43h-204q-20 0 -27 9t-7 35v579q0 25 7.5 34.5t26.5 9.5h198q19 0 25.5 -7.5t6.5 -31.5v-37q0 -25 -6.5 -33.5t-25.5 -8.5h-98q-11 0 -14.5 -4t-3.5 -18v-93q0 -14 2.5 -17.5t15.5 -3.5h50q17 0 23 -7t6 -27v-51q0 -19 -6.5 -26t-22.5 -7h-50
q-11 0 -14.5 -3t-3.5 -12v-140q0 -13 4 -17.5t17 -4.5h99q20 0 28 -9.5t8 -33.5v-32z" />
    <glyph glyph-name="afii10024" unicode="&#x416;" horiz-adv-x="559" 
d="M451 385l101 -355q4 -10 4 -16q0 -14 -20 -14h-82q-6 0 -10 1.5t-6.5 3t-4.5 5.5t-3 5.5t-2.5 7t-1.5 6.5l-68 251q-3 11 -11 11q-9 0 -9 -13v-238q0 -12 -1 -19t-8.5 -14t-21.5 -7h-53q-11 0 -16.5 1.5t-11 12t-5.5 30.5v234q0 13 -9 13q-8 0 -11 -11l-68 -251
q-2 -10 -3.5 -14t-7.5 -9.5t-17 -5.5h-82q-20 0 -20 14q0 6 4 16l101 355l-83 230q-10 28 -10 34q0 18 26 18h65q28 0 37 -28l61 -200q3 -12 10 -12t7 18v179q0 20 6.5 30t12 11.5t13.5 1.5h55q30 0 30 -42v-180q0 -18 7 -18t10 12l61 200q9 28 37 28h65q26 0 26 -18
q0 -6 -10 -34z" />
    <glyph glyph-name="afii10025" unicode="&#x417;" horiz-adv-x="287" 
d="M11 592v34q0 27 7 34t26 7h112q50 0 76 -22q36 -31 36 -133q0 -60 -11.5 -98t-48.5 -60q21 -13 32 -23.5t22 -46t11 -92.5q0 -117 -34 -157q-31 -35 -92 -35h-111q-19 0 -26 7t-7 34v34q0 16 2 25t7.5 12.5t10 4.5t13.5 1h79q23 0 30.5 22t7.5 70q0 45 -7 64.5t-25 19.5
h-48q-19 0 -24.5 7.5t-5.5 34.5v35q0 27 5.5 34.5t24.5 7.5h48q30 0 30 68t-36 68h-71q-9 0 -13.5 1t-10 4.5t-7.5 12.5t-2 25z" />
    <glyph glyph-name="afii10026" unicode="&#x418;" horiz-adv-x="391" 
d="M26 45v577q0 27 8.5 36t27.5 9h52q18 0 24.5 -10t6.5 -34v-230q0 -19 5 -19q6 0 11 14l84 248q7 21 14 26t25 5h46q21 0 28 -9t7 -35v-578q0 -27 -8.5 -36t-27.5 -9h-52q-18 0 -24.5 10t-6.5 34v231q0 19 -5 19q-6 0 -11 -14l-84 -249q-7 -20 -13.5 -25.5t-25.5 -5.5h-46
q-21 0 -28 9.5t-7 35.5z" />
    <glyph glyph-name="afii10027" unicode="&#x419;" horiz-adv-x="391" 
d="M26 45v577q0 27 8.5 36t27.5 9h52q18 0 24.5 -10t6.5 -34v-230q0 -19 5 -19q6 0 11 14l84 248q7 21 14 26t25 5h46q21 0 28 -9t7 -35v-578q0 -27 -8.5 -36t-27.5 -9h-52q-18 0 -24.5 10t-6.5 34v231q0 19 -5 19q-6 0 -11 -14l-84 -249q-7 -20 -13.5 -25.5t-25.5 -5.5h-46
q-21 0 -28 9.5t-7 35.5zM321 790q0 -39 -29.5 -68t-96.5 -29t-97 29t-30 68q0 13 11 13h27q10 0 13 -13q4 -14 19.5 -19.5t56.5 -5.5t57 6t18 19q5 13 12 13h28q11 0 11 -13z" />
    <glyph glyph-name="afii10028" unicode="&#x41a;" horiz-adv-x="375" 
d="M372 655q0 -6 -3 -12l-99 -192q-5 -9 -6 -19q-1 -6 3 -21l101 -381q4 -20 1 -25t-17 -5h-82q-13 0 -18.5 6t-9.5 23l-47 222q-7 31 -12 31q-6 0 -10 -5.5t-20 -35.5q-9 -17 -9 -56v-143q0 -26 -7 -34t-26 -8h-50q-21 0 -28 8.5t-7 35.5v578q0 26 7 35.5t26 9.5h54
q17 0 24 -10t7 -35v-149q0 -10 4 -11q3 -1 5.5 1.5t5.5 9.5l74 156q11 24 17 31t21 7h89q12 0 12 -12z" />
    <glyph glyph-name="afii10029" unicode="&#x41b;" horiz-adv-x="411" 
d="M211 527l-2 -139q-5 -209 -49 -315q-32 -76 -110 -76h-21q-26 0 -26 28v69q0 24 19 24h9q68 0 68 411q0 22 -0.5 44t-0.5 35.5v15.5q0 20 6.5 30t12 11.5t14.5 1.5h221q20 0 26.5 -11t6.5 -33v-582q0 -19 -4 -28.5t-9.5 -11t-15.5 -1.5h-56q-10 0 -15.5 1.5t-10.5 11
t-5 28.5v490q0 18 -15 18h-25q-11 0 -14.5 -4t-3.5 -18z" />
    <glyph glyph-name="afii10030" unicode="&#x41c;" horiz-adv-x="466" 
d="M440 43q0 -27 -6 -35t-27 -8h-53q-19 0 -25.5 9t-6.5 33v271q0 24 -4 24q-5 0 -9 -22l-40 -198q-4 -18 -11.5 -24t-24.5 -6t-24.5 6t-11.5 24l-40 198q-4 22 -9 22q-4 0 -4 -24v-271q0 -24 -6.5 -33t-25.5 -9h-53q-21 0 -27 8t-6 35v583q0 25 6.5 33t25.5 8h55
q24 0 31.5 -5t13.5 -26l67 -240q3 -9 8 -9t8 9l67 240q6 21 13.5 26t31.5 5h55q19 0 25.5 -8t6.5 -33v-583z" />
    <glyph glyph-name="afii10031" unicode="&#x41d;" horiz-adv-x="378" 
d="M352 44q0 -25 -7 -34.5t-26 -9.5h-53q-19 0 -25 10t-6 33v231q0 12 -3 16.5t-13 4.5h-60q-10 0 -13 -4.5t-3 -16.5v-231q0 -23 -6 -33t-25 -10h-53q-19 0 -26 9.5t-7 34.5v580q0 24 7.5 33.5t25.5 9.5h54q30 0 30 -42v-193q0 -19 15 -19h62q15 0 15 19v193q0 42 30 42h54
q18 0 25.5 -9.5t7.5 -33.5v-580z" />
    <glyph glyph-name="afii10032" unicode="&#x41e;" 
d="M339 335v-65t-1.5 -58t-4.5 -55.5t-8.5 -46.5t-13.5 -42t-20 -31.5t-28 -25.5t-37.5 -14t-47.5 -6q-27 0 -48.5 6t-37.5 14t-28 26t-20 31.5t-13.5 42t-8 46t-4 55.5t-1.5 58v65v65t1.5 57.5t4 54.5t8 45.5t13.5 41.5t20 30.5t28 25t37.5 13.5t48.5 6q107 0 139 -90
q22 -59 22 -222v-27zM222 335q-1 142 -7 177.5t-37 35.5t-37.5 -36.5t-6.5 -176.5q1 -143 7 -180t37 -37t37.5 38t6.5 179z" />
    <glyph glyph-name="afii10033" unicode="&#x41f;" horiz-adv-x="378" 
d="M59 667h260q18 0 25.5 -9.5t7.5 -33.5v-580q0 -25 -7 -34.5t-26 -9.5h-53q-19 0 -25 10t-6 33v486q0 12 -3 16.5t-13 4.5h-60q-16 0 -16 -23v-484q0 -23 -6 -33t-25 -10h-53q-19 0 -26 9.5t-7 34.5v580q0 24 7.5 33.5t25.5 9.5z" />
    <glyph glyph-name="afii10034" unicode="&#x420;" horiz-adv-x="347" 
d="M340 454q0 -101 -28.5 -153.5t-83.5 -52.5h-84v-205q0 -26 -6 -34.5t-26 -8.5h-54q-20 0 -26 8t-6 35v578q0 26 7 36t25 10h154q128 0 128 -213zM222 455q0 58 -7.5 76t-25.5 18h-29q-8 0 -12 -3.5t-4 -14.5v-148q0 -17 15 -17h33q16 0 23 16.5t7 72.5z" />
    <glyph glyph-name="afii10035" unicode="&#x421;" horiz-adv-x="290" 
d="M287 587q0 -23 -6.5 -30.5t-26.5 -7.5h-76q-24 0 -30 -14q-11 -23 -11 -186v-17q0 -82 1 -122t6 -62.5t11 -26t21 -3.5h78q18 0 25 -7.5t7 -26.5v-48q0 -20 -6.5 -28t-23.5 -8h-119q-32 0 -51.5 8.5t-34 27.5t-21.5 58t-10 91t-3 136q-1 214 18 280t97 66h124q17 0 24 -8
t7 -27v-45z" />
    <glyph glyph-name="afii10036" unicode="&#x422;" horiz-adv-x="315" 
d="M312 590q0 -24 -6.5 -32.5t-24.5 -8.5h-52q-13 0 -13 -20v-485q0 -26 -6.5 -35t-25.5 -9h-52q-20 0 -27 8.5t-7 32.5v488q0 20 -13 20h-52q-18 0 -24 7.5t-6 32.5v34q0 26 6.5 35t26.5 9h244q18 0 25 -8.5t7 -31.5v-37z" />
    <glyph glyph-name="afii10037" unicode="&#x423;" horiz-adv-x="364" 
d="M128 635l52 -284q3 -15 8 -15q8 0 9 15l47 284q1 11 2.5 16t7 10.5t16.5 5.5h74q14 0 17 -7t0 -20l-102 -503q-11 -62 -47.5 -101t-92.5 -39h-50q-19 0 -29 7t-11.5 14.5t-1.5 22.5v39q0 6 2.5 13.5t10.5 16t20 8.5h17q20 0 30.5 14t2.5 46l-107 462q-6 27 18 27h80
q15 0 19 -5.5t8 -26.5z" />
    <glyph glyph-name="afii10038" unicode="&#x424;" horiz-adv-x="534" 
d="M404 340q0 4 0.5 21.5t0 24.5l-1.5 22t-4.5 22l-8.5 16.5t-13.5 13t-19.5 3.5h-15q-8 0 -12 -3.5t-4 -14.5v-210q0 -17 15 -17h16q12 0 20.5 3.5t13.5 12.5t8 16.5t4 21.5t1.5 22t0 24.5t-0.5 21.5zM130 340q0 -5 -0.5 -22t0 -24.5l1.5 -22t4 -21.5t8.5 -16t14 -12.5
t20.5 -3.5h15q15 0 15 17v210q0 11 -4 14.5t-12 3.5h-15q-11 0 -19.5 -3.5t-13.5 -13l-8.5 -16.5t-4.5 -22l-1.5 -22t0 -24.5t0.5 -21.5zM208 100h-32q-41 0 -71 12.5t-47.5 32.5t-28 52t-14 65t-3.5 77q0 115 36.5 177t128.5 65l31 1v56q0 42 30 42h58q30 0 30 -42v-56
l32 -1q89 -3 126.5 -60t37.5 -182q0 -55 -7 -95t-24 -74t-50 -52t-82 -18h-33v-56q0 -26 -6.5 -35t-25.5 -9h-52q-20 0 -27 8.5t-7 32.5v59z" />
    <glyph glyph-name="afii10039" unicode="&#x425;" horiz-adv-x="342" 
d="M337 37q9 -37 -16 -37h-78q-23 0 -27 25l-36 207q-3 12 -9 12t-9 -12l-36 -207q-4 -25 -27 -25h-78q-25 0 -16 37l66 309l-66 285q-8 36 20 36h76q20 0 26 -27l36 -188q2 -13 8 -13t8 13l36 188q6 27 26 27h76q28 0 20 -36l-67 -285z" />
    <glyph glyph-name="afii10040" unicode="&#x426;" horiz-adv-x="414" 
d="M352 626v-486q0 -22 16 -22h8q16 0 24 -5.5t9.5 -12t1.5 -17.5v-177q0 -16 -5.5 -24t-12 -9.5t-17.5 -1.5h-43q-16 0 -24 5.5t-9.5 12t-1.5 17.5v79q0 15 -16 15h-223h-7.5t-8.5 2t-8.5 6t-5.5 13t-3 22v580q0 20 5.5 30.5t11 12t16.5 1.5h53q15 0 22 -8t8 -15t1 -20
v-479q0 -27 18 -27h56q18 0 18 27v481q0 19 5 28.5t10.5 11t15.5 1.5h57q10 0 15.5 -1.5t9.5 -11t4 -28.5z" />
    <glyph glyph-name="afii10041" unicode="&#x427;" horiz-adv-x="364" 
d="M338 623v-582q0 -19 -4 -28.5t-9.5 -11t-15.5 -1.5h-57q-10 0 -15.5 1.5t-10.5 11t-5 28.5v187q0 18 -9 20q-2 1 -6 1h-24q-77 0 -99 8q-52 19 -59 109q-2 19 -2 43v215q0 16 3.5 25.5t10 13t9.5 4t10 0.5h54q30 0 30 -42v-211q0 -22 6.5 -32.5t14.5 -12.5t24 -2h18
q19 0 19 25v233q0 15 3.5 25t10 13t9.5 3.5t9 0.5h52q20 0 26.5 -11t6.5 -33z" />
    <glyph glyph-name="afii10042" unicode="&#x428;" horiz-adv-x="557" 
d="M337 626v-487q0 -21 16 -21h46q15 0 15 18v3v487q0 19 5 28.5t10.5 11t15.5 1.5h57q10 0 15.5 -1.5t9.5 -11t4 -28.5v-582q0 -14 -2 -22.5t-9.5 -15t-21.5 -6.5h-439h-7.5t-8.5 2t-8.5 6t-5.5 13t-3 22v580q0 20 5.5 30.5t11 12t16.5 1.5h53q15 0 22 -8t8 -15t1 -20v-485
q0 -21 16 -21h46q15 0 15 18v3v487q0 19 5 28.5t10.5 11t15.5 1.5h57q10 0 15.5 -1.5t9.5 -11t4 -28.5z" />
    <glyph glyph-name="afii10043" unicode="&#x429;" horiz-adv-x="593" 
d="M337 626v-487q0 -21 16 -21h46q15 0 15 18v3v487q0 19 5 28.5t10.5 11t15.5 1.5h57q10 0 15.5 -1.5t9.5 -11t4 -28.5v-494q0 -10 1.5 -12t10.5 -2h12q11 0 17.5 -1.5t12 -9.5t5.5 -24v-177q0 -16 -5.5 -24t-12 -9.5t-17.5 -1.5h-43q-16 0 -24 5.5t-9.5 12t-1.5 17.5v79
q0 15 -16 15h-402h-7.5t-8.5 2t-8.5 6t-5.5 13t-3 22v580q0 20 5.5 30.5t11 12t16.5 1.5h53q15 0 22 -8t8 -15t1 -20v-485q0 -21 16 -21h46q15 0 15 18v3v487q0 19 5 28.5t10.5 11t15.5 1.5h57q10 0 15.5 -1.5t9.5 -11t4 -28.5z" />
    <glyph glyph-name="afii10044" unicode="&#x42a;" horiz-adv-x="426" 
d="M294 212q0 -58 -7.5 -76t-25.5 -18h-29q-8 0 -12 3.5t-4 14.5v148q0 17 15 17h33q16 0 23 -16.5t7 -72.5zM98 529v-483q0 -26 7 -36t25 -10h154q128 0 128 213q0 101 -28.5 153.5t-83.5 52.5h-84v205q0 24 -8 33.5t-27 9.5h-145q-20 0 -26.5 -9t-6.5 -35v-34
q0 -25 6 -32.5t24 -7.5h52q13 0 13 -20z" />
    <glyph glyph-name="afii10045" unicode="&#x42b;" horiz-adv-x="524" 
d="M222 212q0 -58 -7.5 -76t-25.5 -18h-29q-8 0 -12 3.5t-4 14.5v148q0 17 15 17h33q16 0 23 -16.5t7 -72.5zM144 419v205q0 24 -7.5 33.5t-27.5 9.5h-50q-20 0 -26.5 -9t-6.5 -37v-575q0 -26 7 -36t25 -10h154q128 0 128 213q0 101 -28.5 153.5t-83.5 52.5h-84zM498 42
q0 -26 -7 -34t-26 -8h-50q-21 0 -28 8.5t-7 35.5v578q0 26 7 35.5t26 9.5h54q17 0 24 -10t7 -35v-580z" />
    <glyph glyph-name="afii10046" unicode="&#x42c;" horiz-adv-x="354" 
d="M222 212q0 -58 -7.5 -76t-25.5 -18h-29q-8 0 -12 3.5t-4 14.5v148q0 17 15 17h33q16 0 23 -16.5t7 -72.5zM144 419v205q0 24 -7.5 33.5t-27.5 9.5h-50q-20 0 -26.5 -9t-6.5 -37v-575q0 -26 7 -36t25 -10h154q128 0 128 213q0 101 -28.5 153.5t-83.5 52.5h-84z" />
    <glyph glyph-name="afii10047" unicode="&#x42d;" horiz-adv-x="290" 
d="M153 280q-2 -121 -9 -141q-5 -14 -10.5 -17.5t-19.5 -3.5h-78q-18 0 -25 -7.5t-7 -26.5v-48q0 -20 6.5 -28t23.5 -8h119q32 0 51.5 8.5t34 27.5t21.5 58t10 91t3 136q1 214 -18 280t-97 66h-124q-17 0 -24 -8t-7 -27v-45q0 -23 6.5 -30.5t26.5 -7.5h76q28 0 33 -23t8 -92
q0 -14 -2.5 -17.5t-15.5 -3.5h-61q-17 0 -23 -7t-6 -27v-51q0 -19 6.5 -26t22.5 -7h61q11 0 14.5 -3t3.5 -12z" />
    <glyph glyph-name="afii10048" unicode="&#x42e;" horiz-adv-x="542" 
d="M203 276q0 19 -15 19h-29q-16 0 -16 -21v-231q0 -13 -1 -20t-8 -15t-22 -8h-53q-11 0 -16.5 1.5t-11 12t-5.5 30.5v580q0 16 3.5 25.5t10 13t9.5 4t10 0.5h54q30 0 30 -42v-193q0 -19 15 -19h29q16 0 16 22q2 47 5.5 79t14 65t27.5 52t45.5 31t68.5 12q107 0 139 -90
q22 -59 22 -222v-27v-65t-1.5 -58t-4.5 -55.5t-8.5 -46.5t-13.5 -42t-20 -31.5t-28 -25.5t-37.5 -14t-47.5 -6q-43 0 -73 14t-46.5 36t-26 62t-12 77t-3.5 96zM408 335q-1 142 -7 177.5t-37 35.5t-37.5 -36.5t-6.5 -176.5q1 -143 7 -180t37 -37t37.5 38t6.5 179z" />
    <glyph glyph-name="afii10049" unicode="&#x42f;" horiz-adv-x="351" 
d="M5 14q0 -14 18 -14h78q14 0 19 5.5t8 23.5l41 240q2 9 12 9h14q11 0 11 -9v-227q0 -23 7.5 -32.5t25.5 -9.5h54q19 0 25.5 9t6.5 34v579q0 26 -7.5 35.5t-26.5 9.5h-143q-137 0 -137 -206q0 -56 12.5 -90.5t41.5 -59.5l-58 -284q-2 -10 -2 -13zM127 476q0 73 34 73h32
q13 0 13 -14v-121q0 -18 -10 -18h-33q-36 0 -36 80z" />
    <glyph glyph-name="afii10065" unicode="&#x430;" horiz-adv-x="371" 
d="M368 15q2 -15 -15 -15h-95q-14 0 -17 18l-19 141q-2 16 -17 16h-42q-15 0 -17 -16l-16 -143q-1 -10 -4.5 -13t-13.5 -3h-92q-9 0 -13.5 4t-3.5 11l81 614q3 22 12 30t30 8h116q18 0 27 -8.5t12 -30.5zM210 304l-19 230q-1 15 -8 15t-8 -16l-17 -229q-1 -5 2.5 -8t10.5 -3
h25q7 0 11 3t3 8z" />
    <glyph glyph-name="afii10066" unicode="&#x431;" horiz-adv-x="354" 
d="M222 212q0 -58 -7.5 -76t-25.5 -18h-29q-8 0 -12 3.5t-4 14.5v148q0 17 15 17h33q16 0 23 -16.5t7 -72.5zM26 621v-575q0 -26 7 -36t25 -10h154q128 0 128 213q0 101 -28.5 153.5t-83.5 52.5h-84l-1 103q0 17 3 22t15 5h117q17 0 24 9t7 31v35q0 24 -7.5 33.5t-27.5 9.5
h-215q-20 0 -26.5 -9t-6.5 -37z" />
    <glyph glyph-name="afii10067" unicode="&#x432;" horiz-adv-x="361" 
d="M347 180q0 -85 -24 -132.5t-84 -47.5h-181q-19 0 -25.5 9t-6.5 35v580q0 24 7 33.5t25 9.5h181q31 0 51.5 -12.5t30.5 -37t13.5 -52t3.5 -66.5q0 -118 -54 -151q63 -25 63 -168zM221 476q0 44 -10 58.5t-32 14.5h-19q-10 0 -13.5 -4t-3.5 -16v-105q0 -12 3.5 -16t13.5 -4
h19q26 0 34 15t8 57zM228 201q0 51 -11 68t-38 17h-19q-10 0 -13.5 -4t-3.5 -16v-128q0 -20 17 -20h19q30 0 39.5 17t9.5 66z" />
    <glyph glyph-name="afii10068" unicode="&#x433;" horiz-adv-x="287" 
d="M143 522v-480q0 -24 -6 -33t-23 -9h-56q-19 0 -25.5 8.5t-6.5 33.5v579q0 28 6.5 37t26.5 9h190q20 0 27.5 -9.5t7.5 -33.5v-35q0 -22 -7 -31t-24 -9h-92q-12 0 -15 -5t-3 -22z" />
    <glyph glyph-name="afii10069" unicode="&#x434;" horiz-adv-x="454" 
d="M147 667h210q16 0 24 -5.5t9.5 -12t1.5 -17.5v-500q0 -10 1.5 -12t10.5 -2h12q16 0 24 -5.5t9.5 -12t1.5 -17.5v-177q0 -16 -5.5 -24t-12 -9.5t-17.5 -1.5h-43q-16 0 -24 5.5t-9.5 12t-1.5 17.5v79q0 15 -16 15h-188q-18 0 -18 -19v-75q0 -16 -5.5 -24t-12 -9.5
t-17.5 -1.5h-43q-16 0 -24 5.5t-9.5 12t-1.5 17.5v177q0 22 7.5 28.5t22.5 6.5h7q5 0 12.5 16.5t16 52t14.5 79.5q18 129 26 300l3 72q0 14 6 20.5t11.5 7.5t17.5 1zM275 132v404q0 12 -12 12h-31q-13 0 -14 -17l-3 -53q-8 -154 -15 -214q-11 -94 -20 -131q-2 -5 0 -8
q2 -7 14 -7h67h6t5 3.5t3 10.5z" />
    <glyph glyph-name="afii10070" unicode="&#x435;" horiz-adv-x="301" 
d="M298 43q0 -43 -34 -43h-204q-20 0 -27 9t-7 35v579q0 25 7.5 34.5t26.5 9.5h198q19 0 25.5 -7.5t6.5 -31.5v-37q0 -25 -6.5 -33.5t-25.5 -8.5h-98q-11 0 -14.5 -4t-3.5 -18v-93q0 -14 2.5 -17.5t15.5 -3.5h50q17 0 23 -7t6 -27v-51q0 -19 -6.5 -26t-22.5 -7h-50
q-11 0 -14.5 -3t-3.5 -12v-140q0 -13 4 -17.5t17 -4.5h99q20 0 28 -9.5t8 -33.5v-32z" />
    <glyph glyph-name="afii10072" unicode="&#x436;" horiz-adv-x="559" 
d="M451 385l101 -355q4 -10 4 -16q0 -14 -20 -14h-82q-6 0 -10 1.5t-6.5 3t-4.5 5.5t-3 5.5t-2.5 7t-1.5 6.5l-68 251q-3 11 -11 11q-9 0 -9 -13v-238q0 -12 -1 -19t-8.5 -14t-21.5 -7h-53q-11 0 -16.5 1.5t-11 12t-5.5 30.5v234q0 13 -9 13q-8 0 -11 -11l-68 -251
q-2 -10 -3.5 -14t-7.5 -9.5t-17 -5.5h-82q-20 0 -20 14q0 6 4 16l101 355l-83 230q-10 28 -10 34q0 18 26 18h65q28 0 37 -28l61 -200q3 -12 10 -12t7 18v179q0 20 6.5 30t12 11.5t13.5 1.5h55q30 0 30 -42v-180q0 -18 7 -18t10 12l61 200q9 28 37 28h65q26 0 26 -18
q0 -6 -10 -34z" />
    <glyph glyph-name="afii10073" unicode="&#x437;" horiz-adv-x="287" 
d="M11 592v34q0 27 7 34t26 7h112q50 0 76 -22q36 -31 36 -133q0 -60 -11.5 -98t-48.5 -60q21 -13 32 -23.5t22 -46t11 -92.5q0 -117 -34 -157q-31 -35 -92 -35h-111q-19 0 -26 7t-7 34v34q0 16 2 25t7.5 12.5t10 4.5t13.5 1h79q23 0 30.5 22t7.5 70q0 45 -7 64.5t-25 19.5
h-48q-19 0 -24.5 7.5t-5.5 34.5v35q0 27 5.5 34.5t24.5 7.5h48q30 0 30 68t-36 68h-71q-9 0 -13.5 1t-10 4.5t-7.5 12.5t-2 25z" />
    <glyph glyph-name="afii10074" unicode="&#x438;" horiz-adv-x="391" 
d="M26 45v577q0 27 8.5 36t27.5 9h52q18 0 24.5 -10t6.5 -34v-230q0 -19 5 -19q6 0 11 14l84 248q7 21 14 26t25 5h46q21 0 28 -9t7 -35v-578q0 -27 -8.5 -36t-27.5 -9h-52q-18 0 -24.5 10t-6.5 34v231q0 19 -5 19q-6 0 -11 -14l-84 -249q-7 -20 -13.5 -25.5t-25.5 -5.5h-46
q-21 0 -28 9.5t-7 35.5z" />
    <glyph glyph-name="afii10075" unicode="&#x439;" horiz-adv-x="391" 
d="M26 45v577q0 27 8.5 36t27.5 9h52q18 0 24.5 -10t6.5 -34v-230q0 -19 5 -19q6 0 11 14l84 248q7 21 14 26t25 5h46q21 0 28 -9t7 -35v-578q0 -27 -8.5 -36t-27.5 -9h-52q-18 0 -24.5 10t-6.5 34v231q0 19 -5 19q-6 0 -11 -14l-84 -249q-7 -20 -13.5 -25.5t-25.5 -5.5h-46
q-21 0 -28 9.5t-7 35.5zM321 790q0 -39 -29.5 -68t-96.5 -29t-97 29t-30 68q0 13 11 13h27q10 0 13 -13q4 -14 19.5 -19.5t56.5 -5.5t57 6t18 19q5 13 12 13h28q11 0 11 -13z" />
    <glyph glyph-name="afii10076" unicode="&#x43a;" horiz-adv-x="375" 
d="M372 655q0 -6 -3 -12l-99 -192q-5 -9 -6 -19q-1 -6 3 -21l101 -381q4 -20 1 -25t-17 -5h-82q-13 0 -18.5 6t-9.5 23l-47 222q-7 31 -12 31q-6 0 -10 -5.5t-20 -35.5q-9 -17 -9 -56v-143q0 -26 -7 -34t-26 -8h-50q-21 0 -28 8.5t-7 35.5v578q0 26 7 35.5t26 9.5h54
q17 0 24 -10t7 -35v-149q0 -10 4 -11q3 -1 5.5 1.5t5.5 9.5l74 156q11 24 17 31t21 7h89q12 0 12 -12z" />
    <glyph glyph-name="afii10077" unicode="&#x43b;" horiz-adv-x="411" 
d="M211 527l-2 -139q-5 -209 -49 -315q-32 -76 -110 -76h-21q-26 0 -26 28v69q0 24 19 24h9q68 0 68 411q0 22 -0.5 44t-0.5 35.5v15.5q0 20 6.5 30t12 11.5t14.5 1.5h221q20 0 26.5 -11t6.5 -33v-582q0 -19 -4 -28.5t-9.5 -11t-15.5 -1.5h-56q-10 0 -15.5 1.5t-10.5 11
t-5 28.5v490q0 18 -15 18h-25q-11 0 -14.5 -4t-3.5 -18z" />
    <glyph glyph-name="afii10078" unicode="&#x43c;" horiz-adv-x="466" 
d="M440 43q0 -27 -6 -35t-27 -8h-53q-19 0 -25.5 9t-6.5 33v271q0 24 -4 24q-5 0 -9 -22l-40 -198q-4 -18 -11.5 -24t-24.5 -6t-24.5 6t-11.5 24l-40 198q-4 22 -9 22q-4 0 -4 -24v-271q0 -24 -6.5 -33t-25.5 -9h-53q-21 0 -27 8t-6 35v583q0 25 6.5 33t25.5 8h55
q24 0 31.5 -5t13.5 -26l67 -240q3 -9 8 -9t8 9l67 240q6 21 13.5 26t31.5 5h55q19 0 25.5 -8t6.5 -33v-583z" />
    <glyph glyph-name="afii10079" unicode="&#x43d;" horiz-adv-x="378" 
d="M352 44q0 -25 -7 -34.5t-26 -9.5h-53q-19 0 -25 10t-6 33v231q0 12 -3 16.5t-13 4.5h-60q-10 0 -13 -4.5t-3 -16.5v-231q0 -23 -6 -33t-25 -10h-53q-19 0 -26 9.5t-7 34.5v580q0 24 7.5 33.5t25.5 9.5h54q30 0 30 -42v-193q0 -19 15 -19h62q15 0 15 19v193q0 42 30 42h54
q18 0 25.5 -9.5t7.5 -33.5v-580z" />
    <glyph glyph-name="afii10080" unicode="&#x43e;" 
d="M339 335v-65t-1.5 -58t-4.5 -55.5t-8.5 -46.5t-13.5 -42t-20 -31.5t-28 -25.5t-37.5 -14t-47.5 -6q-27 0 -48.5 6t-37.5 14t-28 26t-20 31.5t-13.5 42t-8 46t-4 55.5t-1.5 58v65v65t1.5 57.5t4 54.5t8 45.5t13.5 41.5t20 30.5t28 25t37.5 13.5t48.5 6q107 0 139 -90
q22 -59 22 -222v-27zM222 335q-1 142 -7 177.5t-37 35.5t-37.5 -36.5t-6.5 -176.5q1 -143 7 -180t37 -37t37.5 38t6.5 179z" />
    <glyph glyph-name="afii10081" unicode="&#x43f;" horiz-adv-x="378" 
d="M59 667h260q18 0 25.5 -9.5t7.5 -33.5v-580q0 -25 -7 -34.5t-26 -9.5h-53q-19 0 -25 10t-6 33v486q0 12 -3 16.5t-13 4.5h-60q-16 0 -16 -23v-484q0 -23 -6 -33t-25 -10h-53q-19 0 -26 9.5t-7 34.5v580q0 24 7.5 33.5t25.5 9.5z" />
    <glyph glyph-name="afii10082" unicode="&#x440;" horiz-adv-x="347" 
d="M340 454q0 -101 -28.5 -153.5t-83.5 -52.5h-84v-205q0 -26 -6 -34.5t-26 -8.5h-54q-20 0 -26 8t-6 35v578q0 26 7 36t25 10h154q128 0 128 -213zM222 455q0 58 -7.5 76t-25.5 18h-29q-8 0 -12 -3.5t-4 -14.5v-148q0 -17 15 -17h33q16 0 23 16.5t7 72.5z" />
    <glyph glyph-name="afii10083" unicode="&#x441;" horiz-adv-x="290" 
d="M287 587q0 -23 -6.5 -30.5t-26.5 -7.5h-76q-24 0 -30 -14q-11 -23 -11 -186v-17q0 -82 1 -122t6 -62.5t11 -26t21 -3.5h78q18 0 25 -7.5t7 -26.5v-48q0 -20 -6.5 -28t-23.5 -8h-119q-32 0 -51.5 8.5t-34 27.5t-21.5 58t-10 91t-3 136q-1 214 18 280t97 66h124q17 0 24 -8
t7 -27v-45z" />
    <glyph glyph-name="afii10084" unicode="&#x442;" horiz-adv-x="315" 
d="M312 590q0 -24 -6.5 -32.5t-24.5 -8.5h-52q-13 0 -13 -20v-485q0 -26 -6.5 -35t-25.5 -9h-52q-20 0 -27 8.5t-7 32.5v488q0 20 -13 20h-52q-18 0 -24 7.5t-6 32.5v34q0 26 6.5 35t26.5 9h244q18 0 25 -8.5t7 -31.5v-37z" />
    <glyph glyph-name="afii10085" unicode="&#x443;" horiz-adv-x="364" 
d="M128 635l52 -284q3 -15 8 -15q8 0 9 15l47 284q1 11 2.5 16t7 10.5t16.5 5.5h74q14 0 17 -7t0 -20l-102 -503q-11 -62 -47.5 -101t-92.5 -39h-50q-19 0 -29 7t-11.5 14.5t-1.5 22.5v39q0 6 2.5 13.5t10.5 16t20 8.5h17q20 0 30.5 14t2.5 46l-107 462q-6 27 18 27h80
q15 0 19 -5.5t8 -26.5z" />
    <glyph glyph-name="afii10086" unicode="&#x444;" horiz-adv-x="534" 
d="M404 340q0 4 0.5 21.5t0 24.5l-1.5 22t-4.5 22l-8.5 16.5t-13.5 13t-19.5 3.5h-15q-8 0 -12 -3.5t-4 -14.5v-210q0 -17 15 -17h16q12 0 20.5 3.5t13.5 12.5t8 16.5t4 21.5t1.5 22t0 24.5t-0.5 21.5zM130 340q0 -5 -0.5 -22t0 -24.5l1.5 -22t4 -21.5t8.5 -16t14 -12.5
t20.5 -3.5h15q15 0 15 17v210q0 11 -4 14.5t-12 3.5h-15q-11 0 -19.5 -3.5t-13.5 -13l-8.5 -16.5t-4.5 -22l-1.5 -22t0 -24.5t0.5 -21.5zM208 100h-32q-41 0 -71 12.5t-47.5 32.5t-28 52t-14 65t-3.5 77q0 115 36.5 177t128.5 65l31 1v56q0 42 30 42h58q30 0 30 -42v-56
l32 -1q89 -3 126.5 -60t37.5 -182q0 -55 -7 -95t-24 -74t-50 -52t-82 -18h-33v-56q0 -26 -6.5 -35t-25.5 -9h-52q-20 0 -27 8.5t-7 32.5v59z" />
    <glyph glyph-name="afii10087" unicode="&#x445;" horiz-adv-x="342" 
d="M337 37q9 -37 -16 -37h-78q-23 0 -27 25l-36 207q-3 12 -9 12t-9 -12l-36 -207q-4 -25 -27 -25h-78q-25 0 -16 37l66 309l-66 285q-8 36 20 36h76q20 0 26 -27l36 -188q2 -13 8 -13t8 13l36 188q6 27 26 27h76q28 0 20 -36l-67 -285z" />
    <glyph glyph-name="afii10088" unicode="&#x446;" horiz-adv-x="414" 
d="M352 626v-486q0 -22 16 -22h8q16 0 24 -5.5t9.5 -12t1.5 -17.5v-177q0 -16 -5.5 -24t-12 -9.5t-17.5 -1.5h-43q-16 0 -24 5.5t-9.5 12t-1.5 17.5v79q0 15 -16 15h-223h-7.5t-8.5 2t-8.5 6t-5.5 13t-3 22v580q0 20 5.5 30.5t11 12t16.5 1.5h53q15 0 22 -8t8 -15t1 -20
v-479q0 -27 18 -27h56q18 0 18 27v481q0 19 5 28.5t10.5 11t15.5 1.5h57q10 0 15.5 -1.5t9.5 -11t4 -28.5z" />
    <glyph glyph-name="afii10089" unicode="&#x447;" horiz-adv-x="364" 
d="M338 623v-582q0 -19 -4 -28.5t-9.5 -11t-15.5 -1.5h-57q-10 0 -15.5 1.5t-10.5 11t-5 28.5v187q0 18 -9 20q-2 1 -6 1h-24q-77 0 -99 8q-52 19 -59 109q-2 19 -2 43v215q0 16 3.5 25.5t10 13t9.5 4t10 0.5h54q30 0 30 -42v-211q0 -22 6.5 -32.5t14.5 -12.5t24 -2h18
q19 0 19 25v233q0 15 3.5 25t10 13t9.5 3.5t9 0.5h52q20 0 26.5 -11t6.5 -33z" />
    <glyph glyph-name="afii10090" unicode="&#x448;" horiz-adv-x="557" 
d="M337 626v-487q0 -21 16 -21h46q15 0 15 18v3v487q0 19 5 28.5t10.5 11t15.5 1.5h57q10 0 15.5 -1.5t9.5 -11t4 -28.5v-582q0 -14 -2 -22.5t-9.5 -15t-21.5 -6.5h-439h-7.5t-8.5 2t-8.5 6t-5.5 13t-3 22v580q0 20 5.5 30.5t11 12t16.5 1.5h53q15 0 22 -8t8 -15t1 -20v-485
q0 -21 16 -21h46q15 0 15 18v3v487q0 19 5 28.5t10.5 11t15.5 1.5h57q10 0 15.5 -1.5t9.5 -11t4 -28.5z" />
    <glyph glyph-name="afii10091" unicode="&#x449;" horiz-adv-x="593" 
d="M337 626v-487q0 -21 16 -21h46q15 0 15 18v3v487q0 19 5 28.5t10.5 11t15.5 1.5h57q10 0 15.5 -1.5t9.5 -11t4 -28.5v-494q0 -10 1.5 -12t10.5 -2h12q11 0 17.5 -1.5t12 -9.5t5.5 -24v-177q0 -16 -5.5 -24t-12 -9.5t-17.5 -1.5h-43q-16 0 -24 5.5t-9.5 12t-1.5 17.5v79
q0 15 -16 15h-402h-7.5t-8.5 2t-8.5 6t-5.5 13t-3 22v580q0 20 5.5 30.5t11 12t16.5 1.5h53q15 0 22 -8t8 -15t1 -20v-485q0 -21 16 -21h46q15 0 15 18v3v487q0 19 5 28.5t10.5 11t15.5 1.5h57q10 0 15.5 -1.5t9.5 -11t4 -28.5z" />
    <glyph glyph-name="afii10092" unicode="&#x44a;" horiz-adv-x="426" 
d="M294 212q0 -58 -7.5 -76t-25.5 -18h-29q-8 0 -12 3.5t-4 14.5v148q0 17 15 17h33q16 0 23 -16.5t7 -72.5zM98 529v-483q0 -26 7 -36t25 -10h154q128 0 128 213q0 101 -28.5 153.5t-83.5 52.5h-84v205q0 24 -8 33.5t-27 9.5h-145q-20 0 -26.5 -9t-6.5 -35v-34
q0 -25 6 -32.5t24 -7.5h52q13 0 13 -20z" />
    <glyph glyph-name="afii10093" unicode="&#x44b;" horiz-adv-x="524" 
d="M222 212q0 -58 -7.5 -76t-25.5 -18h-29q-8 0 -12 3.5t-4 14.5v148q0 17 15 17h33q16 0 23 -16.5t7 -72.5zM144 419v205q0 24 -7.5 33.5t-27.5 9.5h-50q-20 0 -26.5 -9t-6.5 -37v-575q0 -26 7 -36t25 -10h154q128 0 128 213q0 101 -28.5 153.5t-83.5 52.5h-84zM498 42
q0 -26 -7 -34t-26 -8h-50q-21 0 -28 8.5t-7 35.5v578q0 26 7 35.5t26 9.5h54q17 0 24 -10t7 -35v-580z" />
    <glyph glyph-name="afii10094" unicode="&#x44c;" horiz-adv-x="354" 
d="M222 212q0 -58 -7.5 -76t-25.5 -18h-29q-8 0 -12 3.5t-4 14.5v148q0 17 15 17h33q16 0 23 -16.5t7 -72.5zM144 419v205q0 24 -7.5 33.5t-27.5 9.5h-50q-20 0 -26.5 -9t-6.5 -37v-575q0 -26 7 -36t25 -10h154q128 0 128 213q0 101 -28.5 153.5t-83.5 52.5h-84z" />
    <glyph glyph-name="afii10095" unicode="&#x44d;" horiz-adv-x="290" 
d="M153 280q-2 -121 -9 -141q-5 -14 -10.5 -17.5t-19.5 -3.5h-78q-18 0 -25 -7.5t-7 -26.5v-48q0 -20 6.5 -28t23.5 -8h119q32 0 51.5 8.5t34 27.5t21.5 58t10 91t3 136q1 214 -18 280t-97 66h-124q-17 0 -24 -8t-7 -27v-45q0 -23 6.5 -30.5t26.5 -7.5h76q28 0 33 -23t8 -92
q0 -14 -2.5 -17.5t-15.5 -3.5h-61q-17 0 -23 -7t-6 -27v-51q0 -19 6.5 -26t22.5 -7h61q11 0 14.5 -3t3.5 -12z" />
    <glyph glyph-name="afii10096" unicode="&#x44e;" horiz-adv-x="542" 
d="M203 276q0 19 -15 19h-29q-16 0 -16 -21v-231q0 -13 -1 -20t-8 -15t-22 -8h-53q-11 0 -16.5 1.5t-11 12t-5.5 30.5v580q0 16 3.5 25.5t10 13t9.5 4t10 0.5h54q30 0 30 -42v-193q0 -19 15 -19h29q16 0 16 22q2 47 5.5 79t14 65t27.5 52t45.5 31t68.5 12q107 0 139 -90
q22 -59 22 -222v-27v-65t-1.5 -58t-4.5 -55.5t-8.5 -46.5t-13.5 -42t-20 -31.5t-28 -25.5t-37.5 -14t-47.5 -6q-43 0 -73 14t-46.5 36t-26 62t-12 77t-3.5 96zM408 335q-1 142 -7 177.5t-37 35.5t-37.5 -36.5t-6.5 -176.5q1 -143 7 -180t37 -37t37.5 38t6.5 179z" />
    <glyph glyph-name="afii10097" unicode="&#x44f;" horiz-adv-x="351" 
d="M5 14q0 -14 18 -14h78q14 0 19 5.5t8 23.5l41 240q2 9 12 9h14q11 0 11 -9v-227q0 -23 7.5 -32.5t25.5 -9.5h54q19 0 25.5 9t6.5 34v579q0 26 -7.5 35.5t-26.5 9.5h-143q-137 0 -137 -206q0 -56 12.5 -90.5t41.5 -59.5l-58 -284q-2 -10 -2 -13zM127 476q0 73 34 73h32
q13 0 13 -14v-121q0 -18 -10 -18h-33q-36 0 -36 80z" />
    <glyph glyph-name="afii10071" unicode="&#x451;" horiz-adv-x="301" 
d="M253 723q0 -18 -6.5 -24.5t-24.5 -6.5h-29q-18 0 -24.5 6.5t-6.5 24.5v38q0 18 6.5 24.5t24.5 6.5h29q18 0 24.5 -6.5t6.5 -24.5v-38zM132 723q0 -18 -6.5 -24.5t-24.5 -6.5h-29q-18 0 -24.5 6.5t-6.5 24.5v38q0 18 6.5 24.5t24.5 6.5h29q18 0 24.5 -6.5t6.5 -24.5v-38z
M298 43q0 -43 -34 -43h-204q-20 0 -27 9t-7 35v579q0 25 7.5 34.5t26.5 9.5h198q19 0 25.5 -7.5t6.5 -31.5v-37q0 -25 -6.5 -33.5t-25.5 -8.5h-98q-11 0 -14.5 -4t-3.5 -18v-93q0 -14 2.5 -17.5t15.5 -3.5h50q17 0 23 -7t6 -27v-51q0 -19 -6.5 -26t-22.5 -7h-50
q-11 0 -14.5 -3t-3.5 -12v-140q0 -13 4 -17.5t17 -4.5h99q20 0 28 -9.5t8 -33.5v-32z" />
    <glyph glyph-name="afii10099" unicode="&#x452;" horiz-adv-x="459" 
d="M445 207q0 -207 -132 -207h-24q-22 0 -28.5 8t-6.5 33v37q0 24 6 32t23 8q15 0 19 1q20 0 25 24t5 69q0 57 -21 73t-61 16h-16q-19 0 -19 -24v-235q0 -15 -3 -24t-9 -12.5t-9.5 -4.5t-9.5 -1h-53q-20 0 -26.5 11t-6.5 33v485q0 20 -13 20h-52q-18 0 -24 7.5t-6 32.5v34
q0 26 6.5 35t26.5 9h244q18 0 25 -8.5t7 -31.5v-37q0 -24 -6.5 -32.5t-24.5 -8.5h-53q-13 0 -13 -20v-89q0 -6 0.5 -8.5t1.5 -6t4.5 -5t8.5 -1.5h24q36 0 57.5 -2.5t50 -14t44.5 -33t27.5 -62.5t11.5 -100z" />
    <glyph glyph-name="afii10100" unicode="&#x453;" horiz-adv-x="287" 
d="M143 522v-480q0 -24 -6 -33t-23 -9h-56q-19 0 -25.5 8.5t-6.5 33.5v579q0 28 6.5 37t26.5 9h190q20 0 27.5 -9.5t7.5 -33.5v-35q0 -22 -7 -31t-24 -9h-92q-12 0 -15 -5t-3 -22zM247 776q0 -7 -10 -16l-69 -59q-10 -9 -22 -9h-62q-11 0 -11 9q0 7 5 13l45 59q11 16 22 16
h88q14 0 14 -13z" />
    <glyph glyph-name="afii10101" unicode="&#x454;" horiz-adv-x="290" 
d="M137 280q2 -121 9 -141q5 -14 10.5 -17.5t19.5 -3.5h78q18 0 25 -7.5t7 -26.5v-48q0 -20 -6.5 -28t-23.5 -8h-119q-32 0 -51.5 8.5t-34 27.5t-21.5 58t-10 91t-3 136q-1 214 18 280t97 66h124q17 0 24 -8t7 -27v-45q0 -23 -6.5 -30.5t-26.5 -7.5h-76q-28 0 -33 -23
t-8 -92q0 -14 2.5 -17.5t15.5 -3.5h61q17 0 23 -7t6 -27v-51q0 -19 -6.5 -26t-22.5 -7h-61q-11 0 -14.5 -3t-3.5 -12z" />
    <glyph glyph-name="afii10102" unicode="&#x455;" horiz-adv-x="302" 
d="M297 107q0 -107 -107 -107h-149q-20 0 -26.5 8t-6.5 33v35q0 26 6 34t26 8h103q20 0 25.5 16.5t-4.5 32.5l-113 213q-46 87 -46 166q0 66 30 93.5t94 27.5h114q28 0 28 -36v-44q0 -21 -7 -29.5t-24 -8.5h-89q-24 0 -29.5 -18.5t7.5 -40.5l107 -197q38 -70 49.5 -107.5
t11.5 -78.5z" />
    <glyph glyph-name="afii10103" unicode="&#x456;" horiz-adv-x="170" 
d="M144 42q0 -26 -7 -34t-26 -8h-50q-21 0 -28 8.5t-7 35.5v578q0 26 7 35.5t26 9.5h54q17 0 24 -10t7 -35v-580z" />
    <glyph glyph-name="afii10104" unicode="&#x457;" horiz-adv-x="170" 
d="M192 723q0 -18 -6.5 -24.5t-24.5 -6.5h-29q-18 0 -24.5 6.5t-6.5 24.5v38q0 18 6.5 24.5t24.5 6.5h29q18 0 24.5 -6.5t6.5 -24.5v-38zM71 723q0 -18 -6.5 -24.5t-24.5 -6.5h-29q-18 0 -24.5 6.5t-6.5 24.5v38q0 18 6.5 24.5t24.5 6.5h29q18 0 24.5 -6.5t6.5 -24.5v-38z
M144 42q0 -26 -7 -34t-26 -8h-50q-21 0 -28 8.5t-7 35.5v578q0 26 7 35.5t26 9.5h54q17 0 24 -10t7 -35v-580z" />
    <glyph glyph-name="afii10105" unicode="&#x458;" horiz-adv-x="230" 
d="M211 171q0 -73 -23 -116q-30 -55 -101 -55h-49q-22 0 -28.5 8t-6.5 33v37q0 25 6.5 32.5t25.5 7.5h26q18 0 25 9t7 35v463q0 26 6.5 34t27.5 8h50q21 0 27.5 -8t6.5 -33v-455z" />
    <glyph glyph-name="afii10106" unicode="&#x459;" horiz-adv-x="596" 
d="M131 667h221q19 0 26.5 -9.5t7.5 -33.5v-205h84q55 0 83.5 -52.5t28.5 -153.5q0 -213 -128 -213h-154q-10 0 -15.5 1.5t-10.5 11t-5 28.5v490q0 18 -15 18h-25q-11 0 -14.5 -4t-3.5 -18l-2 -139q-5 -209 -49 -315q-32 -76 -110 -76h-21q-26 0 -26 28v69q0 24 19 24h9
q68 0 68 411q0 22 -0.5 44t-0.5 35.5v15.5q0 20 6.5 30t12 11.5t14.5 1.5zM464 212q0 56 -7 72.5t-23 16.5h-33q-15 0 -15 -17v-148q0 -11 4 -14.5t12 -3.5h29q18 0 25.5 18t7.5 76z" />
    <glyph glyph-name="afii10107" unicode="&#x45a;" horiz-adv-x="563" 
d="M266 0h155q128 0 128 213q0 101 -28.5 153.5t-83.5 52.5h-84v205q0 24 -7.5 33.5t-26.5 9.5h-54q-30 0 -30 -42v-187q0 -19 -15 -19h-62q-15 0 -15 19v187q0 42 -30 42h-54q-18 0 -25.5 -9.5t-7.5 -33.5v-580q0 -25 7 -34.5t26 -9.5h53q19 0 25 10t6 33v237q0 12 3 16.5
t13 4.5h60q10 0 13 -4.5t3 -16.5v-237q0 -23 6 -33t25 -10zM431 212q0 -58 -7.5 -76t-25.5 -18h-29q-8 0 -12 3.5t-4 14.5v148q0 17 15 17h33q16 0 23 -16.5t7 -72.5z" />
    <glyph glyph-name="afii10108" unicode="&#x45b;" horiz-adv-x="436" 
d="M98 45v484q0 20 -13 20h-52q-18 0 -24 7.5t-6 32.5v34q0 26 6.5 35t26.5 9h244q18 0 25 -8.5t7 -31.5v-37q0 -24 -6.5 -32.5t-24.5 -8.5h-53q-13 0 -13 -20v-89q0 -18 9 -20q2 -1 6 -1h24q77 0 99 -8q52 -19 59 -109q2 -19 2 -43v-215q0 -16 -3.5 -25.5t-10 -13t-9.5 -4
t-10 -0.5h-54q-30 0 -30 42v211q0 22 -6.5 32.5t-14.5 12.5t-24 2h-18q-19 0 -19 -25v-233q0 -15 -3.5 -25t-10 -13t-9.5 -3.5t-9 -0.5h-52q-20 0 -26.5 11t-6.5 33z" />
    <glyph glyph-name="afii10109" unicode="&#x45c;" horiz-adv-x="375" 
d="M18 45v578q0 21 5.5 31t11.5 11.5t17 1.5h49q10 0 14 -0.5t10 -4.5t8 -13.5t2 -25.5v-150q0 -11 6 -11q3 0 9 11l75 158q7 15 9 18.5t6.5 9.5t9 7t12.5 1h89q16 0 12 -12l-3 -12l-99 -192q-6 -10 -6 -19q0 -10 2 -17l102 -385q5 -10 3 -20t-19 -10h-82q-10 0 -16.5 5.5
t-8 10t-3.5 13.5l-51 239q-3 21 -10 21q-6 0 -13 -17l-16 -34q-8 -16 -8 -33v-164q0 -26 -5.5 -33.5t-24.5 -7.5h-52q-22 0 -28.5 7t-6.5 38zM295 776q0 -7 -10 -16l-69 -59q-10 -9 -22 -9h-62q-11 0 -11 9q0 7 5 13l45 59q11 16 22 16h88q14 0 14 -13z" />
    <glyph glyph-name="afii10110" unicode="&#x45e;" horiz-adv-x="364" 
d="M128 635l52 -284q3 -15 8 -15q8 0 9 15l47 284q1 11 2.5 16t7 10.5t16.5 5.5h74q14 0 17 -7t0 -20l-102 -503q-11 -62 -47.5 -101t-92.5 -39h-50q-19 0 -29 7t-11.5 14.5t-1.5 22.5v39q0 6 2.5 13.5t10.5 16t20 8.5h17q20 0 30.5 14t2.5 46l-107 462q-6 27 18 27h80
q15 0 19 -5.5t8 -26.5zM307 790q0 -39 -29.5 -68t-96.5 -29t-97 29t-30 68q0 13 11 13h27q10 0 13 -13q4 -14 19.5 -19.5t56.5 -5.5t57 6t18 19q5 13 12 13h28q11 0 11 -13z" />
    <glyph glyph-name="afii10193" unicode="&#x45f;" horiz-adv-x="378" 
d="M59 0h46q16 0 16 -15v-79q0 -11 1.5 -17.5t9.5 -12t24 -5.5h43q16 0 24 5.5t9.5 12t1.5 17.5v79q0 15 16 15h69q18 0 25.5 9.5t7.5 33.5v580q0 25 -7 34.5t-26 9.5h-53q-19 0 -25 -10t-6 -33v-486q0 -12 -3 -16.5t-13 -4.5h-60q-16 0 -16 23v484q0 23 -6 33t-25 10h-53
q-19 0 -26 -9.5t-7 -34.5v-580q0 -24 7.5 -33.5t25.5 -9.5z" />
    <glyph glyph-name="afii10050" unicode="&#x490;" horiz-adv-x="278" 
d="M275 729v-138q0 -24 -7.5 -33t-26.5 -9h-81q-16 0 -16 -21v-485q0 -25 -6.5 -34t-25.5 -9h-53q-18 0 -25.5 10t-7.5 33v580q0 27 6.5 35.5t26.5 8.5h78q20 0 20 13v52q0 18 7.5 24t32.5 6h34q26 0 35 -6.5t9 -26.5z" />
    <glyph glyph-name="afii10098" unicode="&#x491;" horiz-adv-x="278" 
d="M275 729v-138q0 -24 -7.5 -33t-26.5 -9h-81q-16 0 -16 -21v-485q0 -25 -6.5 -34t-25.5 -9h-53q-18 0 -25.5 10t-7.5 33v580q0 27 6.5 35.5t26.5 8.5h78q20 0 20 13v52q0 18 7.5 24t32.5 6h34q26 0 35 -6.5t9 -26.5z" />
    <glyph glyph-name="nonbreakinghyphen" unicode="&#x2011;" horiz-adv-x="211" 
d="M201 328q0 -25 -6.5 -33t-25.5 -8h-127q-19 0 -25.5 8t-6.5 33v50q0 25 6.5 33t25.5 8h127q19 0 25.5 -8t6.5 -33v-50z" />
    <glyph glyph-name="endash" unicode="&#x2013;" horiz-adv-x="329" 
d="M319 315q0 -26 -5.5 -35.5t-25.5 -9.5h-247q-20 0 -25.5 9.5t-5.5 35.5v59q0 26 5.5 35.5t25.5 9.5h247q20 0 25.5 -9.5t5.5 -35.5v-59z" />
    <glyph glyph-name="emdash" unicode="&#x2014;" horiz-adv-x="444" 
d="M433 315q0 -26 -5.5 -35.5t-25.5 -9.5h-360q-20 0 -25.5 9.5t-5.5 35.5v59q0 26 5.5 35.5t25.5 9.5h360q20 0 25.5 -9.5t5.5 -35.5v-59z" />
    <glyph glyph-name="quoteleft" unicode="&#x2018;" horiz-adv-x="113" 
d="M109 499q0 -25 -7 -34.5t-26 -9.5h-41q-17 0 -24 9t-7 32v41q0 22 4 35l25 76q6 19 22 19h36q10 0 12 -3t-2 -16l-20 -57q-7 -18 5 -18h7q10 0 13 -7t3 -30v-37z" />
    <glyph glyph-name="quoteright" unicode="&#x2019;" horiz-adv-x="113" 
d="M109 585q0 -22 -4 -35l-25 -76q-6 -19 -22 -19h-36q-10 0 -12 3t2 16l20 57q7 18 -5 18h-7q-10 0 -13 7t-3 30v37q0 25 7 34.5t26 9.5h41q17 0 24 -9t7 -32v-41z" />
    <glyph glyph-name="quotesinglbase" unicode="&#x201a;" horiz-adv-x="117" 
d="M111 36q0 -22 -4 -35l-24 -76q-5 -19 -22 -19h-37q-10 0 -12 3.5t2 15.5l21 57q7 18 -5 18h-7q-10 0 -13.5 7.5t-3.5 29.5v37q0 25 7.5 34.5t25.5 9.5h41q17 0 24 -9t7 -32v-41z" />
    <glyph glyph-name="quotedblleft" unicode="&#x201c;" horiz-adv-x="252" 
d="M246 499q0 -25 -7.5 -34.5t-25.5 -9.5h-41q-17 0 -24 9t-7 32v41q0 22 4 35l24 76q6 19 22 19h37q10 0 12 -3.5t-2 -15.5l-21 -57q-7 -18 5 -18h7q10 0 13.5 -7.5t3.5 -29.5v-37zM111 499q0 -25 -7 -34.5t-26 -9.5h-41q-17 0 -24 9t-7 32v41q0 22 4 35l25 76q6 19 22 19
h36q10 0 12 -3t-2 -16l-20 -57q-7 -18 5 -18h7q10 0 13 -7t3 -30v-37z" />
    <glyph glyph-name="quotedblright" unicode="&#x201d;" horiz-adv-x="252" 
d="M246 585q0 -22 -4 -35l-25 -76q-6 -19 -22 -19h-36q-10 0 -12 3t2 16l20 57q7 18 -5 18h-7q-10 0 -13 7t-3 30v37q0 25 7 34.5t26 9.5h41q17 0 24 -9t7 -32v-41zM111 585q0 -22 -4 -35l-24 -76q-5 -19 -22 -19h-37q-10 0 -12 3.5t2 15.5l21 57q7 18 -5 18h-7
q-10 0 -13.5 7.5t-3.5 29.5v37q0 25 7.5 34.5t25.5 9.5h41q17 0 24 -9t7 -32v-41z" />
    <glyph glyph-name="quotedblbase" unicode="&#x201e;" horiz-adv-x="252" 
d="M246 36q0 -23 -4 -35l-25 -76q-6 -19 -22 -19h-36q-10 0 -12 3t2 16l20 57q7 18 -5 18h-7q-10 0 -13 7t-3 30v37q0 25 7 34.5t26 9.5h41q17 0 24 -9t7 -32v-41zM111 36q0 -22 -4 -35l-24 -76q-5 -19 -22 -19h-37q-10 0 -12 3.5t2 15.5l21 57q7 18 -5 18h-7
q-10 0 -13.5 7.5t-3.5 29.5v37q0 25 7.5 34.5t25.5 9.5h41q17 0 24 -9t7 -32v-41z" />
    <glyph glyph-name="bullet" unicode="&#x2022;" horiz-adv-x="189" 
d="M179 310q0 -35 -9 -46t-38 -11h-75q-29 0 -38 11t-9 46v95q0 35 9 46t38 11h75q29 0 38 -11t9 -46v-95z" />
    <glyph glyph-name="ellipsis" unicode="&#x2026;" horiz-adv-x="439" 
d="M421 45q0 -26 -5.5 -35.5t-25.5 -9.5h-56q-20 0 -25.5 9.5t-5.5 35.5v28q0 26 5.5 35.5t25.5 9.5h56q20 0 25.5 -9.5t5.5 -35.5v-28zM278 45q0 -26 -5.5 -35.5t-25.5 -9.5h-56q-20 0 -25.5 9.5t-5.5 35.5v28q0 26 5.5 35.5t25.5 9.5h56q20 0 25.5 -9.5t5.5 -35.5v-28z
M135 45q0 -26 -5.5 -35.5t-25.5 -9.5h-56q-20 0 -25.5 9.5t-5.5 35.5v28q0 26 5.5 35.5t25.5 9.5h56q20 0 25.5 -9.5t5.5 -35.5v-28z" />
    <glyph glyph-name="perthousand" unicode="&#x2030;" horiz-adv-x="825" 
d="M819 176q0 -104 -26 -146.5t-93 -42.5t-93 42t-26 147q0 98 23.5 138t95.5 40t95.5 -40t23.5 -138zM244 498q0 -105 -26 -147t-93 -42t-93 42.5t-26 146.5q0 98 23.5 138t95.5 40t95.5 -40t23.5 -138zM411 648l-201 -635q-5 -15 -17 -15h-33q-14 0 -17.5 5t1.5 18
l197 631q3 10 7 13t15 3h30q8 0 12 -1t7 -5.5t-1 -13.5zM549 176q0 -104 -26 -146.5t-93 -42.5t-93 42t-26 147q0 98 23.5 138t95.5 40t95.5 -40t23.5 -138zM729 171q0 72 -4 88.5t-24 16.5q-21 0 -25.5 -17.5t-4.5 -87.5q0 -75 4.5 -91.5t25.5 -16.5q20 0 24 16.5t4 91.5z
M154 493q0 72 -4 88.5t-24 16.5q-21 0 -25.5 -17.5t-4.5 -87.5q0 -75 4.5 -91.5t25.5 -16.5q20 0 24 16.5t4 91.5zM459 171q0 72 -4 88.5t-24 16.5q-21 0 -25.5 -17.5t-4.5 -87.5q0 -75 4.5 -91.5t25.5 -16.5q20 0 24 16.5t4 91.5z" />
    <glyph glyph-name="guilsinglleft" unicode="&#x2039;" horiz-adv-x="100" 
d="M95 180q0 -16 -13 -10l-61 44q-16 12 -16 42v129q0 29 13 38l61 45q16 12 16 -9v-67q0 -18 -7 -28l-32 -46l29 -41q10 -15 10 -26v-71z" />
    <glyph glyph-name="guilsinglright" unicode="&#x203a;" horiz-adv-x="100" 
d="M95 256q0 -30 -16 -42l-61 -44q-13 -6 -13 10v71q0 11 10 26l29 41l-32 46q-7 10 -7 28v67q0 21 16 9l61 -45q13 -9 13 -38v-129z" />
    <glyph glyph-name="fraction" unicode="&#x2044;" horiz-adv-x="102" 
d="M172 642l-168 -621q-6 -21 -19 -21h-45q-17 0 -10 25l168 621q6 21 19 21h45q17 0 10 -25z" />
    <glyph glyph-name="Euro" unicode="&#x20ac;" horiz-adv-x="417" 
d="M405 640q0 -12 -7 -31l-14 -43l-4 -12t-4.5 -6.5t-8.5 -3.5t-29 7.5t-46 7.5q-44 0 -70.5 -25.5t-36.5 -91.5h134q14 0 18.5 -3t2.5 -10l-12 -48q-2 -5 -2.5 -6.5t-2.5 -3.5t-5 -2.5t-9 -0.5h-128q-1 -11 -1 -36q0 -28 1 -41h99q14 0 18.5 -3t2.5 -10l-12 -48
q-2 -5 -2.5 -6.5t-2.5 -3.5t-5 -2.5t-9 -0.5h-82q5 -63 25.5 -88.5t58.5 -25.5q31 0 60 6.5t37 6.5q20 0 20 -25v-44q0 -34 -15 -40q-37 -16 -111 -16q-173 0 -198 226h-36q-11 0 -16 3.5t-3 10.5l12 46q4 12 8 13q3 1 8 1h21q-1 9 -1 34q0 29 1 43h-31q-11 0 -16 3.5
t-3 10.5l12 46q4 14 16 14h28q10 64 33 111t54 72t63.5 36.5t69.5 11.5q52 0 100 -17q20 -7 20 -16z" />
    <glyph glyph-name="trademark" unicode="&#x2122;" horiz-adv-x="302" 
d="M297 456h-30l-8 150l-30 -150h-30l-28 148l-8 -148h-31l16 211h40l28 -147l28 147h40zM107 629h-35v-172h-33v172h-34v38h102v-38z" />
    <glyph glyph-name="minus" unicode="&#x2212;" horiz-adv-x="430" 
d="M38 410h354q18 0 24.5 -8.5t6.5 -31.5v-51q0 -23 -7.5 -30.5t-24.5 -7.5h-352q-17 0 -24.5 7.5t-7.5 30.5v51q0 23 6.5 31.5t24.5 8.5z" />
    <glyph glyph-name="approxequal" unicode="&#x2248;" horiz-adv-x="652" 
d="M652 455q0 -20 -4.5 -27.5t-23.5 -17.5q-77 -40 -151 -40q-58 0 -135 29.5t-143 29.5q-87 0 -167 -36q-28 -12 -28 17v19q0 21 5 29.5t23 16.5q77 32 174 32q63 0 140.5 -30t136.5 -30t145 41q10 6 19 1.5t9 -19.5v-15zM652 300q0 -21 -5 -29.5t-23 -16.5
q-77 -32 -174 -32q-63 0 -140.5 30t-136.5 30q-57 0 -145 -42q-10 -6 -19 -1.5t-9 19.5v15q0 21 5 28.5t23 17.5q77 40 151 40q58 0 135 -30t143 -30q85 0 167 37q28 12 28 -17v-19z" />
    </font>
</defs>
</svg>
